G04 #@! TF.GenerationSoftware,KiCad,Pcbnew,(5.1.9-0-10_14)*
G04 #@! TF.CreationDate,2021-03-14T11:16:57+08:00*
G04 #@! TF.ProjectId,mops-out,6d6f7073-2d6f-4757-942e-6b696361645f,rev?*
G04 #@! TF.SameCoordinates,Original*
G04 #@! TF.FileFunction,Copper,L1,Top*
G04 #@! TF.FilePolarity,Positive*
%FSLAX46Y46*%
G04 Gerber Fmt 4.6, Leading zero omitted, Abs format (unit mm)*
G04 Created by KiCad (PCBNEW (5.1.9-0-10_14)) date 2021-03-14 11:16:57*
%MOMM*%
%LPD*%
G01*
G04 APERTURE LIST*
G04 #@! TA.AperFunction,SMDPad,CuDef*
%ADD10R,4.199992X3.499993*%
G04 #@! TD*
G04 #@! TA.AperFunction,ComponentPad*
%ADD11C,2.499995*%
G04 #@! TD*
G04 #@! TA.AperFunction,SMDPad,CuDef*
%ADD12C,14.999995*%
G04 #@! TD*
G04 #@! TA.AperFunction,SMDPad,CuDef*
%ADD13R,0.800000X0.900000*%
G04 #@! TD*
G04 #@! TA.AperFunction,SMDPad,CuDef*
%ADD14R,8.400034X3.499866*%
G04 #@! TD*
G04 #@! TA.AperFunction,SMDPad,CuDef*
%ADD15R,1.999996X0.800100*%
G04 #@! TD*
G04 #@! TA.AperFunction,SMDPad,CuDef*
%ADD16R,3.999992X0.800100*%
G04 #@! TD*
G04 #@! TA.AperFunction,ComponentPad*
%ADD17O,1.000000X1.000000*%
G04 #@! TD*
G04 #@! TA.AperFunction,ComponentPad*
%ADD18R,1.000000X1.000000*%
G04 #@! TD*
G04 #@! TA.AperFunction,ComponentPad*
%ADD19O,0.762000X1.524000*%
G04 #@! TD*
G04 #@! TA.AperFunction,SMDPad,CuDef*
%ADD20R,1.299997X0.899998*%
G04 #@! TD*
G04 #@! TA.AperFunction,SMDPad,CuDef*
%ADD21R,0.750011X1.799996*%
G04 #@! TD*
G04 #@! TA.AperFunction,SMDPad,CuDef*
%ADD22R,0.599948X1.799996*%
G04 #@! TD*
G04 #@! TA.AperFunction,ViaPad*
%ADD23C,0.800000*%
G04 #@! TD*
G04 #@! TA.AperFunction,Conductor*
%ADD24C,0.650000*%
G04 #@! TD*
G04 #@! TA.AperFunction,Conductor*
%ADD25C,0.350000*%
G04 #@! TD*
G04 #@! TA.AperFunction,Conductor*
%ADD26C,0.250000*%
G04 #@! TD*
G04 APERTURE END LIST*
D10*
X115570000Y-67054222D03*
X115570000Y-97029778D03*
D11*
X115570000Y-91279980D03*
X115570000Y-71280020D03*
G04 #@! TA.AperFunction,ComponentPad*
G36*
G01*
X124487863Y-89063705D02*
X122083705Y-91467863D01*
G75*
G02*
X120952337Y-91467863I-565684J565684D01*
G01*
X120952337Y-91467863D01*
G75*
G02*
X120952337Y-90336495I565684J565684D01*
G01*
X123356495Y-87932337D01*
G75*
G02*
X124487863Y-87932337I565684J-565684D01*
G01*
X124487863Y-87932337D01*
G75*
G02*
X124487863Y-89063705I-565684J-565684D01*
G01*
G37*
G04 #@! TD.AperFunction*
G04 #@! TA.AperFunction,ComponentPad*
G36*
G01*
X110187663Y-74763505D02*
X107783505Y-77167663D01*
G75*
G02*
X106652137Y-77167663I-565684J565684D01*
G01*
X106652137Y-77167663D01*
G75*
G02*
X106652137Y-76036295I565684J565684D01*
G01*
X109056295Y-73632137D01*
G75*
G02*
X110187663Y-73632137I565684J-565684D01*
G01*
X110187663Y-73632137D01*
G75*
G02*
X110187663Y-74763505I-565684J-565684D01*
G01*
G37*
G04 #@! TD.AperFunction*
D12*
X115570000Y-82550000D03*
G04 #@! TA.AperFunction,SMDPad,CuDef*
G36*
G01*
X119297000Y-57641500D02*
X119297000Y-57166500D01*
G75*
G02*
X119534500Y-56929000I237500J0D01*
G01*
X120034500Y-56929000D01*
G75*
G02*
X120272000Y-57166500I0J-237500D01*
G01*
X120272000Y-57641500D01*
G75*
G02*
X120034500Y-57879000I-237500J0D01*
G01*
X119534500Y-57879000D01*
G75*
G02*
X119297000Y-57641500I0J237500D01*
G01*
G37*
G04 #@! TD.AperFunction*
G04 #@! TA.AperFunction,SMDPad,CuDef*
G36*
G01*
X117472000Y-57641500D02*
X117472000Y-57166500D01*
G75*
G02*
X117709500Y-56929000I237500J0D01*
G01*
X118209500Y-56929000D01*
G75*
G02*
X118447000Y-57166500I0J-237500D01*
G01*
X118447000Y-57641500D01*
G75*
G02*
X118209500Y-57879000I-237500J0D01*
G01*
X117709500Y-57879000D01*
G75*
G02*
X117472000Y-57641500I0J237500D01*
G01*
G37*
G04 #@! TD.AperFunction*
G04 #@! TA.AperFunction,SMDPad,CuDef*
G36*
G01*
X153178500Y-75101000D02*
X153653500Y-75101000D01*
G75*
G02*
X153891000Y-75338500I0J-237500D01*
G01*
X153891000Y-75838500D01*
G75*
G02*
X153653500Y-76076000I-237500J0D01*
G01*
X153178500Y-76076000D01*
G75*
G02*
X152941000Y-75838500I0J237500D01*
G01*
X152941000Y-75338500D01*
G75*
G02*
X153178500Y-75101000I237500J0D01*
G01*
G37*
G04 #@! TD.AperFunction*
G04 #@! TA.AperFunction,SMDPad,CuDef*
G36*
G01*
X153178500Y-73276000D02*
X153653500Y-73276000D01*
G75*
G02*
X153891000Y-73513500I0J-237500D01*
G01*
X153891000Y-74013500D01*
G75*
G02*
X153653500Y-74251000I-237500J0D01*
G01*
X153178500Y-74251000D01*
G75*
G02*
X152941000Y-74013500I0J237500D01*
G01*
X152941000Y-73513500D01*
G75*
G02*
X153178500Y-73276000I237500J0D01*
G01*
G37*
G04 #@! TD.AperFunction*
D13*
X119634000Y-58944000D03*
X120584000Y-60944000D03*
X118684000Y-60944000D03*
G04 #@! TA.AperFunction,SMDPad,CuDef*
G36*
G01*
X115840500Y-60269000D02*
X116315500Y-60269000D01*
G75*
G02*
X116553000Y-60506500I0J-237500D01*
G01*
X116553000Y-61106500D01*
G75*
G02*
X116315500Y-61344000I-237500J0D01*
G01*
X115840500Y-61344000D01*
G75*
G02*
X115603000Y-61106500I0J237500D01*
G01*
X115603000Y-60506500D01*
G75*
G02*
X115840500Y-60269000I237500J0D01*
G01*
G37*
G04 #@! TD.AperFunction*
G04 #@! TA.AperFunction,SMDPad,CuDef*
G36*
G01*
X115840500Y-58544000D02*
X116315500Y-58544000D01*
G75*
G02*
X116553000Y-58781500I0J-237500D01*
G01*
X116553000Y-59381500D01*
G75*
G02*
X116315500Y-59619000I-237500J0D01*
G01*
X115840500Y-59619000D01*
G75*
G02*
X115603000Y-59381500I0J237500D01*
G01*
X115603000Y-58781500D01*
G75*
G02*
X115840500Y-58544000I237500J0D01*
G01*
G37*
G04 #@! TD.AperFunction*
G04 #@! TA.AperFunction,SMDPad,CuDef*
G36*
G01*
X146465000Y-53127500D02*
X146465000Y-52652500D01*
G75*
G02*
X146702500Y-52415000I237500J0D01*
G01*
X147302500Y-52415000D01*
G75*
G02*
X147540000Y-52652500I0J-237500D01*
G01*
X147540000Y-53127500D01*
G75*
G02*
X147302500Y-53365000I-237500J0D01*
G01*
X146702500Y-53365000D01*
G75*
G02*
X146465000Y-53127500I0J237500D01*
G01*
G37*
G04 #@! TD.AperFunction*
G04 #@! TA.AperFunction,SMDPad,CuDef*
G36*
G01*
X144740000Y-53127500D02*
X144740000Y-52652500D01*
G75*
G02*
X144977500Y-52415000I237500J0D01*
G01*
X145577500Y-52415000D01*
G75*
G02*
X145815000Y-52652500I0J-237500D01*
G01*
X145815000Y-53127500D01*
G75*
G02*
X145577500Y-53365000I-237500J0D01*
G01*
X144977500Y-53365000D01*
G75*
G02*
X144740000Y-53127500I0J237500D01*
G01*
G37*
G04 #@! TD.AperFunction*
G04 #@! TA.AperFunction,SMDPad,CuDef*
G36*
G01*
X153178500Y-71191000D02*
X153653500Y-71191000D01*
G75*
G02*
X153891000Y-71428500I0J-237500D01*
G01*
X153891000Y-72028500D01*
G75*
G02*
X153653500Y-72266000I-237500J0D01*
G01*
X153178500Y-72266000D01*
G75*
G02*
X152941000Y-72028500I0J237500D01*
G01*
X152941000Y-71428500D01*
G75*
G02*
X153178500Y-71191000I237500J0D01*
G01*
G37*
G04 #@! TD.AperFunction*
G04 #@! TA.AperFunction,SMDPad,CuDef*
G36*
G01*
X153178500Y-69466000D02*
X153653500Y-69466000D01*
G75*
G02*
X153891000Y-69703500I0J-237500D01*
G01*
X153891000Y-70303500D01*
G75*
G02*
X153653500Y-70541000I-237500J0D01*
G01*
X153178500Y-70541000D01*
G75*
G02*
X152941000Y-70303500I0J237500D01*
G01*
X152941000Y-69703500D01*
G75*
G02*
X153178500Y-69466000I237500J0D01*
G01*
G37*
G04 #@! TD.AperFunction*
G04 #@! TA.AperFunction,SMDPad,CuDef*
G36*
G01*
X147475000Y-54918000D02*
X147165000Y-54918000D01*
G75*
G02*
X147010000Y-54763000I0J155000D01*
G01*
X147010000Y-54338000D01*
G75*
G02*
X147165000Y-54183000I155000J0D01*
G01*
X147475000Y-54183000D01*
G75*
G02*
X147630000Y-54338000I0J-155000D01*
G01*
X147630000Y-54763000D01*
G75*
G02*
X147475000Y-54918000I-155000J0D01*
G01*
G37*
G04 #@! TD.AperFunction*
G04 #@! TA.AperFunction,SMDPad,CuDef*
G36*
G01*
X147475000Y-56053000D02*
X147165000Y-56053000D01*
G75*
G02*
X147010000Y-55898000I0J155000D01*
G01*
X147010000Y-55473000D01*
G75*
G02*
X147165000Y-55318000I155000J0D01*
G01*
X147475000Y-55318000D01*
G75*
G02*
X147630000Y-55473000I0J-155000D01*
G01*
X147630000Y-55898000D01*
G75*
G02*
X147475000Y-56053000I-155000J0D01*
G01*
G37*
G04 #@! TD.AperFunction*
D14*
X143148050Y-83728052D03*
D15*
X137548112Y-85477858D03*
D16*
X149697948Y-79478124D03*
X149697948Y-77577950D03*
X149697948Y-75678030D03*
X149697948Y-73778110D03*
X149697948Y-71877936D03*
X149697948Y-69978016D03*
D15*
X133697980Y-67037966D03*
X133697980Y-68747894D03*
X133697980Y-70458076D03*
X133697980Y-72168004D03*
X133697980Y-73877932D03*
X133697980Y-75588114D03*
X133697980Y-77298042D03*
X133697980Y-79007970D03*
X133697980Y-80717898D03*
X133697980Y-82428080D03*
D17*
X138176000Y-59817000D03*
X138176000Y-58547000D03*
X136906000Y-59817000D03*
X136906000Y-58547000D03*
X135636000Y-59817000D03*
X135636000Y-58547000D03*
X134366000Y-59817000D03*
X134366000Y-58547000D03*
X133096000Y-58547000D03*
D18*
X133096000Y-59817000D03*
D19*
X142800106Y-48600000D03*
X147199894Y-48600000D03*
D20*
X143096270Y-47559108D03*
X146903730Y-47559362D03*
D21*
X143784356Y-49640638D03*
D22*
X144985268Y-49640638D03*
D21*
X146186180Y-49640638D03*
D23*
X125222000Y-71628000D03*
X140208000Y-80772000D03*
X144780000Y-69596000D03*
X130556000Y-71120000D03*
X132080000Y-68834000D03*
X137935000Y-72644000D03*
X135636000Y-74930000D03*
X132334000Y-70358000D03*
X148590000Y-68326000D03*
X148082000Y-58166000D03*
X129032000Y-80518000D03*
X131318000Y-79248000D03*
X129540000Y-78232000D03*
X115824000Y-62484000D03*
X108458000Y-67564000D03*
D24*
X143784356Y-48247194D02*
X143096270Y-47559108D01*
X143784356Y-49640638D02*
X143784356Y-48247194D01*
X146186180Y-48276912D02*
X146903730Y-47559362D01*
X146186180Y-49640638D02*
X146186180Y-48276912D01*
X142800106Y-47855272D02*
X143096270Y-47559108D01*
X142800106Y-48600000D02*
X142800106Y-47855272D01*
X147199894Y-47855526D02*
X146903730Y-47559362D01*
X147199894Y-48600000D02*
X147199894Y-47855526D01*
D25*
X147002500Y-50456958D02*
X146186180Y-49640638D01*
X147002500Y-52890000D02*
X147002500Y-50456958D01*
X143096524Y-47559362D02*
X143096270Y-47559108D01*
X146903730Y-47559362D02*
X143096524Y-47559362D01*
D24*
X115570000Y-91279980D02*
X115570000Y-97029778D01*
X115570000Y-82550000D02*
X115570000Y-91279980D01*
D25*
X149847384Y-71728500D02*
X149697948Y-71877936D01*
X153416000Y-71728500D02*
X149847384Y-71728500D01*
X147002500Y-54233000D02*
X147320000Y-54550500D01*
X147002500Y-52890000D02*
X147002500Y-54233000D01*
X139051001Y-58126999D02*
X138074002Y-57150000D01*
X139051001Y-58941999D02*
X139051001Y-58126999D01*
X138176000Y-59817000D02*
X139051001Y-58941999D01*
X137033000Y-57150000D02*
X135636000Y-58547000D01*
X138074002Y-57150000D02*
X137033000Y-57150000D01*
X125222000Y-72898000D02*
X125222000Y-71628000D01*
X115570000Y-82550000D02*
X125222000Y-72898000D01*
X120584000Y-66990000D02*
X125222000Y-71628000D01*
X120584000Y-60944000D02*
X120584000Y-66990000D01*
X117983999Y-61769001D02*
X117908999Y-61694001D01*
X119758999Y-61769001D02*
X117983999Y-61769001D01*
X117908999Y-60912499D02*
X116078000Y-59081500D01*
X117908999Y-61694001D02*
X117908999Y-60912499D01*
X120584000Y-60944000D02*
X119758999Y-61769001D01*
X143148050Y-83712050D02*
X143148050Y-83728052D01*
X140208000Y-80772000D02*
X143148050Y-83712050D01*
X147061936Y-71877936D02*
X144780000Y-69596000D01*
X149697948Y-71877936D02*
X147061936Y-71877936D01*
X130556000Y-68829948D02*
X130556000Y-71120000D01*
X132347982Y-67037966D02*
X130556000Y-68829948D01*
X133697980Y-67037966D02*
X132347982Y-67037966D01*
X133611874Y-68834000D02*
X133697980Y-68747894D01*
X132080000Y-68834000D02*
X133611874Y-68834000D01*
X137935000Y-60846000D02*
X137935000Y-72644000D01*
X136906000Y-59817000D02*
X137935000Y-60846000D01*
X134356094Y-74930000D02*
X133697980Y-75588114D01*
X135636000Y-74930000D02*
X134356094Y-74930000D01*
X132434076Y-70458076D02*
X132334000Y-70358000D01*
X133697980Y-70458076D02*
X132434076Y-70458076D01*
X135636000Y-59817000D02*
X135636000Y-64262000D01*
X135636000Y-64262000D02*
X137160000Y-65786000D01*
X137160000Y-65786000D02*
X137160000Y-75438000D01*
X135299958Y-77298042D02*
X133697980Y-77298042D01*
X137160000Y-75438000D02*
X135299958Y-77298042D01*
D24*
X115570000Y-71280020D02*
X115570000Y-67054222D01*
X112539780Y-71280020D02*
X108419900Y-75399900D01*
X115570000Y-71280020D02*
X112539780Y-71280020D01*
D25*
X149723432Y-70003500D02*
X149697948Y-69978016D01*
X153416000Y-70003500D02*
X149723432Y-70003500D01*
X154266010Y-70853510D02*
X153416000Y-70003500D01*
X154266010Y-72913490D02*
X154266010Y-70853510D01*
X153416000Y-73763500D02*
X154266010Y-72913490D01*
X149697948Y-69433948D02*
X148590000Y-68326000D01*
X149697948Y-69978016D02*
X149697948Y-69433948D01*
X147320000Y-57404000D02*
X148082000Y-58166000D01*
X147320000Y-55685500D02*
X147320000Y-57404000D01*
X127719990Y-79205990D02*
X129032000Y-80518000D01*
X127719990Y-62438073D02*
X127719990Y-79205990D01*
X132486064Y-57671999D02*
X127719990Y-62438073D01*
X133490999Y-57671999D02*
X132486064Y-57671999D01*
X134366000Y-58547000D02*
X133490999Y-57671999D01*
X133457950Y-79248000D02*
X133697980Y-79007970D01*
X131318000Y-79248000D02*
X133457950Y-79248000D01*
X132388894Y-58547000D02*
X128270000Y-62665894D01*
X133096000Y-58547000D02*
X132388894Y-58547000D01*
X128270000Y-78109002D02*
X132589078Y-82428080D01*
X132589078Y-82428080D02*
X133697980Y-82428080D01*
X128270000Y-62665894D02*
X128270000Y-78109002D01*
D26*
X144985268Y-52597768D02*
X145277500Y-52890000D01*
X144985268Y-49640638D02*
X144985268Y-52597768D01*
D25*
X152047944Y-79478124D02*
X154816020Y-76710048D01*
X154816020Y-66381719D02*
X145796000Y-57361699D01*
X154816020Y-76710048D02*
X154816020Y-66381719D01*
X149697948Y-79478124D02*
X152047944Y-79478124D01*
X145796000Y-53408500D02*
X145277500Y-52890000D01*
X145796000Y-57361699D02*
X145796000Y-53408500D01*
X149787478Y-75588500D02*
X149697948Y-75678030D01*
X153416000Y-75588500D02*
X149787478Y-75588500D01*
X120983001Y-60118999D02*
X119509001Y-60118999D01*
X119509001Y-60118999D02*
X118684000Y-60944000D01*
X125984000Y-55118000D02*
X120983001Y-60118999D01*
X139192000Y-55118000D02*
X125984000Y-55118000D01*
X143256000Y-69686158D02*
X143256000Y-59182000D01*
X143256000Y-59182000D02*
X139192000Y-55118000D01*
X147347952Y-73778110D02*
X143256000Y-69686158D01*
X149697948Y-73778110D02*
X147347952Y-73778110D01*
X129540000Y-74975986D02*
X129540000Y-78232000D01*
X132347982Y-72168004D02*
X129540000Y-74975986D01*
X133697980Y-72168004D02*
X132347982Y-72168004D01*
X116078000Y-60806500D02*
X116078000Y-61214000D01*
X116078000Y-62230000D02*
X115824000Y-62484000D01*
X116078000Y-61214000D02*
X116078000Y-62230000D01*
X108458000Y-65297778D02*
X108458000Y-67564000D01*
X116351778Y-57404000D02*
X108458000Y-65297778D01*
X117959500Y-57404000D02*
X116351778Y-57404000D01*
X119634000Y-57554500D02*
X119784500Y-57404000D01*
X119634000Y-58944000D02*
X119634000Y-57554500D01*
M02*
