M48
; DRILL file {KiCad (5.1.9-0-10_14)} date Sunday, March 14, 2021 at 11:16:59 AM
; FORMAT={-:-/ absolute / inch / decimal}
; #@! TF.CreationDate,2021-03-14T11:16:59+08:00
; #@! TF.GenerationSoftware,Kicad,Pcbnew,(5.1.9-0-10_14)
; #@! TF.FileFunction,Plated,1,2,PTH
FMAT,2
INCH
T1C0.0157
T2C0.0160
T3C0.0197
T4C0.0256
T5C0.0591
%
G90
G05
T1
X4.27Y-2.66
X4.56Y-2.46
X4.93Y-2.82
X5.08Y-3.17
X5.1Y-3.08
X5.14Y-2.8
X5.17Y-3.12
X5.2Y-2.71
X5.21Y-2.77
X5.34Y-2.95
X5.4305Y-2.86
X5.52Y-3.18
X5.7Y-2.74
X5.83Y-2.29
X5.85Y-2.69
T3
X5.24Y-2.305
X5.24Y-2.355
X5.29Y-2.305
X5.29Y-2.355
X5.34Y-2.305
X5.34Y-2.355
X5.39Y-2.305
X5.39Y-2.355
X5.44Y-2.305
X5.44Y-2.355
T5
X4.55Y-2.8063
X4.55Y-3.5937
T2
G00X5.6221Y-1.9294
M15
G01X5.6221Y-1.8974
M16
G05
G00X5.7953Y-1.9294
M15
G01X5.7953Y-1.8974
M16
G05
T4
G00X4.2288Y-3.0082
M15
G01X4.3082Y-2.9288
M16
G05
G00X4.7918Y-3.5712
M15
G01X4.8712Y-3.4918
M16
G05
T0
M30
