G04 #@! TF.GenerationSoftware,KiCad,Pcbnew,(5.1.9-0-10_14)*
G04 #@! TF.CreationDate,2021-03-14T11:16:57+08:00*
G04 #@! TF.ProjectId,mops-out,6d6f7073-2d6f-4757-942e-6b696361645f,rev?*
G04 #@! TF.SameCoordinates,Original*
G04 #@! TF.FileFunction,Legend,Top*
G04 #@! TF.FilePolarity,Positive*
%FSLAX46Y46*%
G04 Gerber Fmt 4.6, Leading zero omitted, Abs format (unit mm)*
G04 Created by KiCad (PCBNEW (5.1.9-0-10_14)) date 2021-03-14 11:16:57*
%MOMM*%
%LPD*%
G01*
G04 APERTURE LIST*
%ADD10C,0.120000*%
%ADD11C,0.050000*%
%ADD12C,0.254000*%
%ADD13C,0.100076*%
%ADD14C,0.150114*%
%ADD15C,0.100000*%
%ADD16C,0.150000*%
G04 APERTURE END LIST*
D10*
X104000000Y-96000000D02*
X104000000Y-61000000D01*
X104000000Y-96000000D02*
X152500000Y-96000000D01*
X152500000Y-96000000D02*
X152500000Y-50500000D01*
X104000000Y-67000000D02*
X152500000Y-67000000D01*
X118000000Y-67000000D02*
X118000000Y-47000000D01*
X100000000Y-65000000D02*
X118000000Y-65000000D01*
X100000000Y-65500000D02*
X118000000Y-65500000D01*
D11*
X133000000Y-47000000D02*
X133000000Y-53000000D01*
X133000000Y-53000000D02*
X139000000Y-53000000D01*
X139000000Y-53000000D02*
X139000000Y-47000000D01*
X147500000Y-47000000D02*
X147500000Y-50000000D01*
X147500000Y-50000000D02*
X143500000Y-50000000D01*
X143500000Y-50000000D02*
X143500000Y-47000000D01*
X150500000Y-47000000D02*
X150500000Y-53000000D01*
X156500000Y-53000000D02*
X150500000Y-53000000D01*
D12*
X114579400Y-87604600D02*
X113817400Y-87604600D01*
X114731800Y-87960200D02*
X113842800Y-87960200D01*
X113817400Y-86791800D02*
X113817400Y-93192600D01*
X114325400Y-86791800D02*
X113817400Y-86791800D01*
X114528600Y-86791800D02*
X114325400Y-86791800D01*
X114528600Y-87553800D02*
X114528600Y-86791800D01*
X114731800Y-87757000D02*
X114528600Y-87553800D01*
X114731800Y-87960200D02*
X114731800Y-87757000D01*
X115138200Y-91135200D02*
X114731800Y-87960200D01*
X117195600Y-87604600D02*
X116433600Y-87604600D01*
X117170200Y-87960200D02*
X116281200Y-87960200D01*
X117195600Y-86791800D02*
X117195600Y-93192600D01*
X116687600Y-86791800D02*
X117195600Y-86791800D01*
X116484400Y-86791800D02*
X116687600Y-86791800D01*
X116484400Y-87553800D02*
X116484400Y-86791800D01*
X116281200Y-87757000D02*
X116484400Y-87553800D01*
X116281200Y-87960200D02*
X116281200Y-87757000D01*
X115874800Y-91135200D02*
X116281200Y-87960200D01*
X113258600Y-92786200D02*
X112674400Y-92786200D01*
X113309400Y-92075000D02*
X113309400Y-93218000D01*
X112771428Y-92075000D02*
X113309400Y-92075000D01*
X118364000Y-93700600D02*
X112750600Y-93700600D01*
X118465600Y-96215200D02*
X112674400Y-96215200D01*
X118440200Y-95834200D02*
X112674400Y-95834200D01*
X112674400Y-96977200D02*
X112649000Y-97002600D01*
X112674400Y-95072200D02*
X112674400Y-96977200D01*
X113868200Y-95072200D02*
X112674400Y-95072200D01*
X113868200Y-94335600D02*
X113868200Y-95072200D01*
X112674400Y-94335600D02*
X113868200Y-94335600D01*
X112674400Y-93954600D02*
X112674400Y-94335600D01*
X112674400Y-85623400D02*
X112674400Y-93954600D01*
X118414800Y-85623400D02*
X112674400Y-85623400D01*
X118465600Y-85674200D02*
X118414800Y-85623400D01*
X118465600Y-93980000D02*
X118465600Y-85674200D01*
X118465600Y-94361000D02*
X118465600Y-93980000D01*
X118465600Y-94996000D02*
X118465600Y-94361000D01*
X118465600Y-97002600D02*
X118465600Y-94996000D01*
X118491000Y-97028000D02*
X118465600Y-97002600D01*
X118414800Y-93218000D02*
X112674400Y-93218000D01*
X122224800Y-73888600D02*
X122224800Y-77343000D01*
X119786400Y-72466200D02*
X119786400Y-77165200D01*
X108940600Y-73812400D02*
X108940600Y-77266800D01*
X111379000Y-72390000D02*
X111379000Y-77089000D01*
X122250200Y-86766400D02*
X122250200Y-90220800D01*
X119811800Y-86944200D02*
X119811800Y-91643200D01*
X111353600Y-87045800D02*
X111353600Y-91694000D01*
X108864400Y-91236800D02*
X108864400Y-92532200D01*
X123012200Y-72186800D02*
X121742200Y-72186800D01*
X122377200Y-71526400D02*
X122377200Y-72771000D01*
X123571000Y-93116806D02*
X119380000Y-93116806D01*
X123571000Y-70916800D02*
X123571000Y-93116806D01*
X123545600Y-70891400D02*
X123571000Y-70916800D01*
X119354600Y-70891400D02*
X123545600Y-70891400D01*
X119354600Y-67056000D02*
X119354600Y-70891400D01*
X117932200Y-67056000D02*
X119354600Y-67056000D01*
X119354600Y-97028000D02*
X117906800Y-97028000D01*
X119354600Y-93116806D02*
X119354600Y-97028000D01*
X111785400Y-67030600D02*
X111785400Y-70941794D01*
X113233200Y-67030600D02*
X111785400Y-67030600D01*
X111785400Y-97002600D02*
X113233200Y-97002600D01*
X111785400Y-93167200D02*
X111785400Y-97002600D01*
X107594400Y-93167200D02*
X111785400Y-93167200D01*
X107569000Y-93141800D02*
X107594400Y-93167200D01*
X107569000Y-71983600D02*
X107569000Y-93141800D01*
X108610806Y-70941794D02*
X107569000Y-71983600D01*
X111760000Y-70941794D02*
X108610806Y-70941794D01*
X113817400Y-90297000D02*
X112674400Y-90297000D01*
X113817400Y-89712800D02*
X112674400Y-89712800D01*
X118389400Y-89738200D02*
X117246400Y-89738200D01*
X118389400Y-90322400D02*
X117246400Y-90322400D01*
X117830600Y-92075000D02*
X117830600Y-93218000D01*
X118368572Y-92075000D02*
X117830600Y-92075000D01*
X118465600Y-92786200D02*
X117881400Y-92786200D01*
X114020600Y-69164200D02*
X114020600Y-69951600D01*
X112750600Y-69164200D02*
X114020600Y-69164200D01*
X112750600Y-67030600D02*
X112750600Y-69164200D01*
X118289426Y-67083026D02*
X118289426Y-71958200D01*
X118262400Y-71272400D02*
X112776000Y-71272400D01*
X118237000Y-70662800D02*
X112826800Y-70662800D01*
X118287800Y-68453000D02*
X112776000Y-68453000D01*
X118110000Y-68046600D02*
X112750600Y-68046600D01*
X112776000Y-71958200D02*
X112776000Y-73406000D01*
X113487200Y-72491600D02*
X112776000Y-72491600D01*
X118211600Y-72593200D02*
X117500400Y-72593200D01*
X117500400Y-73507600D02*
X118237000Y-73507600D01*
X117500400Y-72059800D02*
X117500400Y-73507600D01*
X113512600Y-72948800D02*
X113512600Y-75869800D01*
X117424200Y-72948800D02*
X113512600Y-72948800D01*
X114376200Y-75514200D02*
X114376200Y-75869800D01*
X114376200Y-75514200D02*
X113512600Y-75514200D01*
X114376200Y-75082400D02*
X114376200Y-75514200D01*
X113512600Y-75082400D02*
X114376200Y-75082400D01*
X114629997Y-73002826D02*
X114358090Y-75127028D01*
X117500400Y-72923400D02*
X117500400Y-75844400D01*
X116636800Y-75488800D02*
X116636800Y-75844400D01*
X117500400Y-75057000D02*
X116636800Y-75057000D01*
X116636800Y-74960150D02*
X116383003Y-72977426D01*
X116636800Y-75488800D02*
X116636800Y-74960150D01*
X117500400Y-75488800D02*
X116636800Y-75488800D01*
X116424862Y-73279000D02*
X114630200Y-73279000D01*
X113512600Y-73406000D02*
X113512600Y-71958200D01*
X112776000Y-73406000D02*
X113512600Y-73406000D01*
X112776000Y-74168000D02*
X112776000Y-73406000D01*
X113461800Y-74168000D02*
X112776000Y-74168000D01*
X118262400Y-74168000D02*
X117500400Y-74168000D01*
X118262400Y-71958200D02*
X118262400Y-74168000D01*
X112776000Y-71958200D02*
X118262400Y-71958200D01*
X112776000Y-69977000D02*
X112776000Y-71958200D01*
X114046000Y-69977000D02*
X112776000Y-69977000D01*
X108915200Y-90322400D02*
X108915200Y-86868000D01*
X108915200Y-90170000D02*
X108915200Y-90322400D01*
X109499400Y-90170000D02*
X108915200Y-90170000D01*
X109474000Y-73812400D02*
X108889800Y-73812400D01*
X122275600Y-90119200D02*
X121691400Y-90119200D01*
X122250200Y-73863200D02*
X121666000Y-73863200D01*
X115138200Y-91135200D02*
G75*
G03*
X115874800Y-91135200I368300J368300D01*
G01*
X118516400Y-92075000D02*
G75*
G03*
X123527820Y-89087960I-3121790J10934895D01*
G01*
X119786400Y-77165199D02*
G75*
G03*
X122224800Y-77343000I1229891J57719D01*
G01*
X108940600Y-77266799D02*
G75*
G03*
X111379000Y-77089000I1208509J235519D01*
G01*
X122250200Y-86791801D02*
G75*
G03*
X119811800Y-86969600I-1208509J-235519D01*
G01*
X111353600Y-87045801D02*
G75*
G03*
X108915200Y-86868000I-1229891J-57719D01*
G01*
X112826800Y-71907400D02*
G75*
G03*
X107596940Y-74754740I2632974J-11062773D01*
G01*
X107569000Y-89077800D02*
G75*
G03*
X112687100Y-92158820I8218067J7860082D01*
G01*
X108071920Y-72191880D02*
G75*
G03*
X108071920Y-72179180I664751J6350D01*
G01*
X121711720Y-72191880D02*
G75*
G03*
X121711720Y-72179180I664751J6350D01*
G01*
X121711720Y-91902280D02*
G75*
G03*
X121711720Y-91889580I664751J6350D01*
G01*
X108198920Y-91902280D02*
G75*
G03*
X108198920Y-91889580I664751J6350D01*
G01*
X114020600Y-69951600D02*
G75*
G03*
X114046000Y-69977000I25400J0D01*
G01*
X112776000Y-71856600D02*
G75*
G03*
X112826800Y-71907400I50800J0D01*
G01*
X123520200Y-74828400D02*
G75*
G03*
X118290340Y-71981060I-7862834J-8215433D01*
G01*
X118290340Y-71981060D02*
G75*
G03*
X118214140Y-71907400I-74544J-871D01*
G01*
X118290340Y-67083940D02*
G75*
G03*
X118262400Y-67056000I-27020J920D01*
G01*
X118287800Y-71297800D02*
G75*
G03*
X118262400Y-71272400I-25400J0D01*
G01*
X118287800Y-70713600D02*
G75*
G03*
X118237000Y-70662800I-50800J0D01*
G01*
X118110000Y-68046600D02*
G75*
G03*
X118160800Y-67995800I0J50800D01*
G01*
X117500400Y-71958200D02*
G75*
G03*
X117551200Y-72009000I50800J0D01*
G01*
X113512599Y-75869799D02*
G75*
G03*
X114376200Y-75869800I431801J84360D01*
G01*
X116636799Y-75844399D02*
G75*
G03*
X117500400Y-75844400I431801J84360D01*
G01*
X111353600Y-91287600D02*
G75*
G03*
X109499400Y-90170000I-15840075J-24183181D01*
G01*
X109474000Y-73812400D02*
G75*
G03*
X111328200Y-72694800I-13985875J25300781D01*
G01*
X121691400Y-90119200D02*
G75*
G03*
X119837200Y-91236800I13985875J-25300781D01*
G01*
X119811800Y-72745600D02*
G75*
G03*
X121666000Y-73863200I15840075J24183181D01*
G01*
X114199924Y-74380115D02*
X116739924Y-74380115D01*
X115469924Y-86180143D02*
X115469924Y-88720143D01*
X115569924Y-73110115D02*
X115569924Y-75650115D01*
X119419929Y-69380125D02*
X111719919Y-69380125D01*
X119419929Y-69380125D02*
X119419929Y-72180120D01*
X111719919Y-69380125D02*
X111719919Y-72280120D01*
X111369932Y-73780117D02*
G75*
G03*
X111458248Y-73738715I4205311J-8855574D01*
G01*
X111719919Y-72280120D02*
G75*
G03*
X119409896Y-72272652I3855048J-10355718D01*
G01*
X125569980Y-82550000D02*
G75*
G03*
X125569980Y-82550000I-9999980J0D01*
G01*
D10*
X118617276Y-56881500D02*
X119126724Y-56881500D01*
X118617276Y-57926500D02*
X119126724Y-57926500D01*
X153938500Y-74421276D02*
X153938500Y-74930724D01*
X152893500Y-74421276D02*
X152893500Y-74930724D01*
X121214000Y-59184000D02*
X120284000Y-59184000D01*
X118054000Y-59184000D02*
X118984000Y-59184000D01*
X118054000Y-59184000D02*
X118054000Y-61344000D01*
X121214000Y-59184000D02*
X121214000Y-60644000D01*
X116588000Y-59797733D02*
X116588000Y-60090267D01*
X115568000Y-59797733D02*
X115568000Y-60090267D01*
X145993733Y-52380000D02*
X146286267Y-52380000D01*
X145993733Y-53400000D02*
X146286267Y-53400000D01*
X153926000Y-70719733D02*
X153926000Y-71012267D01*
X152906000Y-70719733D02*
X152906000Y-71012267D01*
X146960000Y-55233835D02*
X146960000Y-55002165D01*
X147680000Y-55233835D02*
X147680000Y-55002165D01*
D13*
X147697952Y-85728048D02*
X151798020Y-85728048D01*
X151798020Y-85728048D02*
X151798020Y-90227912D01*
X151798020Y-90227912D02*
X137697972Y-90227912D01*
X137697972Y-90227912D02*
X137697972Y-83728052D01*
X137697972Y-83728052D02*
X133697980Y-83728052D01*
X133697980Y-83728052D02*
X133697980Y-65728088D01*
X133697980Y-65728088D02*
X147697952Y-65728088D01*
X147697952Y-65728088D02*
X147697952Y-68728082D01*
X147697952Y-68728082D02*
X150198074Y-68728082D01*
X150198074Y-68728082D02*
X150198074Y-80728058D01*
X150198074Y-80728058D02*
X147697952Y-80728058D01*
X147697952Y-80728058D02*
X147697952Y-85728048D01*
D14*
X134947914Y-82477864D02*
X134947914Y-66978022D01*
X134947914Y-66978022D02*
X146947890Y-66978022D01*
X146947890Y-66978022D02*
X146947890Y-82477864D01*
X146947890Y-82477864D02*
X134947914Y-82477864D01*
D10*
X133186000Y-60762000D02*
X132356000Y-59992000D01*
X133196000Y-60762000D02*
X138861000Y-60802000D01*
X138861000Y-58274470D02*
X138861000Y-57632000D01*
X138861000Y-60802000D02*
X138856000Y-58252000D01*
X133721000Y-57632000D02*
X138861000Y-57632000D01*
X133126000Y-57632000D02*
X133721000Y-57632000D01*
X132326000Y-57632000D02*
X133086000Y-57632000D01*
X132326000Y-59962000D02*
X132326000Y-57632000D01*
X129311000Y-61682000D02*
X129311000Y-56682000D01*
X129311000Y-56682000D02*
X141961000Y-56682000D01*
X141961000Y-56682000D02*
X141961000Y-61682000D01*
X141961000Y-61682000D02*
X136636000Y-61682000D01*
X136636000Y-61682000D02*
X136636000Y-61182000D01*
X136636000Y-61182000D02*
X134636000Y-61182000D01*
X134636000Y-61182000D02*
X134636000Y-61682000D01*
X134636000Y-61682000D02*
X129311000Y-61682000D01*
D15*
X146698752Y-50359712D02*
X147498598Y-50359712D01*
X147498598Y-50359712D02*
X147498598Y-47159566D01*
X147498598Y-47159566D02*
X142498608Y-47159566D01*
X142498608Y-47159566D02*
X142498608Y-50359712D01*
X142498608Y-50359712D02*
X143198632Y-50359712D01*
X146198626Y-46859592D02*
X146198626Y-46259644D01*
X146198626Y-46259644D02*
X143798834Y-46259644D01*
X143798834Y-46259644D02*
X143798834Y-46859592D01*
D16*
X125498571Y-82827714D02*
X125546190Y-82684857D01*
X125593809Y-82637238D01*
X125689047Y-82589619D01*
X125831904Y-82589619D01*
X125927142Y-82637238D01*
X125974761Y-82684857D01*
X126022380Y-82780095D01*
X126022380Y-83161047D01*
X125022380Y-83161047D01*
X125022380Y-82827714D01*
X125070000Y-82732476D01*
X125117619Y-82684857D01*
X125212857Y-82637238D01*
X125308095Y-82637238D01*
X125403333Y-82684857D01*
X125450952Y-82732476D01*
X125498571Y-82827714D01*
X125498571Y-83161047D01*
X125022380Y-82303904D02*
X125022380Y-81732476D01*
X126022380Y-82018190D02*
X125022380Y-82018190D01*
X125022380Y-81494380D02*
X125022380Y-80875333D01*
X125403333Y-81208666D01*
X125403333Y-81065809D01*
X125450952Y-80970571D01*
X125498571Y-80922952D01*
X125593809Y-80875333D01*
X125831904Y-80875333D01*
X125927142Y-80922952D01*
X125974761Y-80970571D01*
X126022380Y-81065809D01*
X126022380Y-81351523D01*
X125974761Y-81446761D01*
X125927142Y-81494380D01*
X114784285Y-71208571D02*
X114927142Y-71256190D01*
X114974761Y-71303809D01*
X115022380Y-71399047D01*
X115022380Y-71541904D01*
X114974761Y-71637142D01*
X114927142Y-71684761D01*
X114831904Y-71732380D01*
X114450952Y-71732380D01*
X114450952Y-70732380D01*
X114784285Y-70732380D01*
X114879523Y-70780000D01*
X114927142Y-70827619D01*
X114974761Y-70922857D01*
X114974761Y-71018095D01*
X114927142Y-71113333D01*
X114879523Y-71160952D01*
X114784285Y-71208571D01*
X114450952Y-71208571D01*
X115308095Y-70732380D02*
X115879523Y-70732380D01*
X115593809Y-71732380D02*
X115593809Y-70732380D01*
X116165238Y-70827619D02*
X116212857Y-70780000D01*
X116308095Y-70732380D01*
X116546190Y-70732380D01*
X116641428Y-70780000D01*
X116689047Y-70827619D01*
X116736666Y-70922857D01*
X116736666Y-71018095D01*
X116689047Y-71160952D01*
X116117619Y-71732380D01*
X116736666Y-71732380D01*
X125498571Y-83335714D02*
X125546190Y-83192857D01*
X125593809Y-83145238D01*
X125689047Y-83097619D01*
X125831904Y-83097619D01*
X125927142Y-83145238D01*
X125974761Y-83192857D01*
X126022380Y-83288095D01*
X126022380Y-83669047D01*
X125022380Y-83669047D01*
X125022380Y-83335714D01*
X125070000Y-83240476D01*
X125117619Y-83192857D01*
X125212857Y-83145238D01*
X125308095Y-83145238D01*
X125403333Y-83192857D01*
X125450952Y-83240476D01*
X125498571Y-83335714D01*
X125498571Y-83669047D01*
X125022380Y-82811904D02*
X125022380Y-82240476D01*
X126022380Y-82526190D02*
X125022380Y-82526190D01*
X126022380Y-81383333D02*
X126022380Y-81954761D01*
X126022380Y-81669047D02*
X125022380Y-81669047D01*
X125165238Y-81764285D01*
X125260476Y-81859523D01*
X125308095Y-81954761D01*
X118705333Y-56426380D02*
X118372000Y-55950190D01*
X118133904Y-56426380D02*
X118133904Y-55426380D01*
X118514857Y-55426380D01*
X118610095Y-55474000D01*
X118657714Y-55521619D01*
X118705333Y-55616857D01*
X118705333Y-55759714D01*
X118657714Y-55854952D01*
X118610095Y-55902571D01*
X118514857Y-55950190D01*
X118133904Y-55950190D01*
X119562476Y-55426380D02*
X119372000Y-55426380D01*
X119276761Y-55474000D01*
X119229142Y-55521619D01*
X119133904Y-55664476D01*
X119086285Y-55854952D01*
X119086285Y-56235904D01*
X119133904Y-56331142D01*
X119181523Y-56378761D01*
X119276761Y-56426380D01*
X119467238Y-56426380D01*
X119562476Y-56378761D01*
X119610095Y-56331142D01*
X119657714Y-56235904D01*
X119657714Y-55997809D01*
X119610095Y-55902571D01*
X119562476Y-55854952D01*
X119467238Y-55807333D01*
X119276761Y-55807333D01*
X119181523Y-55854952D01*
X119133904Y-55902571D01*
X119086285Y-55997809D01*
X155298380Y-74842666D02*
X154822190Y-75176000D01*
X155298380Y-75414095D02*
X154298380Y-75414095D01*
X154298380Y-75033142D01*
X154346000Y-74937904D01*
X154393619Y-74890285D01*
X154488857Y-74842666D01*
X154631714Y-74842666D01*
X154726952Y-74890285D01*
X154774571Y-74937904D01*
X154822190Y-75033142D01*
X154822190Y-75414095D01*
X154631714Y-73985523D02*
X155298380Y-73985523D01*
X154250761Y-74223619D02*
X154965047Y-74461714D01*
X154965047Y-73842666D01*
X120435619Y-62833238D02*
X120388000Y-62928476D01*
X120292761Y-63023714D01*
X120149904Y-63166571D01*
X120102285Y-63261809D01*
X120102285Y-63357047D01*
X120340380Y-63309428D02*
X120292761Y-63404666D01*
X120197523Y-63499904D01*
X120007047Y-63547523D01*
X119673714Y-63547523D01*
X119483238Y-63499904D01*
X119388000Y-63404666D01*
X119340380Y-63309428D01*
X119340380Y-63118952D01*
X119388000Y-63023714D01*
X119483238Y-62928476D01*
X119673714Y-62880857D01*
X120007047Y-62880857D01*
X120197523Y-62928476D01*
X120292761Y-63023714D01*
X120340380Y-63118952D01*
X120340380Y-63309428D01*
X120340380Y-61928476D02*
X120340380Y-62499904D01*
X120340380Y-62214190D02*
X119340380Y-62214190D01*
X119483238Y-62309428D01*
X119578476Y-62404666D01*
X119626095Y-62499904D01*
X117865142Y-60110666D02*
X117912761Y-60158285D01*
X117960380Y-60301142D01*
X117960380Y-60396380D01*
X117912761Y-60539238D01*
X117817523Y-60634476D01*
X117722285Y-60682095D01*
X117531809Y-60729714D01*
X117388952Y-60729714D01*
X117198476Y-60682095D01*
X117103238Y-60634476D01*
X117008000Y-60539238D01*
X116960380Y-60396380D01*
X116960380Y-60301142D01*
X117008000Y-60158285D01*
X117055619Y-60110666D01*
X116960380Y-59253523D02*
X116960380Y-59444000D01*
X117008000Y-59539238D01*
X117055619Y-59586857D01*
X117198476Y-59682095D01*
X117388952Y-59729714D01*
X117769904Y-59729714D01*
X117865142Y-59682095D01*
X117912761Y-59634476D01*
X117960380Y-59539238D01*
X117960380Y-59348761D01*
X117912761Y-59253523D01*
X117865142Y-59205904D01*
X117769904Y-59158285D01*
X117531809Y-59158285D01*
X117436571Y-59205904D01*
X117388952Y-59253523D01*
X117341333Y-59348761D01*
X117341333Y-59539238D01*
X117388952Y-59634476D01*
X117436571Y-59682095D01*
X117531809Y-59729714D01*
X145973333Y-51817142D02*
X145925714Y-51864761D01*
X145782857Y-51912380D01*
X145687619Y-51912380D01*
X145544761Y-51864761D01*
X145449523Y-51769523D01*
X145401904Y-51674285D01*
X145354285Y-51483809D01*
X145354285Y-51340952D01*
X145401904Y-51150476D01*
X145449523Y-51055238D01*
X145544761Y-50960000D01*
X145687619Y-50912380D01*
X145782857Y-50912380D01*
X145925714Y-50960000D01*
X145973333Y-51007619D01*
X146878095Y-50912380D02*
X146401904Y-50912380D01*
X146354285Y-51388571D01*
X146401904Y-51340952D01*
X146497142Y-51293333D01*
X146735238Y-51293333D01*
X146830476Y-51340952D01*
X146878095Y-51388571D01*
X146925714Y-51483809D01*
X146925714Y-51721904D01*
X146878095Y-51817142D01*
X146830476Y-51864761D01*
X146735238Y-51912380D01*
X146497142Y-51912380D01*
X146401904Y-51864761D01*
X146354285Y-51817142D01*
X155203142Y-71032666D02*
X155250761Y-71080285D01*
X155298380Y-71223142D01*
X155298380Y-71318380D01*
X155250761Y-71461238D01*
X155155523Y-71556476D01*
X155060285Y-71604095D01*
X154869809Y-71651714D01*
X154726952Y-71651714D01*
X154536476Y-71604095D01*
X154441238Y-71556476D01*
X154346000Y-71461238D01*
X154298380Y-71318380D01*
X154298380Y-71223142D01*
X154346000Y-71080285D01*
X154393619Y-71032666D01*
X154393619Y-70651714D02*
X154346000Y-70604095D01*
X154298380Y-70508857D01*
X154298380Y-70270761D01*
X154346000Y-70175523D01*
X154393619Y-70127904D01*
X154488857Y-70080285D01*
X154584095Y-70080285D01*
X154726952Y-70127904D01*
X155298380Y-70699333D01*
X155298380Y-70080285D01*
X146517142Y-55284666D02*
X146564761Y-55332285D01*
X146612380Y-55475142D01*
X146612380Y-55570380D01*
X146564761Y-55713238D01*
X146469523Y-55808476D01*
X146374285Y-55856095D01*
X146183809Y-55903714D01*
X146040952Y-55903714D01*
X145850476Y-55856095D01*
X145755238Y-55808476D01*
X145660000Y-55713238D01*
X145612380Y-55570380D01*
X145612380Y-55475142D01*
X145660000Y-55332285D01*
X145707619Y-55284666D01*
X146612380Y-54332285D02*
X146612380Y-54903714D01*
X146612380Y-54618000D02*
X145612380Y-54618000D01*
X145755238Y-54713238D01*
X145850476Y-54808476D01*
X145898095Y-54903714D01*
X132200380Y-78739904D02*
X133009904Y-78739904D01*
X133105142Y-78692285D01*
X133152761Y-78644666D01*
X133200380Y-78549428D01*
X133200380Y-78358952D01*
X133152761Y-78263714D01*
X133105142Y-78216095D01*
X133009904Y-78168476D01*
X132200380Y-78168476D01*
X133200380Y-77168476D02*
X133200380Y-77739904D01*
X133200380Y-77454190D02*
X132200380Y-77454190D01*
X132343238Y-77549428D01*
X132438476Y-77644666D01*
X132486095Y-77739904D01*
X129848380Y-59665333D02*
X130562666Y-59665333D01*
X130705523Y-59712952D01*
X130800761Y-59808190D01*
X130848380Y-59951047D01*
X130848380Y-60046285D01*
X129943619Y-59236761D02*
X129896000Y-59189142D01*
X129848380Y-59093904D01*
X129848380Y-58855809D01*
X129896000Y-58760571D01*
X129943619Y-58712952D01*
X130038857Y-58665333D01*
X130134095Y-58665333D01*
X130276952Y-58712952D01*
X130848380Y-59284380D01*
X130848380Y-58665333D01*
X140552559Y-44580396D02*
X140695416Y-44628015D01*
X140933512Y-44628015D01*
X141028750Y-44580396D01*
X141076369Y-44532777D01*
X141123988Y-44437539D01*
X141123988Y-44342301D01*
X141076369Y-44247063D01*
X141028750Y-44199444D01*
X140933512Y-44151825D01*
X140743035Y-44104206D01*
X140647797Y-44056587D01*
X140600178Y-44008968D01*
X140552559Y-43913730D01*
X140552559Y-43818492D01*
X140600178Y-43723254D01*
X140647797Y-43675635D01*
X140743035Y-43628015D01*
X140981131Y-43628015D01*
X141123988Y-43675635D01*
X141457321Y-43628015D02*
X141695416Y-44628015D01*
X141885893Y-43913730D01*
X142076369Y-44628015D01*
X142314464Y-43628015D01*
X142647797Y-43723254D02*
X142695416Y-43675635D01*
X142790654Y-43628015D01*
X143028750Y-43628015D01*
X143123988Y-43675635D01*
X143171607Y-43723254D01*
X143219226Y-43818492D01*
X143219226Y-43913730D01*
X143171607Y-44056587D01*
X142600178Y-44628015D01*
X143219226Y-44628015D01*
M02*
