G04 #@! TF.GenerationSoftware,KiCad,Pcbnew,(5.1.9-0-10_14)*
G04 #@! TF.CreationDate,2021-03-14T11:16:57+08:00*
G04 #@! TF.ProjectId,mops-out,6d6f7073-2d6f-4757-942e-6b696361645f,rev?*
G04 #@! TF.SameCoordinates,Original*
G04 #@! TF.FileFunction,Soldermask,Top*
G04 #@! TF.FilePolarity,Negative*
%FSLAX46Y46*%
G04 Gerber Fmt 4.6, Leading zero omitted, Abs format (unit mm)*
G04 Created by KiCad (PCBNEW (5.1.9-0-10_14)) date 2021-03-14 11:16:57*
%MOMM*%
%LPD*%
G01*
G04 APERTURE LIST*
%ADD10C,2.601995*%
%ADD11C,15.101995*%
%ADD12O,1.102000X1.102000*%
%ADD13O,0.864000X1.626000*%
%ADD14C,0.100000*%
G04 APERTURE END LIST*
G36*
G01*
X117669996Y-68855218D02*
X113470004Y-68855218D01*
G75*
G02*
X113419004Y-68804218I0J51000D01*
G01*
X113419004Y-65304226D01*
G75*
G02*
X113470004Y-65253226I51000J0D01*
G01*
X117669996Y-65253226D01*
G75*
G02*
X117720996Y-65304226I0J-51000D01*
G01*
X117720996Y-68804218D01*
G75*
G02*
X117669996Y-68855218I-51000J0D01*
G01*
G37*
G36*
G01*
X117669996Y-98830774D02*
X113470004Y-98830774D01*
G75*
G02*
X113419004Y-98779774I0J51000D01*
G01*
X113419004Y-95279782D01*
G75*
G02*
X113470004Y-95228782I51000J0D01*
G01*
X117669996Y-95228782D01*
G75*
G02*
X117720996Y-95279782I0J-51000D01*
G01*
X117720996Y-98779774D01*
G75*
G02*
X117669996Y-98830774I-51000J0D01*
G01*
G37*
D10*
X115570000Y-91279980D03*
X115570000Y-71280020D03*
G36*
G01*
X124523925Y-89099767D02*
X122119767Y-91503925D01*
G75*
G02*
X120916275Y-91503925I-601746J601746D01*
G01*
X120916275Y-91503925D01*
G75*
G02*
X120916275Y-90300433I601746J601746D01*
G01*
X123320433Y-87896275D01*
G75*
G02*
X124523925Y-87896275I601746J-601746D01*
G01*
X124523925Y-87896275D01*
G75*
G02*
X124523925Y-89099767I-601746J-601746D01*
G01*
G37*
G36*
G01*
X110223725Y-74799567D02*
X107819567Y-77203725D01*
G75*
G02*
X106616075Y-77203725I-601746J601746D01*
G01*
X106616075Y-77203725D01*
G75*
G02*
X106616075Y-76000233I601746J601746D01*
G01*
X109020233Y-73596075D01*
G75*
G02*
X110223725Y-73596075I601746J-601746D01*
G01*
X110223725Y-73596075D01*
G75*
G02*
X110223725Y-74799567I-601746J-601746D01*
G01*
G37*
D11*
X115570000Y-82550000D03*
G36*
G01*
X119246000Y-57667000D02*
X119246000Y-57141000D01*
G75*
G02*
X119509000Y-56878000I263000J0D01*
G01*
X120060000Y-56878000D01*
G75*
G02*
X120323000Y-57141000I0J-263000D01*
G01*
X120323000Y-57667000D01*
G75*
G02*
X120060000Y-57930000I-263000J0D01*
G01*
X119509000Y-57930000D01*
G75*
G02*
X119246000Y-57667000I0J263000D01*
G01*
G37*
G36*
G01*
X117421000Y-57667000D02*
X117421000Y-57141000D01*
G75*
G02*
X117684000Y-56878000I263000J0D01*
G01*
X118235000Y-56878000D01*
G75*
G02*
X118498000Y-57141000I0J-263000D01*
G01*
X118498000Y-57667000D01*
G75*
G02*
X118235000Y-57930000I-263000J0D01*
G01*
X117684000Y-57930000D01*
G75*
G02*
X117421000Y-57667000I0J263000D01*
G01*
G37*
G36*
G01*
X153153000Y-75050000D02*
X153679000Y-75050000D01*
G75*
G02*
X153942000Y-75313000I0J-263000D01*
G01*
X153942000Y-75864000D01*
G75*
G02*
X153679000Y-76127000I-263000J0D01*
G01*
X153153000Y-76127000D01*
G75*
G02*
X152890000Y-75864000I0J263000D01*
G01*
X152890000Y-75313000D01*
G75*
G02*
X153153000Y-75050000I263000J0D01*
G01*
G37*
G36*
G01*
X153153000Y-73225000D02*
X153679000Y-73225000D01*
G75*
G02*
X153942000Y-73488000I0J-263000D01*
G01*
X153942000Y-74039000D01*
G75*
G02*
X153679000Y-74302000I-263000J0D01*
G01*
X153153000Y-74302000D01*
G75*
G02*
X152890000Y-74039000I0J263000D01*
G01*
X152890000Y-73488000D01*
G75*
G02*
X153153000Y-73225000I263000J0D01*
G01*
G37*
G36*
G01*
X120034000Y-59445000D02*
X119234000Y-59445000D01*
G75*
G02*
X119183000Y-59394000I0J51000D01*
G01*
X119183000Y-58494000D01*
G75*
G02*
X119234000Y-58443000I51000J0D01*
G01*
X120034000Y-58443000D01*
G75*
G02*
X120085000Y-58494000I0J-51000D01*
G01*
X120085000Y-59394000D01*
G75*
G02*
X120034000Y-59445000I-51000J0D01*
G01*
G37*
G36*
G01*
X120984000Y-61445000D02*
X120184000Y-61445000D01*
G75*
G02*
X120133000Y-61394000I0J51000D01*
G01*
X120133000Y-60494000D01*
G75*
G02*
X120184000Y-60443000I51000J0D01*
G01*
X120984000Y-60443000D01*
G75*
G02*
X121035000Y-60494000I0J-51000D01*
G01*
X121035000Y-61394000D01*
G75*
G02*
X120984000Y-61445000I-51000J0D01*
G01*
G37*
G36*
G01*
X119084000Y-61445000D02*
X118284000Y-61445000D01*
G75*
G02*
X118233000Y-61394000I0J51000D01*
G01*
X118233000Y-60494000D01*
G75*
G02*
X118284000Y-60443000I51000J0D01*
G01*
X119084000Y-60443000D01*
G75*
G02*
X119135000Y-60494000I0J-51000D01*
G01*
X119135000Y-61394000D01*
G75*
G02*
X119084000Y-61445000I-51000J0D01*
G01*
G37*
G36*
G01*
X115815000Y-60218000D02*
X116341000Y-60218000D01*
G75*
G02*
X116604000Y-60481000I0J-263000D01*
G01*
X116604000Y-61132000D01*
G75*
G02*
X116341000Y-61395000I-263000J0D01*
G01*
X115815000Y-61395000D01*
G75*
G02*
X115552000Y-61132000I0J263000D01*
G01*
X115552000Y-60481000D01*
G75*
G02*
X115815000Y-60218000I263000J0D01*
G01*
G37*
G36*
G01*
X115815000Y-58493000D02*
X116341000Y-58493000D01*
G75*
G02*
X116604000Y-58756000I0J-263000D01*
G01*
X116604000Y-59407000D01*
G75*
G02*
X116341000Y-59670000I-263000J0D01*
G01*
X115815000Y-59670000D01*
G75*
G02*
X115552000Y-59407000I0J263000D01*
G01*
X115552000Y-58756000D01*
G75*
G02*
X115815000Y-58493000I263000J0D01*
G01*
G37*
G36*
G01*
X146414000Y-53153000D02*
X146414000Y-52627000D01*
G75*
G02*
X146677000Y-52364000I263000J0D01*
G01*
X147328000Y-52364000D01*
G75*
G02*
X147591000Y-52627000I0J-263000D01*
G01*
X147591000Y-53153000D01*
G75*
G02*
X147328000Y-53416000I-263000J0D01*
G01*
X146677000Y-53416000D01*
G75*
G02*
X146414000Y-53153000I0J263000D01*
G01*
G37*
G36*
G01*
X144689000Y-53153000D02*
X144689000Y-52627000D01*
G75*
G02*
X144952000Y-52364000I263000J0D01*
G01*
X145603000Y-52364000D01*
G75*
G02*
X145866000Y-52627000I0J-263000D01*
G01*
X145866000Y-53153000D01*
G75*
G02*
X145603000Y-53416000I-263000J0D01*
G01*
X144952000Y-53416000D01*
G75*
G02*
X144689000Y-53153000I0J263000D01*
G01*
G37*
G36*
G01*
X153153000Y-71140000D02*
X153679000Y-71140000D01*
G75*
G02*
X153942000Y-71403000I0J-263000D01*
G01*
X153942000Y-72054000D01*
G75*
G02*
X153679000Y-72317000I-263000J0D01*
G01*
X153153000Y-72317000D01*
G75*
G02*
X152890000Y-72054000I0J263000D01*
G01*
X152890000Y-71403000D01*
G75*
G02*
X153153000Y-71140000I263000J0D01*
G01*
G37*
G36*
G01*
X153153000Y-69415000D02*
X153679000Y-69415000D01*
G75*
G02*
X153942000Y-69678000I0J-263000D01*
G01*
X153942000Y-70329000D01*
G75*
G02*
X153679000Y-70592000I-263000J0D01*
G01*
X153153000Y-70592000D01*
G75*
G02*
X152890000Y-70329000I0J263000D01*
G01*
X152890000Y-69678000D01*
G75*
G02*
X153153000Y-69415000I263000J0D01*
G01*
G37*
G36*
G01*
X147500500Y-54969000D02*
X147139500Y-54969000D01*
G75*
G02*
X146959000Y-54788500I0J180500D01*
G01*
X146959000Y-54312500D01*
G75*
G02*
X147139500Y-54132000I180500J0D01*
G01*
X147500500Y-54132000D01*
G75*
G02*
X147681000Y-54312500I0J-180500D01*
G01*
X147681000Y-54788500D01*
G75*
G02*
X147500500Y-54969000I-180500J0D01*
G01*
G37*
G36*
G01*
X147500500Y-56104000D02*
X147139500Y-56104000D01*
G75*
G02*
X146959000Y-55923500I0J180500D01*
G01*
X146959000Y-55447500D01*
G75*
G02*
X147139500Y-55267000I180500J0D01*
G01*
X147500500Y-55267000D01*
G75*
G02*
X147681000Y-55447500I0J-180500D01*
G01*
X147681000Y-55923500D01*
G75*
G02*
X147500500Y-56104000I-180500J0D01*
G01*
G37*
G36*
G01*
X147399067Y-81978119D02*
X147399067Y-85477985D01*
G75*
G02*
X147348067Y-85528985I-51000J0D01*
G01*
X138948033Y-85528985D01*
G75*
G02*
X138897033Y-85477985I0J51000D01*
G01*
X138897033Y-81978119D01*
G75*
G02*
X138948033Y-81927119I51000J0D01*
G01*
X147348067Y-81927119D01*
G75*
G02*
X147399067Y-81978119I0J-51000D01*
G01*
G37*
G36*
G01*
X138599110Y-85077808D02*
X138599110Y-85877908D01*
G75*
G02*
X138548110Y-85928908I-51000J0D01*
G01*
X136548114Y-85928908D01*
G75*
G02*
X136497114Y-85877908I0J51000D01*
G01*
X136497114Y-85077808D01*
G75*
G02*
X136548114Y-85026808I51000J0D01*
G01*
X138548110Y-85026808D01*
G75*
G02*
X138599110Y-85077808I0J-51000D01*
G01*
G37*
G36*
G01*
X151748944Y-79078074D02*
X151748944Y-79878174D01*
G75*
G02*
X151697944Y-79929174I-51000J0D01*
G01*
X147697952Y-79929174D01*
G75*
G02*
X147646952Y-79878174I0J51000D01*
G01*
X147646952Y-79078074D01*
G75*
G02*
X147697952Y-79027074I51000J0D01*
G01*
X151697944Y-79027074D01*
G75*
G02*
X151748944Y-79078074I0J-51000D01*
G01*
G37*
G36*
G01*
X151748944Y-77177900D02*
X151748944Y-77978000D01*
G75*
G02*
X151697944Y-78029000I-51000J0D01*
G01*
X147697952Y-78029000D01*
G75*
G02*
X147646952Y-77978000I0J51000D01*
G01*
X147646952Y-77177900D01*
G75*
G02*
X147697952Y-77126900I51000J0D01*
G01*
X151697944Y-77126900D01*
G75*
G02*
X151748944Y-77177900I0J-51000D01*
G01*
G37*
G36*
G01*
X151748944Y-75277980D02*
X151748944Y-76078080D01*
G75*
G02*
X151697944Y-76129080I-51000J0D01*
G01*
X147697952Y-76129080D01*
G75*
G02*
X147646952Y-76078080I0J51000D01*
G01*
X147646952Y-75277980D01*
G75*
G02*
X147697952Y-75226980I51000J0D01*
G01*
X151697944Y-75226980D01*
G75*
G02*
X151748944Y-75277980I0J-51000D01*
G01*
G37*
G36*
G01*
X151748944Y-73378060D02*
X151748944Y-74178160D01*
G75*
G02*
X151697944Y-74229160I-51000J0D01*
G01*
X147697952Y-74229160D01*
G75*
G02*
X147646952Y-74178160I0J51000D01*
G01*
X147646952Y-73378060D01*
G75*
G02*
X147697952Y-73327060I51000J0D01*
G01*
X151697944Y-73327060D01*
G75*
G02*
X151748944Y-73378060I0J-51000D01*
G01*
G37*
G36*
G01*
X151748944Y-71477886D02*
X151748944Y-72277986D01*
G75*
G02*
X151697944Y-72328986I-51000J0D01*
G01*
X147697952Y-72328986D01*
G75*
G02*
X147646952Y-72277986I0J51000D01*
G01*
X147646952Y-71477886D01*
G75*
G02*
X147697952Y-71426886I51000J0D01*
G01*
X151697944Y-71426886D01*
G75*
G02*
X151748944Y-71477886I0J-51000D01*
G01*
G37*
G36*
G01*
X151748944Y-69577966D02*
X151748944Y-70378066D01*
G75*
G02*
X151697944Y-70429066I-51000J0D01*
G01*
X147697952Y-70429066D01*
G75*
G02*
X147646952Y-70378066I0J51000D01*
G01*
X147646952Y-69577966D01*
G75*
G02*
X147697952Y-69526966I51000J0D01*
G01*
X151697944Y-69526966D01*
G75*
G02*
X151748944Y-69577966I0J-51000D01*
G01*
G37*
G36*
G01*
X134748978Y-66637916D02*
X134748978Y-67438016D01*
G75*
G02*
X134697978Y-67489016I-51000J0D01*
G01*
X132697982Y-67489016D01*
G75*
G02*
X132646982Y-67438016I0J51000D01*
G01*
X132646982Y-66637916D01*
G75*
G02*
X132697982Y-66586916I51000J0D01*
G01*
X134697978Y-66586916D01*
G75*
G02*
X134748978Y-66637916I0J-51000D01*
G01*
G37*
G36*
G01*
X134748978Y-68347844D02*
X134748978Y-69147944D01*
G75*
G02*
X134697978Y-69198944I-51000J0D01*
G01*
X132697982Y-69198944D01*
G75*
G02*
X132646982Y-69147944I0J51000D01*
G01*
X132646982Y-68347844D01*
G75*
G02*
X132697982Y-68296844I51000J0D01*
G01*
X134697978Y-68296844D01*
G75*
G02*
X134748978Y-68347844I0J-51000D01*
G01*
G37*
G36*
G01*
X134748978Y-70058026D02*
X134748978Y-70858126D01*
G75*
G02*
X134697978Y-70909126I-51000J0D01*
G01*
X132697982Y-70909126D01*
G75*
G02*
X132646982Y-70858126I0J51000D01*
G01*
X132646982Y-70058026D01*
G75*
G02*
X132697982Y-70007026I51000J0D01*
G01*
X134697978Y-70007026D01*
G75*
G02*
X134748978Y-70058026I0J-51000D01*
G01*
G37*
G36*
G01*
X134748978Y-71767954D02*
X134748978Y-72568054D01*
G75*
G02*
X134697978Y-72619054I-51000J0D01*
G01*
X132697982Y-72619054D01*
G75*
G02*
X132646982Y-72568054I0J51000D01*
G01*
X132646982Y-71767954D01*
G75*
G02*
X132697982Y-71716954I51000J0D01*
G01*
X134697978Y-71716954D01*
G75*
G02*
X134748978Y-71767954I0J-51000D01*
G01*
G37*
G36*
G01*
X134748978Y-73477882D02*
X134748978Y-74277982D01*
G75*
G02*
X134697978Y-74328982I-51000J0D01*
G01*
X132697982Y-74328982D01*
G75*
G02*
X132646982Y-74277982I0J51000D01*
G01*
X132646982Y-73477882D01*
G75*
G02*
X132697982Y-73426882I51000J0D01*
G01*
X134697978Y-73426882D01*
G75*
G02*
X134748978Y-73477882I0J-51000D01*
G01*
G37*
G36*
G01*
X134748978Y-75188064D02*
X134748978Y-75988164D01*
G75*
G02*
X134697978Y-76039164I-51000J0D01*
G01*
X132697982Y-76039164D01*
G75*
G02*
X132646982Y-75988164I0J51000D01*
G01*
X132646982Y-75188064D01*
G75*
G02*
X132697982Y-75137064I51000J0D01*
G01*
X134697978Y-75137064D01*
G75*
G02*
X134748978Y-75188064I0J-51000D01*
G01*
G37*
G36*
G01*
X134748978Y-76897992D02*
X134748978Y-77698092D01*
G75*
G02*
X134697978Y-77749092I-51000J0D01*
G01*
X132697982Y-77749092D01*
G75*
G02*
X132646982Y-77698092I0J51000D01*
G01*
X132646982Y-76897992D01*
G75*
G02*
X132697982Y-76846992I51000J0D01*
G01*
X134697978Y-76846992D01*
G75*
G02*
X134748978Y-76897992I0J-51000D01*
G01*
G37*
G36*
G01*
X134748978Y-78607920D02*
X134748978Y-79408020D01*
G75*
G02*
X134697978Y-79459020I-51000J0D01*
G01*
X132697982Y-79459020D01*
G75*
G02*
X132646982Y-79408020I0J51000D01*
G01*
X132646982Y-78607920D01*
G75*
G02*
X132697982Y-78556920I51000J0D01*
G01*
X134697978Y-78556920D01*
G75*
G02*
X134748978Y-78607920I0J-51000D01*
G01*
G37*
G36*
G01*
X134748978Y-80317848D02*
X134748978Y-81117948D01*
G75*
G02*
X134697978Y-81168948I-51000J0D01*
G01*
X132697982Y-81168948D01*
G75*
G02*
X132646982Y-81117948I0J51000D01*
G01*
X132646982Y-80317848D01*
G75*
G02*
X132697982Y-80266848I51000J0D01*
G01*
X134697978Y-80266848D01*
G75*
G02*
X134748978Y-80317848I0J-51000D01*
G01*
G37*
G36*
G01*
X134748978Y-82028030D02*
X134748978Y-82828130D01*
G75*
G02*
X134697978Y-82879130I-51000J0D01*
G01*
X132697982Y-82879130D01*
G75*
G02*
X132646982Y-82828130I0J51000D01*
G01*
X132646982Y-82028030D01*
G75*
G02*
X132697982Y-81977030I51000J0D01*
G01*
X134697978Y-81977030D01*
G75*
G02*
X134748978Y-82028030I0J-51000D01*
G01*
G37*
D12*
X138176000Y-59817000D03*
X138176000Y-58547000D03*
X136906000Y-59817000D03*
X136906000Y-58547000D03*
X135636000Y-59817000D03*
X135636000Y-58547000D03*
X134366000Y-59817000D03*
X134366000Y-58547000D03*
X133096000Y-58547000D03*
G36*
G01*
X133596000Y-60368000D02*
X132596000Y-60368000D01*
G75*
G02*
X132545000Y-60317000I0J51000D01*
G01*
X132545000Y-59317000D01*
G75*
G02*
X132596000Y-59266000I51000J0D01*
G01*
X133596000Y-59266000D01*
G75*
G02*
X133647000Y-59317000I0J-51000D01*
G01*
X133647000Y-60317000D01*
G75*
G02*
X133596000Y-60368000I-51000J0D01*
G01*
G37*
D13*
X142800106Y-48600000D03*
X147199894Y-48600000D03*
G36*
G01*
X142446272Y-47058109D02*
X143746268Y-47058109D01*
G75*
G02*
X143797268Y-47109109I0J-51000D01*
G01*
X143797268Y-48009107D01*
G75*
G02*
X143746268Y-48060107I-51000J0D01*
G01*
X142446272Y-48060107D01*
G75*
G02*
X142395272Y-48009107I0J51000D01*
G01*
X142395272Y-47109109D01*
G75*
G02*
X142446272Y-47058109I51000J0D01*
G01*
G37*
G36*
G01*
X146253732Y-47058363D02*
X147553728Y-47058363D01*
G75*
G02*
X147604728Y-47109363I0J-51000D01*
G01*
X147604728Y-48009361D01*
G75*
G02*
X147553728Y-48060361I-51000J0D01*
G01*
X146253732Y-48060361D01*
G75*
G02*
X146202732Y-48009361I0J51000D01*
G01*
X146202732Y-47109363D01*
G75*
G02*
X146253732Y-47058363I51000J0D01*
G01*
G37*
G36*
G01*
X144210361Y-48740640D02*
X144210361Y-50540636D01*
G75*
G02*
X144159361Y-50591636I-51000J0D01*
G01*
X143409351Y-50591636D01*
G75*
G02*
X143358351Y-50540636I0J51000D01*
G01*
X143358351Y-48740640D01*
G75*
G02*
X143409351Y-48689640I51000J0D01*
G01*
X144159361Y-48689640D01*
G75*
G02*
X144210361Y-48740640I0J-51000D01*
G01*
G37*
G36*
G01*
X145336242Y-48740639D02*
X145336242Y-50540637D01*
G75*
G02*
X145285243Y-50591636I-50999J0D01*
G01*
X144685293Y-50591636D01*
G75*
G02*
X144634294Y-50540637I0J50999D01*
G01*
X144634294Y-48740639D01*
G75*
G02*
X144685293Y-48689640I50999J0D01*
G01*
X145285243Y-48689640D01*
G75*
G02*
X145336242Y-48740639I0J-50999D01*
G01*
G37*
G36*
G01*
X146612185Y-48740640D02*
X146612185Y-50540636D01*
G75*
G02*
X146561185Y-50591636I-51000J0D01*
G01*
X145811175Y-50591636D01*
G75*
G02*
X145760175Y-50540636I0J51000D01*
G01*
X145760175Y-48740640D01*
G75*
G02*
X145811175Y-48689640I51000J0D01*
G01*
X146561185Y-48689640D01*
G75*
G02*
X146612185Y-48740640I0J-51000D01*
G01*
G37*
D14*
G36*
X116424059Y-90040955D02*
G01*
X116424449Y-90042917D01*
X116423136Y-90044188D01*
X116405752Y-90049461D01*
X116384488Y-90060826D01*
X116365851Y-90076121D01*
X116350556Y-90094758D01*
X116339191Y-90116022D01*
X116332191Y-90139097D01*
X116329828Y-90163088D01*
X116332191Y-90187079D01*
X116339191Y-90210154D01*
X116350556Y-90231418D01*
X116365851Y-90250055D01*
X116379889Y-90261575D01*
X116380593Y-90263447D01*
X116379325Y-90264993D01*
X116377509Y-90264784D01*
X116182339Y-90134376D01*
X116018437Y-90066485D01*
X116017219Y-90064898D01*
X116017984Y-90063050D01*
X116019202Y-90062637D01*
X116309928Y-90062637D01*
X116422165Y-90040312D01*
X116424059Y-90040955D01*
G37*
G36*
X114830072Y-90062637D02*
G01*
X115120798Y-90062637D01*
X115122530Y-90063637D01*
X115122530Y-90065637D01*
X115121563Y-90066485D01*
X114957661Y-90134376D01*
X114762491Y-90264784D01*
X114760495Y-90264915D01*
X114759384Y-90263252D01*
X114760111Y-90261575D01*
X114774148Y-90250056D01*
X114789443Y-90231419D01*
X114800809Y-90210155D01*
X114807809Y-90187080D01*
X114810172Y-90163088D01*
X114807808Y-90139097D01*
X114800811Y-90116024D01*
X114789445Y-90094759D01*
X114774150Y-90076122D01*
X114755513Y-90060827D01*
X114734249Y-90049461D01*
X114716865Y-90044188D01*
X114715498Y-90042728D01*
X114716079Y-90040814D01*
X114717836Y-90040312D01*
X114830072Y-90062637D01*
G37*
G36*
X133648990Y-59494882D02*
G01*
X133651372Y-59519069D01*
X133658372Y-59542144D01*
X133669737Y-59563408D01*
X133685032Y-59582045D01*
X133703669Y-59597340D01*
X133724933Y-59608705D01*
X133748008Y-59615705D01*
X133771999Y-59618068D01*
X133795990Y-59615705D01*
X133819065Y-59608705D01*
X133840329Y-59597340D01*
X133858966Y-59582045D01*
X133874324Y-59563330D01*
X133877216Y-59559002D01*
X133879010Y-59558117D01*
X133880673Y-59559228D01*
X133880727Y-59560878D01*
X133840650Y-59657635D01*
X133819653Y-59763192D01*
X133819653Y-59870808D01*
X133840650Y-59976365D01*
X133880727Y-60073122D01*
X133880466Y-60075105D01*
X133878618Y-60075870D01*
X133877216Y-60074998D01*
X133874324Y-60070670D01*
X133858965Y-60051955D01*
X133840328Y-60036660D01*
X133819065Y-60025295D01*
X133795990Y-60018295D01*
X133771998Y-60015932D01*
X133748007Y-60018295D01*
X133724932Y-60025295D01*
X133703669Y-60036660D01*
X133685032Y-60051956D01*
X133669737Y-60070593D01*
X133658372Y-60091856D01*
X133651372Y-60114931D01*
X133648990Y-60139118D01*
X133647825Y-60140744D01*
X133645835Y-60140548D01*
X133645000Y-60138922D01*
X133645000Y-59495078D01*
X133646000Y-59493346D01*
X133648000Y-59493346D01*
X133648990Y-59494882D01*
G37*
G36*
X136385287Y-59644256D02*
G01*
X136385437Y-59646077D01*
X136380650Y-59657635D01*
X136359653Y-59763192D01*
X136359653Y-59870808D01*
X136380650Y-59976365D01*
X136385437Y-59987923D01*
X136385176Y-59989906D01*
X136383328Y-59990671D01*
X136381825Y-59989631D01*
X136373262Y-59973609D01*
X136357967Y-59954972D01*
X136339330Y-59939677D01*
X136318066Y-59928312D01*
X136294991Y-59921312D01*
X136271000Y-59918949D01*
X136247009Y-59921312D01*
X136223934Y-59928312D01*
X136202670Y-59939677D01*
X136184033Y-59954972D01*
X136168738Y-59973609D01*
X136160175Y-59989631D01*
X136158476Y-59990687D01*
X136156713Y-59989744D01*
X136156563Y-59987923D01*
X136161350Y-59976365D01*
X136182347Y-59870808D01*
X136182347Y-59763192D01*
X136161350Y-59657635D01*
X136156563Y-59646077D01*
X136156824Y-59644094D01*
X136158672Y-59643329D01*
X136160175Y-59644369D01*
X136168738Y-59660391D01*
X136184033Y-59679028D01*
X136202670Y-59694323D01*
X136223934Y-59705688D01*
X136247009Y-59712688D01*
X136271000Y-59715051D01*
X136294991Y-59712688D01*
X136318066Y-59705688D01*
X136339330Y-59694323D01*
X136357967Y-59679028D01*
X136373262Y-59660391D01*
X136381825Y-59644369D01*
X136383524Y-59643313D01*
X136385287Y-59644256D01*
G37*
G36*
X135115287Y-59644256D02*
G01*
X135115437Y-59646077D01*
X135110650Y-59657635D01*
X135089653Y-59763192D01*
X135089653Y-59870808D01*
X135110650Y-59976365D01*
X135115437Y-59987923D01*
X135115176Y-59989906D01*
X135113328Y-59990671D01*
X135111825Y-59989631D01*
X135103262Y-59973609D01*
X135087967Y-59954972D01*
X135069330Y-59939677D01*
X135048066Y-59928312D01*
X135024991Y-59921312D01*
X135001000Y-59918949D01*
X134977009Y-59921312D01*
X134953934Y-59928312D01*
X134932670Y-59939677D01*
X134914033Y-59954972D01*
X134898738Y-59973609D01*
X134890175Y-59989631D01*
X134888476Y-59990687D01*
X134886713Y-59989744D01*
X134886563Y-59987923D01*
X134891350Y-59976365D01*
X134912347Y-59870808D01*
X134912347Y-59763192D01*
X134891350Y-59657635D01*
X134886563Y-59646077D01*
X134886824Y-59644094D01*
X134888672Y-59643329D01*
X134890175Y-59644369D01*
X134898738Y-59660391D01*
X134914033Y-59679028D01*
X134932670Y-59694323D01*
X134953934Y-59705688D01*
X134977009Y-59712688D01*
X135001000Y-59715051D01*
X135024991Y-59712688D01*
X135048066Y-59705688D01*
X135069330Y-59694323D01*
X135087967Y-59679028D01*
X135103262Y-59660391D01*
X135111825Y-59644369D01*
X135113524Y-59643313D01*
X135115287Y-59644256D01*
G37*
G36*
X137655287Y-59644256D02*
G01*
X137655437Y-59646077D01*
X137650650Y-59657635D01*
X137629653Y-59763192D01*
X137629653Y-59870808D01*
X137650650Y-59976365D01*
X137655437Y-59987923D01*
X137655176Y-59989906D01*
X137653328Y-59990671D01*
X137651825Y-59989631D01*
X137643262Y-59973609D01*
X137627967Y-59954972D01*
X137609330Y-59939677D01*
X137588066Y-59928312D01*
X137564991Y-59921312D01*
X137541000Y-59918949D01*
X137517009Y-59921312D01*
X137493934Y-59928312D01*
X137472670Y-59939677D01*
X137454033Y-59954972D01*
X137438738Y-59973609D01*
X137430175Y-59989631D01*
X137428476Y-59990687D01*
X137426713Y-59989744D01*
X137426563Y-59987923D01*
X137431350Y-59976365D01*
X137452347Y-59870808D01*
X137452347Y-59763192D01*
X137431350Y-59657635D01*
X137426563Y-59646077D01*
X137426824Y-59644094D01*
X137428672Y-59643329D01*
X137430175Y-59644369D01*
X137438738Y-59660391D01*
X137454033Y-59679028D01*
X137472670Y-59694323D01*
X137493934Y-59705688D01*
X137517009Y-59712688D01*
X137541000Y-59715051D01*
X137564991Y-59712688D01*
X137588066Y-59705688D01*
X137609330Y-59694323D01*
X137627967Y-59679028D01*
X137643262Y-59660391D01*
X137651825Y-59644369D01*
X137653524Y-59643313D01*
X137655287Y-59644256D01*
G37*
G36*
X134538906Y-59067824D02*
G01*
X134539671Y-59069672D01*
X134538631Y-59071175D01*
X134522609Y-59079738D01*
X134503972Y-59095033D01*
X134488677Y-59113670D01*
X134477312Y-59134934D01*
X134470312Y-59158009D01*
X134467949Y-59182000D01*
X134470312Y-59205991D01*
X134477312Y-59229066D01*
X134488677Y-59250330D01*
X134503972Y-59268967D01*
X134522609Y-59284262D01*
X134538631Y-59292825D01*
X134539687Y-59294524D01*
X134538744Y-59296287D01*
X134536923Y-59296437D01*
X134525365Y-59291650D01*
X134419808Y-59270653D01*
X134312192Y-59270653D01*
X134206635Y-59291650D01*
X134195077Y-59296437D01*
X134193094Y-59296176D01*
X134192329Y-59294328D01*
X134193369Y-59292825D01*
X134209391Y-59284262D01*
X134228028Y-59268967D01*
X134243323Y-59250330D01*
X134254688Y-59229066D01*
X134261688Y-59205991D01*
X134264051Y-59182000D01*
X134261688Y-59158009D01*
X134254688Y-59134934D01*
X134243323Y-59113670D01*
X134228028Y-59095033D01*
X134209391Y-59079738D01*
X134193369Y-59071175D01*
X134192313Y-59069476D01*
X134193256Y-59067713D01*
X134195077Y-59067563D01*
X134206635Y-59072350D01*
X134312192Y-59093347D01*
X134419808Y-59093347D01*
X134525365Y-59072350D01*
X134536923Y-59067563D01*
X134538906Y-59067824D01*
G37*
G36*
X137078906Y-59067824D02*
G01*
X137079671Y-59069672D01*
X137078631Y-59071175D01*
X137062609Y-59079738D01*
X137043972Y-59095033D01*
X137028677Y-59113670D01*
X137017312Y-59134934D01*
X137010312Y-59158009D01*
X137007949Y-59182000D01*
X137010312Y-59205991D01*
X137017312Y-59229066D01*
X137028677Y-59250330D01*
X137043972Y-59268967D01*
X137062609Y-59284262D01*
X137078631Y-59292825D01*
X137079687Y-59294524D01*
X137078744Y-59296287D01*
X137076923Y-59296437D01*
X137065365Y-59291650D01*
X136959808Y-59270653D01*
X136852192Y-59270653D01*
X136746635Y-59291650D01*
X136735077Y-59296437D01*
X136733094Y-59296176D01*
X136732329Y-59294328D01*
X136733369Y-59292825D01*
X136749391Y-59284262D01*
X136768028Y-59268967D01*
X136783323Y-59250330D01*
X136794688Y-59229066D01*
X136801688Y-59205991D01*
X136804051Y-59182000D01*
X136801688Y-59158009D01*
X136794688Y-59134934D01*
X136783323Y-59113670D01*
X136768028Y-59095033D01*
X136749391Y-59079738D01*
X136733369Y-59071175D01*
X136732313Y-59069476D01*
X136733256Y-59067713D01*
X136735077Y-59067563D01*
X136746635Y-59072350D01*
X136852192Y-59093347D01*
X136959808Y-59093347D01*
X137065365Y-59072350D01*
X137076923Y-59067563D01*
X137078906Y-59067824D01*
G37*
G36*
X138348906Y-59067824D02*
G01*
X138349671Y-59069672D01*
X138348631Y-59071175D01*
X138332609Y-59079738D01*
X138313972Y-59095033D01*
X138298677Y-59113670D01*
X138287312Y-59134934D01*
X138280312Y-59158009D01*
X138277949Y-59182000D01*
X138280312Y-59205991D01*
X138287312Y-59229066D01*
X138298677Y-59250330D01*
X138313972Y-59268967D01*
X138332609Y-59284262D01*
X138348631Y-59292825D01*
X138349687Y-59294524D01*
X138348744Y-59296287D01*
X138346923Y-59296437D01*
X138335365Y-59291650D01*
X138229808Y-59270653D01*
X138122192Y-59270653D01*
X138016635Y-59291650D01*
X138005077Y-59296437D01*
X138003094Y-59296176D01*
X138002329Y-59294328D01*
X138003369Y-59292825D01*
X138019391Y-59284262D01*
X138038028Y-59268967D01*
X138053323Y-59250330D01*
X138064688Y-59229066D01*
X138071688Y-59205991D01*
X138074051Y-59182000D01*
X138071688Y-59158009D01*
X138064688Y-59134934D01*
X138053323Y-59113670D01*
X138038028Y-59095033D01*
X138019391Y-59079738D01*
X138003369Y-59071175D01*
X138002313Y-59069476D01*
X138003256Y-59067713D01*
X138005077Y-59067563D01*
X138016635Y-59072350D01*
X138122192Y-59093347D01*
X138229808Y-59093347D01*
X138335365Y-59072350D01*
X138346923Y-59067563D01*
X138348906Y-59067824D01*
G37*
G36*
X135808906Y-59067824D02*
G01*
X135809671Y-59069672D01*
X135808631Y-59071175D01*
X135792609Y-59079738D01*
X135773972Y-59095033D01*
X135758677Y-59113670D01*
X135747312Y-59134934D01*
X135740312Y-59158009D01*
X135737949Y-59182000D01*
X135740312Y-59205991D01*
X135747312Y-59229066D01*
X135758677Y-59250330D01*
X135773972Y-59268967D01*
X135792609Y-59284262D01*
X135808631Y-59292825D01*
X135809687Y-59294524D01*
X135808744Y-59296287D01*
X135806923Y-59296437D01*
X135795365Y-59291650D01*
X135689808Y-59270653D01*
X135582192Y-59270653D01*
X135476635Y-59291650D01*
X135465077Y-59296437D01*
X135463094Y-59296176D01*
X135462329Y-59294328D01*
X135463369Y-59292825D01*
X135479391Y-59284262D01*
X135498028Y-59268967D01*
X135513323Y-59250330D01*
X135524688Y-59229066D01*
X135531688Y-59205991D01*
X135534051Y-59182000D01*
X135531688Y-59158009D01*
X135524688Y-59134934D01*
X135513323Y-59113670D01*
X135498028Y-59095033D01*
X135479391Y-59079738D01*
X135463369Y-59071175D01*
X135462313Y-59069476D01*
X135463256Y-59067713D01*
X135465077Y-59067563D01*
X135476635Y-59072350D01*
X135582192Y-59093347D01*
X135689808Y-59093347D01*
X135795365Y-59072350D01*
X135806923Y-59067563D01*
X135808906Y-59067824D01*
G37*
G36*
X133354105Y-59032534D02*
G01*
X133354870Y-59034382D01*
X133353998Y-59035784D01*
X133349670Y-59038676D01*
X133330955Y-59054035D01*
X133315660Y-59072672D01*
X133304295Y-59093935D01*
X133297295Y-59117010D01*
X133294932Y-59141001D01*
X133297295Y-59164993D01*
X133304295Y-59188068D01*
X133315660Y-59209331D01*
X133330956Y-59227968D01*
X133349593Y-59243263D01*
X133370856Y-59254628D01*
X133393931Y-59261628D01*
X133418118Y-59264010D01*
X133419744Y-59265175D01*
X133419548Y-59267165D01*
X133417922Y-59268000D01*
X132774078Y-59268000D01*
X132772346Y-59267000D01*
X132772346Y-59265000D01*
X132773882Y-59264010D01*
X132798069Y-59261628D01*
X132821144Y-59254628D01*
X132842408Y-59243263D01*
X132861045Y-59227968D01*
X132876340Y-59209331D01*
X132887705Y-59188067D01*
X132894705Y-59164992D01*
X132897068Y-59141001D01*
X132894705Y-59117010D01*
X132887705Y-59093935D01*
X132876340Y-59072671D01*
X132861045Y-59054034D01*
X132842330Y-59038676D01*
X132838002Y-59035784D01*
X132837117Y-59033990D01*
X132838228Y-59032327D01*
X132839878Y-59032273D01*
X132936635Y-59072350D01*
X133042192Y-59093347D01*
X133149808Y-59093347D01*
X133255365Y-59072350D01*
X133352122Y-59032273D01*
X133354105Y-59032534D01*
G37*
G36*
X136385287Y-58374256D02*
G01*
X136385437Y-58376077D01*
X136380650Y-58387635D01*
X136359653Y-58493192D01*
X136359653Y-58600808D01*
X136380650Y-58706365D01*
X136385437Y-58717923D01*
X136385176Y-58719906D01*
X136383328Y-58720671D01*
X136381825Y-58719631D01*
X136373262Y-58703609D01*
X136357967Y-58684972D01*
X136339330Y-58669677D01*
X136318066Y-58658312D01*
X136294991Y-58651312D01*
X136271000Y-58648949D01*
X136247009Y-58651312D01*
X136223934Y-58658312D01*
X136202670Y-58669677D01*
X136184033Y-58684972D01*
X136168738Y-58703609D01*
X136160175Y-58719631D01*
X136158476Y-58720687D01*
X136156713Y-58719744D01*
X136156563Y-58717923D01*
X136161350Y-58706365D01*
X136182347Y-58600808D01*
X136182347Y-58493192D01*
X136161350Y-58387635D01*
X136156563Y-58376077D01*
X136156824Y-58374094D01*
X136158672Y-58373329D01*
X136160175Y-58374369D01*
X136168738Y-58390391D01*
X136184033Y-58409028D01*
X136202670Y-58424323D01*
X136223934Y-58435688D01*
X136247009Y-58442688D01*
X136271000Y-58445051D01*
X136294991Y-58442688D01*
X136318066Y-58435688D01*
X136339330Y-58424323D01*
X136357967Y-58409028D01*
X136373262Y-58390391D01*
X136381825Y-58374369D01*
X136383524Y-58373313D01*
X136385287Y-58374256D01*
G37*
G36*
X133845287Y-58374256D02*
G01*
X133845437Y-58376077D01*
X133840650Y-58387635D01*
X133819653Y-58493192D01*
X133819653Y-58600808D01*
X133840650Y-58706365D01*
X133845437Y-58717923D01*
X133845176Y-58719906D01*
X133843328Y-58720671D01*
X133841825Y-58719631D01*
X133833262Y-58703609D01*
X133817967Y-58684972D01*
X133799330Y-58669677D01*
X133778066Y-58658312D01*
X133754991Y-58651312D01*
X133731000Y-58648949D01*
X133707009Y-58651312D01*
X133683934Y-58658312D01*
X133662670Y-58669677D01*
X133644033Y-58684972D01*
X133628738Y-58703609D01*
X133620175Y-58719631D01*
X133618476Y-58720687D01*
X133616713Y-58719744D01*
X133616563Y-58717923D01*
X133621350Y-58706365D01*
X133642347Y-58600808D01*
X133642347Y-58493192D01*
X133621350Y-58387635D01*
X133616563Y-58376077D01*
X133616824Y-58374094D01*
X133618672Y-58373329D01*
X133620175Y-58374369D01*
X133628738Y-58390391D01*
X133644033Y-58409028D01*
X133662670Y-58424323D01*
X133683934Y-58435688D01*
X133707009Y-58442688D01*
X133731000Y-58445051D01*
X133754991Y-58442688D01*
X133778066Y-58435688D01*
X133799330Y-58424323D01*
X133817967Y-58409028D01*
X133833262Y-58390391D01*
X133841825Y-58374369D01*
X133843524Y-58373313D01*
X133845287Y-58374256D01*
G37*
G36*
X137655287Y-58374256D02*
G01*
X137655437Y-58376077D01*
X137650650Y-58387635D01*
X137629653Y-58493192D01*
X137629653Y-58600808D01*
X137650650Y-58706365D01*
X137655437Y-58717923D01*
X137655176Y-58719906D01*
X137653328Y-58720671D01*
X137651825Y-58719631D01*
X137643262Y-58703609D01*
X137627967Y-58684972D01*
X137609330Y-58669677D01*
X137588066Y-58658312D01*
X137564991Y-58651312D01*
X137541000Y-58648949D01*
X137517009Y-58651312D01*
X137493934Y-58658312D01*
X137472670Y-58669677D01*
X137454033Y-58684972D01*
X137438738Y-58703609D01*
X137430175Y-58719631D01*
X137428476Y-58720687D01*
X137426713Y-58719744D01*
X137426563Y-58717923D01*
X137431350Y-58706365D01*
X137452347Y-58600808D01*
X137452347Y-58493192D01*
X137431350Y-58387635D01*
X137426563Y-58376077D01*
X137426824Y-58374094D01*
X137428672Y-58373329D01*
X137430175Y-58374369D01*
X137438738Y-58390391D01*
X137454033Y-58409028D01*
X137472670Y-58424323D01*
X137493934Y-58435688D01*
X137517009Y-58442688D01*
X137541000Y-58445051D01*
X137564991Y-58442688D01*
X137588066Y-58435688D01*
X137609330Y-58424323D01*
X137627967Y-58409028D01*
X137643262Y-58390391D01*
X137651825Y-58374369D01*
X137653524Y-58373313D01*
X137655287Y-58374256D01*
G37*
G36*
X135115287Y-58374256D02*
G01*
X135115437Y-58376077D01*
X135110650Y-58387635D01*
X135089653Y-58493192D01*
X135089653Y-58600808D01*
X135110650Y-58706365D01*
X135115437Y-58717923D01*
X135115176Y-58719906D01*
X135113328Y-58720671D01*
X135111825Y-58719631D01*
X135103262Y-58703609D01*
X135087967Y-58684972D01*
X135069330Y-58669677D01*
X135048066Y-58658312D01*
X135024991Y-58651312D01*
X135001000Y-58648949D01*
X134977009Y-58651312D01*
X134953934Y-58658312D01*
X134932670Y-58669677D01*
X134914033Y-58684972D01*
X134898738Y-58703609D01*
X134890175Y-58719631D01*
X134888476Y-58720687D01*
X134886713Y-58719744D01*
X134886563Y-58717923D01*
X134891350Y-58706365D01*
X134912347Y-58600808D01*
X134912347Y-58493192D01*
X134891350Y-58387635D01*
X134886563Y-58376077D01*
X134886824Y-58374094D01*
X134888672Y-58373329D01*
X134890175Y-58374369D01*
X134898738Y-58390391D01*
X134914033Y-58409028D01*
X134932670Y-58424323D01*
X134953934Y-58435688D01*
X134977009Y-58442688D01*
X135001000Y-58445051D01*
X135024991Y-58442688D01*
X135048066Y-58435688D01*
X135069330Y-58424323D01*
X135087967Y-58409028D01*
X135103262Y-58390391D01*
X135111825Y-58374369D01*
X135113524Y-58373313D01*
X135115287Y-58374256D01*
G37*
G36*
X143234096Y-48564445D02*
G01*
X143236478Y-48588632D01*
X143243478Y-48611707D01*
X143254843Y-48632971D01*
X143270138Y-48651608D01*
X143288775Y-48666903D01*
X143310039Y-48678268D01*
X143333114Y-48685268D01*
X143357199Y-48687640D01*
X143358351Y-48687640D01*
X143360083Y-48688640D01*
X143360351Y-48689640D01*
X143360351Y-49326863D01*
X143359351Y-49328595D01*
X143357351Y-49328595D01*
X143356361Y-49327059D01*
X143353979Y-49302872D01*
X143346979Y-49279797D01*
X143335614Y-49258533D01*
X143320319Y-49239896D01*
X143301682Y-49224601D01*
X143280418Y-49213236D01*
X143257343Y-49206236D01*
X143233352Y-49203873D01*
X143209361Y-49206236D01*
X143186286Y-49213236D01*
X143165022Y-49224601D01*
X143146235Y-49240020D01*
X143144262Y-49240346D01*
X143142993Y-49238800D01*
X143143420Y-49237205D01*
X143157630Y-49219890D01*
X143197365Y-49145550D01*
X143221835Y-49064884D01*
X143230106Y-48980906D01*
X143230106Y-48564641D01*
X143231106Y-48562909D01*
X143233106Y-48562909D01*
X143234096Y-48564445D01*
G37*
G36*
X146769130Y-48223558D02*
G01*
X146769895Y-48225131D01*
X146769894Y-48980906D01*
X146778165Y-49064883D01*
X146802635Y-49145549D01*
X146841010Y-49217344D01*
X146840944Y-49219343D01*
X146839181Y-49220286D01*
X146837700Y-49219556D01*
X146832323Y-49213004D01*
X146815209Y-49195890D01*
X146795162Y-49182495D01*
X146772888Y-49173269D01*
X146749237Y-49168564D01*
X146725131Y-49168564D01*
X146701481Y-49173268D01*
X146679207Y-49182495D01*
X146659160Y-49195889D01*
X146642113Y-49212936D01*
X146628718Y-49232983D01*
X146619492Y-49255257D01*
X146614778Y-49278954D01*
X146614183Y-49291059D01*
X146613099Y-49292740D01*
X146611101Y-49292642D01*
X146610185Y-49290961D01*
X146610185Y-48689640D01*
X146611185Y-48687908D01*
X146612185Y-48687640D01*
X146642801Y-48687640D01*
X146666886Y-48685268D01*
X146689961Y-48678268D01*
X146711225Y-48666903D01*
X146729862Y-48651608D01*
X146745157Y-48632971D01*
X146756522Y-48611707D01*
X146763522Y-48588632D01*
X146765894Y-48564547D01*
X146765894Y-48225138D01*
X146765914Y-48224855D01*
X146765915Y-48224848D01*
X146767150Y-48223275D01*
X146769130Y-48223558D01*
G37*
M02*
