G04 #@! TF.GenerationSoftware,KiCad,Pcbnew,(5.1.8-0-10_14)*
G04 #@! TF.CreationDate,2021-02-03T00:58:45+08:00*
G04 #@! TF.ProjectId,mops-out,6d6f7073-2d6f-4757-942e-6b696361645f,rev?*
G04 #@! TF.SameCoordinates,Original*
G04 #@! TF.FileFunction,Copper,L2,Bot*
G04 #@! TF.FilePolarity,Positive*
%FSLAX46Y46*%
G04 Gerber Fmt 4.6, Leading zero omitted, Abs format (unit mm)*
G04 Created by KiCad (PCBNEW (5.1.8-0-10_14)) date 2021-02-03 00:58:45*
%MOMM*%
%LPD*%
G01*
G04 APERTURE LIST*
G04 #@! TA.AperFunction,ComponentPad*
%ADD10O,1.000000X1.800000*%
G04 #@! TD*
G04 #@! TA.AperFunction,ComponentPad*
%ADD11O,1.000000X2.000000*%
G04 #@! TD*
G04 #@! TA.AperFunction,SMDPad,CuDef*
%ADD12R,1.799996X1.199896*%
G04 #@! TD*
G04 #@! TA.AperFunction,ComponentPad*
%ADD13O,1.000000X1.000000*%
G04 #@! TD*
G04 #@! TA.AperFunction,ComponentPad*
%ADD14R,1.000000X1.000000*%
G04 #@! TD*
G04 #@! TA.AperFunction,ComponentPad*
%ADD15O,0.762000X1.524000*%
G04 #@! TD*
G04 #@! TA.AperFunction,ViaPad*
%ADD16C,0.800000*%
G04 #@! TD*
G04 #@! TA.AperFunction,Conductor*
%ADD17C,0.650000*%
G04 #@! TD*
G04 #@! TA.AperFunction,Conductor*
%ADD18C,0.350000*%
G04 #@! TD*
G04 #@! TA.AperFunction,Conductor*
%ADD19C,0.250000*%
G04 #@! TD*
G04 APERTURE END LIST*
D10*
X133525000Y-48250000D03*
X141275000Y-48250000D03*
D11*
X133675000Y-52050000D03*
X141125000Y-52050000D03*
G04 #@! TA.AperFunction,SMDPad,CuDef*
G36*
G01*
X110754879Y-61302907D02*
X111118750Y-61608231D01*
G75*
G02*
X111148024Y-61942829I-152662J-181936D01*
G01*
X110826631Y-62325851D01*
G75*
G02*
X110492033Y-62355125I-181936J152662D01*
G01*
X110128162Y-62049801D01*
G75*
G02*
X110098888Y-61715203I152662J181936D01*
G01*
X110420281Y-61332181D01*
G75*
G02*
X110754879Y-61302907I181936J-152662D01*
G01*
G37*
G04 #@! TD.AperFunction*
G04 #@! TA.AperFunction,SMDPad,CuDef*
G36*
G01*
X111927967Y-59904875D02*
X112291838Y-60210199D01*
G75*
G02*
X112321112Y-60544797I-152662J-181936D01*
G01*
X111999719Y-60927819D01*
G75*
G02*
X111665121Y-60957093I-181936J152662D01*
G01*
X111301250Y-60651769D01*
G75*
G02*
X111271976Y-60317171I152662J181936D01*
G01*
X111593369Y-59934149D01*
G75*
G02*
X111927967Y-59904875I181936J-152662D01*
G01*
G37*
G04 #@! TD.AperFunction*
G04 #@! TA.AperFunction,SMDPad,CuDef*
G36*
G01*
X113547167Y-58209730D02*
X114125677Y-58899171D01*
G75*
G02*
X114094863Y-59251377I-191510J-160696D01*
G01*
X113596933Y-59669190D01*
G75*
G02*
X113244727Y-59638376I-160696J191510D01*
G01*
X112666217Y-58948935D01*
G75*
G02*
X112697031Y-58596729I191510J160696D01*
G01*
X113194961Y-58178916D01*
G75*
G02*
X113547167Y-58209730I160696J-191510D01*
G01*
G37*
G04 #@! TD.AperFunction*
G04 #@! TA.AperFunction,SMDPad,CuDef*
G36*
G01*
X115117559Y-56892016D02*
X115696069Y-57581457D01*
G75*
G02*
X115665255Y-57933663I-191510J-160696D01*
G01*
X115167325Y-58351476D01*
G75*
G02*
X114815119Y-58320662I-160696J191510D01*
G01*
X114236609Y-57631221D01*
G75*
G02*
X114267423Y-57279015I191510J160696D01*
G01*
X114765353Y-56861202D01*
G75*
G02*
X115117559Y-56892016I160696J-191510D01*
G01*
G37*
G04 #@! TD.AperFunction*
D12*
X131100070Y-73149991D03*
X131100070Y-76850009D03*
X124899930Y-73149991D03*
X124899930Y-76850009D03*
G04 #@! TA.AperFunction,SMDPad,CuDef*
G36*
G01*
X147035288Y-64574712D02*
X147814713Y-64124711D01*
G75*
G02*
X148156217Y-64216216I124999J-216505D01*
G01*
X148481218Y-64779135D01*
G75*
G02*
X148389713Y-65120640I-216505J-125000D01*
G01*
X147610288Y-65570641D01*
G75*
G02*
X147268783Y-65479135I-125000J216505D01*
G01*
X146943782Y-64916216D01*
G75*
G02*
X147035288Y-64574712I216505J124999D01*
G01*
G37*
G04 #@! TD.AperFunction*
G04 #@! TA.AperFunction,SMDPad,CuDef*
G36*
G01*
X146010288Y-62799360D02*
X146789713Y-62349359D01*
G75*
G02*
X147131217Y-62440864I124999J-216505D01*
G01*
X147456218Y-63003783D01*
G75*
G02*
X147364713Y-63345288I-216505J-125000D01*
G01*
X146585288Y-63795289D01*
G75*
G02*
X146243783Y-63703783I-125000J216505D01*
G01*
X145918782Y-63140864D01*
G75*
G02*
X146010288Y-62799360I216505J124999D01*
G01*
G37*
G04 #@! TD.AperFunction*
G04 #@! TA.AperFunction,SMDPad,CuDef*
G36*
G01*
X127770000Y-96569999D02*
X127770000Y-97470001D01*
G75*
G02*
X127520001Y-97720000I-249999J0D01*
G01*
X126869999Y-97720000D01*
G75*
G02*
X126620000Y-97470001I0J249999D01*
G01*
X126620000Y-96569999D01*
G75*
G02*
X126869999Y-96320000I249999J0D01*
G01*
X127520001Y-96320000D01*
G75*
G02*
X127770000Y-96569999I0J-249999D01*
G01*
G37*
G04 #@! TD.AperFunction*
G04 #@! TA.AperFunction,SMDPad,CuDef*
G36*
G01*
X129820000Y-96569999D02*
X129820000Y-97470001D01*
G75*
G02*
X129570001Y-97720000I-249999J0D01*
G01*
X128919999Y-97720000D01*
G75*
G02*
X128670000Y-97470001I0J249999D01*
G01*
X128670000Y-96569999D01*
G75*
G02*
X128919999Y-96320000I249999J0D01*
G01*
X129570001Y-96320000D01*
G75*
G02*
X129820000Y-96569999I0J-249999D01*
G01*
G37*
G04 #@! TD.AperFunction*
G04 #@! TA.AperFunction,SMDPad,CuDef*
G36*
G01*
X109674713Y-64695289D02*
X108895287Y-64245288D01*
G75*
G02*
X108803782Y-63903784I125000J216505D01*
G01*
X109128783Y-63340865D01*
G75*
G02*
X109470288Y-63249359I216505J-124999D01*
G01*
X110249713Y-63699360D01*
G75*
G02*
X110341218Y-64040864I-125000J-216505D01*
G01*
X110016217Y-64603783D01*
G75*
G02*
X109674713Y-64695289I-216505J124999D01*
G01*
G37*
G04 #@! TD.AperFunction*
G04 #@! TA.AperFunction,SMDPad,CuDef*
G36*
G01*
X108649713Y-66470641D02*
X107870287Y-66020640D01*
G75*
G02*
X107778782Y-65679136I125000J216505D01*
G01*
X108103783Y-65116217D01*
G75*
G02*
X108445288Y-65024711I216505J-124999D01*
G01*
X109224713Y-65474712D01*
G75*
G02*
X109316218Y-65816216I-125000J-216505D01*
G01*
X108991217Y-66379135D01*
G75*
G02*
X108649713Y-66470641I-216505J124999D01*
G01*
G37*
G04 #@! TD.AperFunction*
D13*
X114635000Y-73460000D03*
X113365000Y-73460000D03*
X114635000Y-74730000D03*
X113365000Y-74730000D03*
X114635000Y-76000000D03*
X113365000Y-76000000D03*
X114635000Y-77270000D03*
X113365000Y-77270000D03*
X113365000Y-78540000D03*
D14*
X114635000Y-78540000D03*
D15*
X142800106Y-48600000D03*
X147199894Y-48600000D03*
D16*
X134570000Y-81170000D03*
X136390000Y-75760000D03*
X116640000Y-85700000D03*
X121980000Y-78380000D03*
X126000000Y-71020000D03*
X128270000Y-66660000D03*
X130850000Y-53780000D03*
X127937802Y-51867802D03*
X118660000Y-54520043D03*
X142400000Y-63210000D03*
X118310000Y-74500000D03*
X148000000Y-75770000D03*
X148200000Y-61770000D03*
X137590000Y-60460000D03*
X128010000Y-50630000D03*
X117120000Y-80770000D03*
X126350000Y-76850000D03*
X139900000Y-65860000D03*
X139340000Y-58820000D03*
X110260000Y-66500000D03*
D17*
X133710079Y-75760000D02*
X131100070Y-73149991D01*
X136390000Y-75760000D02*
X133710079Y-75760000D01*
D18*
X116640000Y-85700000D02*
X121170000Y-81170000D01*
X123040000Y-79440000D02*
X121980000Y-78380000D01*
X123040000Y-81170000D02*
X123040000Y-79440000D01*
X121170000Y-81170000D02*
X123040000Y-81170000D01*
X123040000Y-81170000D02*
X134570000Y-81170000D01*
X128270000Y-68750000D02*
X128270000Y-66660000D01*
X126000000Y-71020000D02*
X128270000Y-68750000D01*
X129850000Y-53780000D02*
X127937802Y-51867802D01*
X130850000Y-53780000D02*
X129850000Y-53780000D01*
D17*
X125285561Y-54520043D02*
X127937802Y-51867802D01*
X118660000Y-54520043D02*
X125285561Y-54520043D01*
X141225000Y-62035000D02*
X141225000Y-52050000D01*
X142400000Y-63210000D02*
X141225000Y-62035000D01*
X124899930Y-73149991D02*
X131100070Y-73149991D01*
X136390000Y-79350000D02*
X134570000Y-81170000D01*
X136390000Y-75760000D02*
X136390000Y-79350000D01*
D19*
X112539999Y-73904999D02*
X113365000Y-74730000D01*
X116444999Y-72634999D02*
X112968999Y-72634999D01*
X112539999Y-73063999D02*
X112539999Y-73904999D01*
X112968999Y-72634999D02*
X112539999Y-73063999D01*
X118310000Y-74500000D02*
X116444999Y-72634999D01*
D18*
X109572500Y-63972324D02*
X108706039Y-63972324D01*
X129828890Y-98095010D02*
X147712500Y-80211400D01*
X128270010Y-98095010D02*
X129828890Y-98095010D01*
X127195000Y-97020000D02*
X128270010Y-98095010D01*
X147712500Y-75482500D02*
X148000000Y-75770000D01*
X147712500Y-80211400D02*
X147712500Y-74607500D01*
X147712500Y-74607500D02*
X147712500Y-75482500D01*
X147712500Y-74607500D02*
X147712500Y-64847676D01*
X122562170Y-97020000D02*
X127195000Y-97020000D01*
X106000000Y-80457830D02*
X122562170Y-97020000D01*
X106000000Y-64990000D02*
X106000000Y-80457830D01*
X107017676Y-63972324D02*
X106000000Y-64990000D01*
X109572500Y-63972324D02*
X107017676Y-63972324D01*
X114635000Y-77270000D02*
X118820000Y-77270000D01*
X118820000Y-77270000D02*
X120660000Y-75430000D01*
X120660000Y-75430000D02*
X120660000Y-71230000D01*
X113402324Y-63972324D02*
X109572500Y-63972324D01*
X120660000Y-71230000D02*
X113402324Y-63972324D01*
X148200000Y-64360176D02*
X147712500Y-64847676D01*
X148200000Y-61770000D02*
X148200000Y-64360176D01*
X128847002Y-50630000D02*
X128010000Y-50630000D01*
X137590000Y-59372998D02*
X128847002Y-50630000D01*
X137590000Y-60460000D02*
X137590000Y-59372998D01*
X110623456Y-62921368D02*
X109572500Y-63972324D01*
X110623456Y-61829016D02*
X110623456Y-62921368D01*
D19*
X112539999Y-78095001D02*
X113365000Y-77270000D01*
X112539999Y-78936001D02*
X112539999Y-78095001D01*
X114373998Y-80770000D02*
X112539999Y-78936001D01*
X117120000Y-80770000D02*
X114373998Y-80770000D01*
X124899939Y-76850000D02*
X124899930Y-76850009D01*
X126350000Y-76850000D02*
X124899939Y-76850000D01*
D17*
X131100061Y-76850000D02*
X131100070Y-76850009D01*
X126350000Y-76850000D02*
X131100061Y-76850000D01*
D18*
X114966339Y-57606339D02*
X114966339Y-63246339D01*
X114966339Y-63246339D02*
X122450000Y-70730000D01*
X122450000Y-74400079D02*
X124899930Y-76850009D01*
X122450000Y-70730000D02*
X122450000Y-74400079D01*
D17*
X139900000Y-65860000D02*
X139340000Y-65300000D01*
X139340000Y-65300000D02*
X139340000Y-58820000D01*
D18*
X109299824Y-66500000D02*
X108547500Y-65747676D01*
X110260000Y-66500000D02*
X109299824Y-66500000D01*
X108547500Y-65747676D02*
X108547500Y-82227500D01*
X108547500Y-82227500D02*
X117800000Y-91480000D01*
X117800000Y-91480000D02*
X125770000Y-91480000D01*
X129245000Y-94955000D02*
X129245000Y-97020000D01*
X125770000Y-91480000D02*
X129245000Y-94955000D01*
X129245000Y-97020000D02*
X129245000Y-96195000D01*
X129245000Y-96195000D02*
X145790000Y-79650000D01*
X145790000Y-63969824D02*
X146687500Y-63072324D01*
X145790000Y-79650000D02*
X145790000Y-63969824D01*
X111889016Y-60430984D02*
X113395947Y-58924053D01*
X111796544Y-60430984D02*
X111889016Y-60430984D01*
M02*
