G04 #@! TF.GenerationSoftware,KiCad,Pcbnew,(5.1.8-0-10_14)*
G04 #@! TF.CreationDate,2021-02-03T00:58:45+08:00*
G04 #@! TF.ProjectId,mops-out,6d6f7073-2d6f-4757-942e-6b696361645f,rev?*
G04 #@! TF.SameCoordinates,Original*
G04 #@! TF.FileFunction,Legend,Bot*
G04 #@! TF.FilePolarity,Positive*
%FSLAX46Y46*%
G04 Gerber Fmt 4.6, Leading zero omitted, Abs format (unit mm)*
G04 Created by KiCad (PCBNEW (5.1.8-0-10_14)) date 2021-02-03 00:58:45*
%MOMM*%
%LPD*%
G01*
G04 APERTURE LIST*
%ADD10C,0.120000*%
%ADD11C,0.254000*%
%ADD12C,0.150000*%
G04 APERTURE END LIST*
D10*
X129250000Y-75000000D02*
G75*
G03*
X129250000Y-75000000I-1000000J0D01*
G01*
X138250000Y-75000000D02*
G75*
G03*
X138250000Y-75000000I-10000000J0D01*
G01*
X148500000Y-75000000D02*
G75*
G03*
X148500000Y-75000000I-20250000J0D01*
G01*
X152250000Y-75000000D02*
G75*
G03*
X152250000Y-75000000I-24000000J0D01*
G01*
X153150000Y-75000000D02*
G75*
G03*
X153150000Y-75000000I-24900000J0D01*
G01*
X110973475Y-60599014D02*
X110646008Y-60989273D01*
X111773992Y-61270727D02*
X111446525Y-61660986D01*
X112798022Y-58172581D02*
X114988910Y-56334208D01*
X114988910Y-56334208D02*
X116223062Y-57805014D01*
X116223062Y-57805014D02*
X114032175Y-59643386D01*
D11*
X125975010Y-77600122D02*
X130024990Y-77600122D01*
X125400005Y-76019048D02*
X125400005Y-73981206D01*
X130599995Y-73981206D02*
X130599995Y-76019048D01*
X125913161Y-72350120D02*
X130086839Y-72350120D01*
X125968000Y-72968127D02*
X125968000Y-77032127D01*
X130032000Y-72968127D02*
X125968000Y-72968127D01*
X130032000Y-77032127D02*
X130032000Y-72968127D01*
X125968000Y-77032127D02*
X130032000Y-77032127D01*
X128000000Y-77032127D02*
X128000000Y-76016127D01*
X128000000Y-74238127D02*
X129016000Y-75254127D01*
X128000000Y-72968127D02*
X128000000Y-74238127D01*
D10*
X146868616Y-65306025D02*
X145438616Y-62829193D01*
X145438616Y-62829193D02*
X147101384Y-61869193D01*
X147101384Y-61869193D02*
X148531384Y-64346025D01*
X127220000Y-96060000D02*
X130080000Y-96060000D01*
X130080000Y-96060000D02*
X130080000Y-97980000D01*
X130080000Y-97980000D02*
X127220000Y-97980000D01*
X110391384Y-64473975D02*
X108961384Y-66950807D01*
X108961384Y-66950807D02*
X107298616Y-65990807D01*
X107298616Y-65990807D02*
X108728616Y-63513975D01*
D12*
X110568231Y-60373924D02*
X110417710Y-59812487D01*
X110935538Y-59936185D02*
X110169493Y-59293397D01*
X109924622Y-59585223D01*
X109899882Y-59688789D01*
X109905752Y-59755876D01*
X109948099Y-59853572D01*
X110057534Y-59945399D01*
X110161100Y-59970139D01*
X110228187Y-59964269D01*
X110325883Y-59921922D01*
X110570755Y-59630095D01*
X109587924Y-59986485D02*
X109159399Y-60497181D01*
X110200923Y-60811664D01*
X113976741Y-56873328D02*
X113333954Y-56107283D01*
X113151562Y-56260328D01*
X113072736Y-56388633D01*
X113060997Y-56522808D01*
X113085737Y-56626373D01*
X113171694Y-56802895D01*
X113263521Y-56912330D01*
X113422435Y-57027635D01*
X113520131Y-57069982D01*
X113654306Y-57081721D01*
X113794350Y-57026373D01*
X113976741Y-56873328D01*
X112239604Y-57025552D02*
X112385518Y-56903116D01*
X112489083Y-56878376D01*
X112556170Y-56884246D01*
X112720954Y-56932463D01*
X112879868Y-57047767D01*
X113124739Y-57339593D01*
X113149479Y-57443159D01*
X113143609Y-57510246D01*
X113101262Y-57607942D01*
X112955349Y-57730378D01*
X112851783Y-57755118D01*
X112784696Y-57749248D01*
X112687000Y-57706901D01*
X112533955Y-57524509D01*
X112509215Y-57420944D01*
X112515085Y-57353856D01*
X112557432Y-57256160D01*
X112703346Y-57133724D01*
X112806911Y-57108985D01*
X112873998Y-57114854D01*
X112971695Y-57157202D01*
X129333333Y-65404761D02*
X129190476Y-65452380D01*
X128952380Y-65452380D01*
X128857142Y-65404761D01*
X128809523Y-65357142D01*
X128761904Y-65261904D01*
X128761904Y-65166666D01*
X128809523Y-65071428D01*
X128857142Y-65023809D01*
X128952380Y-64976190D01*
X129142857Y-64928571D01*
X129238095Y-64880952D01*
X129285714Y-64833333D01*
X129333333Y-64738095D01*
X129333333Y-64642857D01*
X129285714Y-64547619D01*
X129238095Y-64500000D01*
X129142857Y-64452380D01*
X128904761Y-64452380D01*
X128761904Y-64500000D01*
X128428571Y-64452380D02*
X128190476Y-65452380D01*
X128000000Y-64738095D01*
X127809523Y-65452380D01*
X127571428Y-64452380D01*
X126666666Y-65452380D02*
X127238095Y-65452380D01*
X126952380Y-65452380D02*
X126952380Y-64452380D01*
X127047619Y-64595238D01*
X127142857Y-64690476D01*
X127238095Y-64738095D01*
X145748332Y-65650399D02*
X146614357Y-65150399D01*
X146495310Y-64944203D01*
X146382642Y-64844294D01*
X146252544Y-64809435D01*
X146146256Y-64815814D01*
X145957489Y-64869813D01*
X145833771Y-64941242D01*
X145692623Y-65077719D01*
X145633954Y-65166578D01*
X145599095Y-65296675D01*
X145629284Y-65444203D01*
X145748332Y-65650399D01*
X145876262Y-63871981D02*
X146114357Y-64284374D01*
X145725774Y-64563708D01*
X145743203Y-64498660D01*
X145736824Y-64392371D01*
X145617776Y-64186175D01*
X145528918Y-64127506D01*
X145463869Y-64110076D01*
X145357581Y-64116456D01*
X145151384Y-64235503D01*
X145092715Y-64324362D01*
X145075285Y-64389411D01*
X145081665Y-64495699D01*
X145200713Y-64701895D01*
X145289571Y-64760564D01*
X145354620Y-64777994D01*
X128958095Y-95822380D02*
X128958095Y-94822380D01*
X128720000Y-94822380D01*
X128577142Y-94870000D01*
X128481904Y-94965238D01*
X128434285Y-95060476D01*
X128386666Y-95250952D01*
X128386666Y-95393809D01*
X128434285Y-95584285D01*
X128481904Y-95679523D01*
X128577142Y-95774761D01*
X128720000Y-95822380D01*
X128958095Y-95822380D01*
X127529523Y-95155714D02*
X127529523Y-95822380D01*
X127767619Y-94774761D02*
X128005714Y-95489047D01*
X127386666Y-95489047D01*
X111249763Y-65271981D02*
X110383737Y-64771981D01*
X110264689Y-64978177D01*
X110234500Y-65125705D01*
X110269360Y-65255802D01*
X110328029Y-65344661D01*
X110469177Y-65481138D01*
X110592894Y-65552567D01*
X110781661Y-65606565D01*
X110887949Y-65612945D01*
X111018047Y-65578086D01*
X111130715Y-65478177D01*
X111249763Y-65271981D01*
X109931356Y-65555528D02*
X109621832Y-66091639D01*
X110118413Y-65993440D01*
X110046985Y-66117157D01*
X110040605Y-66223446D01*
X110058035Y-66288494D01*
X110116704Y-66377353D01*
X110322901Y-66496400D01*
X110429189Y-66502780D01*
X110494237Y-66485350D01*
X110583096Y-66426681D01*
X110725953Y-66179245D01*
X110732333Y-66072957D01*
X110714903Y-66007908D01*
M02*
