M48
; DRILL file {KiCad (5.1.8-0-10_14)} date Wednesday, February 03, 2021 at 12:58:49 AM
; FORMAT={-:-/ absolute / inch / decimal}
; #@! TF.CreationDate,2021-02-03T00:58:49+08:00
; #@! TF.GenerationSoftware,Kicad,Pcbnew,(5.1.8-0-10_14)
; #@! TF.FileFunction,Plated,1,2,PTH
FMAT,2
INCH
T1C0.0157
T2C0.0160
T3C0.0197
T4C0.0236
T5C0.0276
%
G90
G05
T1
X4.3409Y-2.6181
X4.5921Y-3.374
X4.611Y-3.1799
X4.6579Y-2.9331
X4.6717Y-2.1465
X4.8024Y-3.0858
X4.9606Y-2.7961
X4.9744Y-3.0256
X5.0369Y-2.042
X5.0398Y-1.9933
X5.05Y-2.6244
X5.1516Y-2.1173
X5.298Y-3.1957
X5.3697Y-2.9827
X5.4169Y-2.3803
X5.4858Y-2.3157
X5.5079Y-2.5929
X5.6063Y-2.4886
X5.8268Y-2.9831
X5.8346Y-2.4319
T3
X4.4632Y-2.8921
X4.4632Y-2.9421
X4.4632Y-2.9921
X4.4632Y-3.0421
X4.4632Y-3.0921
X4.5132Y-2.8921
X4.5132Y-2.9421
X4.5132Y-2.9921
X4.5132Y-3.0421
X4.5132Y-3.0921
T2
G00X5.6221Y-1.9294
M15
G01X5.6221Y-1.8974
M16
G05
G00X5.7953Y-1.9294
M15
G01X5.7953Y-1.8974
M16
G05
T4
G00X5.2569Y-1.9114
M15
G01X5.2569Y-1.8878
M16
G05
G00X5.562Y-1.9114
M15
G01X5.562Y-1.8878
M16
G05
T5
G00X5.2628Y-2.063
M15
G01X5.2628Y-2.0354
M16
G05
G00X5.5561Y-2.063
M15
G01X5.5561Y-2.0354
M16
G05
T0
M30
