G04 #@! TF.GenerationSoftware,KiCad,Pcbnew,(5.1.8-0-10_14)*
G04 #@! TF.CreationDate,2021-02-03T00:58:45+08:00*
G04 #@! TF.ProjectId,mops-out,6d6f7073-2d6f-4757-942e-6b696361645f,rev?*
G04 #@! TF.SameCoordinates,Original*
G04 #@! TF.FileFunction,Soldermask,Bot*
G04 #@! TF.FilePolarity,Negative*
%FSLAX46Y46*%
G04 Gerber Fmt 4.6, Leading zero omitted, Abs format (unit mm)*
G04 Created by KiCad (PCBNEW (5.1.8-0-10_14)) date 2021-02-03 00:58:45*
%MOMM*%
%LPD*%
G01*
G04 APERTURE LIST*
%ADD10C,0.902000*%
%ADD11O,1.102000X1.902000*%
%ADD12O,1.102000X2.102000*%
%ADD13O,1.102000X1.102000*%
%ADD14O,0.864000X1.626000*%
%ADD15C,0.100000*%
G04 APERTURE END LIST*
D10*
X134900000Y-51000000D03*
X139900000Y-51000000D03*
D11*
X133525000Y-48250000D03*
X141275000Y-48250000D03*
D12*
X133675000Y-52050000D03*
X141125000Y-52050000D03*
G36*
G01*
X110768127Y-61247448D02*
X111171067Y-61585554D01*
G75*
G02*
X111203484Y-61956077I-169053J-201470D01*
G01*
X110849308Y-62378167D01*
G75*
G02*
X110478785Y-62410584I-201470J169053D01*
G01*
X110075845Y-62072478D01*
G75*
G02*
X110043428Y-61701955I169053J201470D01*
G01*
X110397604Y-61279865D01*
G75*
G02*
X110768127Y-61247448I201470J-169053D01*
G01*
G37*
G36*
G01*
X111941215Y-59849416D02*
X112344155Y-60187522D01*
G75*
G02*
X112376572Y-60558045I-169053J-201470D01*
G01*
X112022396Y-60980135D01*
G75*
G02*
X111651873Y-61012552I-201470J169053D01*
G01*
X111248933Y-60674446D01*
G75*
G02*
X111216516Y-60303923I169053J201470D01*
G01*
X111570692Y-59881833D01*
G75*
G02*
X111941215Y-59849416I201470J-169053D01*
G01*
G37*
G36*
G01*
X113567706Y-58154864D02*
X114183276Y-58888471D01*
G75*
G02*
X114149729Y-59271916I-208496J-174949D01*
G01*
X113607633Y-59726789D01*
G75*
G02*
X113224188Y-59693242I-174949J208496D01*
G01*
X112608618Y-58959635D01*
G75*
G02*
X112642165Y-58576190I208496J174949D01*
G01*
X113184261Y-58121317D01*
G75*
G02*
X113567706Y-58154864I174949J-208496D01*
G01*
G37*
G36*
G01*
X115138098Y-56837150D02*
X115753668Y-57570757D01*
G75*
G02*
X115720121Y-57954202I-208496J-174949D01*
G01*
X115178025Y-58409075D01*
G75*
G02*
X114794580Y-58375528I-174949J208496D01*
G01*
X114179010Y-57641921D01*
G75*
G02*
X114212557Y-57258476I208496J174949D01*
G01*
X114754653Y-56803603D01*
G75*
G02*
X115138098Y-56837150I174949J-208496D01*
G01*
G37*
G36*
G01*
X130149072Y-73749939D02*
X130149072Y-72550043D01*
G75*
G02*
X130200072Y-72499043I51000J0D01*
G01*
X132000068Y-72499043D01*
G75*
G02*
X132051068Y-72550043I0J-51000D01*
G01*
X132051068Y-73749939D01*
G75*
G02*
X132000068Y-73800939I-51000J0D01*
G01*
X130200072Y-73800939D01*
G75*
G02*
X130149072Y-73749939I0J51000D01*
G01*
G37*
G36*
G01*
X130149072Y-77449957D02*
X130149072Y-76250061D01*
G75*
G02*
X130200072Y-76199061I51000J0D01*
G01*
X132000068Y-76199061D01*
G75*
G02*
X132051068Y-76250061I0J-51000D01*
G01*
X132051068Y-77449957D01*
G75*
G02*
X132000068Y-77500957I-51000J0D01*
G01*
X130200072Y-77500957D01*
G75*
G02*
X130149072Y-77449957I0J51000D01*
G01*
G37*
G36*
G01*
X123948932Y-73749939D02*
X123948932Y-72550043D01*
G75*
G02*
X123999932Y-72499043I51000J0D01*
G01*
X125799928Y-72499043D01*
G75*
G02*
X125850928Y-72550043I0J-51000D01*
G01*
X125850928Y-73749939D01*
G75*
G02*
X125799928Y-73800939I-51000J0D01*
G01*
X123999932Y-73800939D01*
G75*
G02*
X123948932Y-73749939I0J51000D01*
G01*
G37*
G36*
G01*
X123948932Y-77449957D02*
X123948932Y-76250061D01*
G75*
G02*
X123999932Y-76199061I51000J0D01*
G01*
X125799928Y-76199061D01*
G75*
G02*
X125850928Y-76250061I0J-51000D01*
G01*
X125850928Y-77449957D01*
G75*
G02*
X125799928Y-77500957I-51000J0D01*
G01*
X123999932Y-77500957D01*
G75*
G02*
X123948932Y-77449957I0J51000D01*
G01*
G37*
G36*
G01*
X146984823Y-64544958D02*
X147814177Y-64066130D01*
G75*
G02*
X148185971Y-64165752I136086J-235708D01*
G01*
X148539799Y-64778600D01*
G75*
G02*
X148440177Y-65150394I-235708J-136086D01*
G01*
X147610823Y-65629222D01*
G75*
G02*
X147239029Y-65529600I-136086J235708D01*
G01*
X146885201Y-64916752D01*
G75*
G02*
X146984823Y-64544958I235708J136086D01*
G01*
G37*
G36*
G01*
X145959823Y-62769606D02*
X146789177Y-62290778D01*
G75*
G02*
X147160971Y-62390400I136086J-235708D01*
G01*
X147514799Y-63003248D01*
G75*
G02*
X147415177Y-63375042I-235708J-136086D01*
G01*
X146585823Y-63853870D01*
G75*
G02*
X146214029Y-63754248I-136086J235708D01*
G01*
X145860201Y-63141400D01*
G75*
G02*
X145959823Y-62769606I235708J136086D01*
G01*
G37*
G36*
G01*
X127821000Y-96541172D02*
X127821000Y-97498828D01*
G75*
G02*
X127548828Y-97771000I-272172J0D01*
G01*
X126841172Y-97771000D01*
G75*
G02*
X126569000Y-97498828I0J272172D01*
G01*
X126569000Y-96541172D01*
G75*
G02*
X126841172Y-96269000I272172J0D01*
G01*
X127548828Y-96269000D01*
G75*
G02*
X127821000Y-96541172I0J-272172D01*
G01*
G37*
G36*
G01*
X129871000Y-96541172D02*
X129871000Y-97498828D01*
G75*
G02*
X129598828Y-97771000I-272172J0D01*
G01*
X128891172Y-97771000D01*
G75*
G02*
X128619000Y-97498828I0J272172D01*
G01*
X128619000Y-96541172D01*
G75*
G02*
X128891172Y-96269000I272172J0D01*
G01*
X129598828Y-96269000D01*
G75*
G02*
X129871000Y-96541172I0J-272172D01*
G01*
G37*
G36*
G01*
X109674177Y-64753870D02*
X108844823Y-64275042D01*
G75*
G02*
X108745201Y-63903248I136086J235708D01*
G01*
X109099029Y-63290400D01*
G75*
G02*
X109470823Y-63190778I235708J-136086D01*
G01*
X110300177Y-63669606D01*
G75*
G02*
X110399799Y-64041400I-136086J-235708D01*
G01*
X110045971Y-64654248D01*
G75*
G02*
X109674177Y-64753870I-235708J136086D01*
G01*
G37*
G36*
G01*
X108649177Y-66529222D02*
X107819823Y-66050394D01*
G75*
G02*
X107720201Y-65678600I136086J235708D01*
G01*
X108074029Y-65065752D01*
G75*
G02*
X108445823Y-64966130I235708J-136086D01*
G01*
X109275177Y-65444958D01*
G75*
G02*
X109374799Y-65816752I-136086J-235708D01*
G01*
X109020971Y-66429600D01*
G75*
G02*
X108649177Y-66529222I-235708J136086D01*
G01*
G37*
D13*
X114635000Y-73460000D03*
X113365000Y-73460000D03*
X114635000Y-74730000D03*
X113365000Y-74730000D03*
X114635000Y-76000000D03*
X113365000Y-76000000D03*
X114635000Y-77270000D03*
X113365000Y-77270000D03*
X113365000Y-78540000D03*
G36*
G01*
X115186000Y-78040000D02*
X115186000Y-79040000D01*
G75*
G02*
X115135000Y-79091000I-51000J0D01*
G01*
X114135000Y-79091000D01*
G75*
G02*
X114084000Y-79040000I0J51000D01*
G01*
X114084000Y-78040000D01*
G75*
G02*
X114135000Y-77989000I51000J0D01*
G01*
X115135000Y-77989000D01*
G75*
G02*
X115186000Y-78040000I0J-51000D01*
G01*
G37*
D14*
X142800106Y-48600000D03*
X147199894Y-48600000D03*
D15*
G36*
X114085165Y-78216452D02*
G01*
X114086000Y-78218078D01*
X114086000Y-78861922D01*
X114085000Y-78863654D01*
X114083000Y-78863654D01*
X114082010Y-78862118D01*
X114079628Y-78837931D01*
X114072628Y-78814856D01*
X114061263Y-78793592D01*
X114045968Y-78774955D01*
X114027331Y-78759660D01*
X114006067Y-78748295D01*
X113982992Y-78741295D01*
X113959001Y-78738932D01*
X113935010Y-78741295D01*
X113911935Y-78748295D01*
X113890671Y-78759660D01*
X113872034Y-78774955D01*
X113856676Y-78793670D01*
X113853784Y-78797998D01*
X113851990Y-78798883D01*
X113850327Y-78797772D01*
X113850273Y-78796122D01*
X113890350Y-78699365D01*
X113911347Y-78593808D01*
X113911347Y-78486192D01*
X113890350Y-78380635D01*
X113850273Y-78283878D01*
X113850534Y-78281895D01*
X113852382Y-78281130D01*
X113853784Y-78282002D01*
X113856676Y-78286330D01*
X113872035Y-78305045D01*
X113890672Y-78320340D01*
X113911935Y-78331705D01*
X113935010Y-78338705D01*
X113959002Y-78341068D01*
X113982993Y-78338705D01*
X114006068Y-78331705D01*
X114027331Y-78320340D01*
X114045968Y-78305044D01*
X114061263Y-78286407D01*
X114072628Y-78265144D01*
X114079628Y-78242069D01*
X114082010Y-78217882D01*
X114083175Y-78216256D01*
X114085165Y-78216452D01*
G37*
G36*
X113537906Y-77790824D02*
G01*
X113538671Y-77792672D01*
X113537631Y-77794175D01*
X113521609Y-77802738D01*
X113502972Y-77818033D01*
X113487677Y-77836670D01*
X113476312Y-77857934D01*
X113469312Y-77881009D01*
X113466949Y-77905000D01*
X113469312Y-77928991D01*
X113476312Y-77952066D01*
X113487677Y-77973330D01*
X113502972Y-77991967D01*
X113521609Y-78007262D01*
X113537631Y-78015825D01*
X113538687Y-78017524D01*
X113537744Y-78019287D01*
X113535923Y-78019437D01*
X113524365Y-78014650D01*
X113418808Y-77993653D01*
X113311192Y-77993653D01*
X113205635Y-78014650D01*
X113194077Y-78019437D01*
X113192094Y-78019176D01*
X113191329Y-78017328D01*
X113192369Y-78015825D01*
X113208391Y-78007262D01*
X113227028Y-77991967D01*
X113242323Y-77973330D01*
X113253688Y-77952066D01*
X113260688Y-77928991D01*
X113263051Y-77905000D01*
X113260688Y-77881009D01*
X113253688Y-77857934D01*
X113242323Y-77836670D01*
X113227028Y-77818033D01*
X113208391Y-77802738D01*
X113192369Y-77794175D01*
X113191313Y-77792476D01*
X113192256Y-77790713D01*
X113194077Y-77790563D01*
X113205635Y-77795350D01*
X113311192Y-77816347D01*
X113418808Y-77816347D01*
X113524365Y-77795350D01*
X113535923Y-77790563D01*
X113537906Y-77790824D01*
G37*
G36*
X114893105Y-77755534D02*
G01*
X114893870Y-77757382D01*
X114892998Y-77758784D01*
X114888670Y-77761676D01*
X114869955Y-77777035D01*
X114854660Y-77795672D01*
X114843295Y-77816935D01*
X114836295Y-77840010D01*
X114833932Y-77864001D01*
X114836295Y-77887993D01*
X114843295Y-77911068D01*
X114854660Y-77932331D01*
X114869956Y-77950968D01*
X114888593Y-77966263D01*
X114909856Y-77977628D01*
X114932931Y-77984628D01*
X114957118Y-77987010D01*
X114958744Y-77988175D01*
X114958548Y-77990165D01*
X114956922Y-77991000D01*
X114313078Y-77991000D01*
X114311346Y-77990000D01*
X114311346Y-77988000D01*
X114312882Y-77987010D01*
X114337069Y-77984628D01*
X114360144Y-77977628D01*
X114381408Y-77966263D01*
X114400045Y-77950968D01*
X114415340Y-77932331D01*
X114426705Y-77911067D01*
X114433705Y-77887992D01*
X114436068Y-77864001D01*
X114433705Y-77840010D01*
X114426705Y-77816935D01*
X114415340Y-77795671D01*
X114400045Y-77777034D01*
X114381330Y-77761676D01*
X114377002Y-77758784D01*
X114376117Y-77756990D01*
X114377228Y-77755327D01*
X114378878Y-77755273D01*
X114475635Y-77795350D01*
X114581192Y-77816347D01*
X114688808Y-77816347D01*
X114794365Y-77795350D01*
X114891122Y-77755273D01*
X114893105Y-77755534D01*
G37*
G36*
X114114287Y-77097256D02*
G01*
X114114437Y-77099077D01*
X114109650Y-77110635D01*
X114088653Y-77216192D01*
X114088653Y-77323808D01*
X114109650Y-77429365D01*
X114114437Y-77440923D01*
X114114176Y-77442906D01*
X114112328Y-77443671D01*
X114110825Y-77442631D01*
X114102262Y-77426609D01*
X114086967Y-77407972D01*
X114068330Y-77392677D01*
X114047066Y-77381312D01*
X114023991Y-77374312D01*
X114000000Y-77371949D01*
X113976009Y-77374312D01*
X113952934Y-77381312D01*
X113931670Y-77392677D01*
X113913033Y-77407972D01*
X113897738Y-77426609D01*
X113889175Y-77442631D01*
X113887476Y-77443687D01*
X113885713Y-77442744D01*
X113885563Y-77440923D01*
X113890350Y-77429365D01*
X113911347Y-77323808D01*
X113911347Y-77216192D01*
X113890350Y-77110635D01*
X113885563Y-77099077D01*
X113885824Y-77097094D01*
X113887672Y-77096329D01*
X113889175Y-77097369D01*
X113897738Y-77113391D01*
X113913033Y-77132028D01*
X113931670Y-77147323D01*
X113952934Y-77158688D01*
X113976009Y-77165688D01*
X114000000Y-77168051D01*
X114023991Y-77165688D01*
X114047066Y-77158688D01*
X114068330Y-77147323D01*
X114086967Y-77132028D01*
X114102262Y-77113391D01*
X114110825Y-77097369D01*
X114112524Y-77096313D01*
X114114287Y-77097256D01*
G37*
G36*
X114807906Y-76520824D02*
G01*
X114808671Y-76522672D01*
X114807631Y-76524175D01*
X114791609Y-76532738D01*
X114772972Y-76548033D01*
X114757677Y-76566670D01*
X114746312Y-76587934D01*
X114739312Y-76611009D01*
X114736949Y-76635000D01*
X114739312Y-76658991D01*
X114746312Y-76682066D01*
X114757677Y-76703330D01*
X114772972Y-76721967D01*
X114791609Y-76737262D01*
X114807631Y-76745825D01*
X114808687Y-76747524D01*
X114807744Y-76749287D01*
X114805923Y-76749437D01*
X114794365Y-76744650D01*
X114688808Y-76723653D01*
X114581192Y-76723653D01*
X114475635Y-76744650D01*
X114464077Y-76749437D01*
X114462094Y-76749176D01*
X114461329Y-76747328D01*
X114462369Y-76745825D01*
X114478391Y-76737262D01*
X114497028Y-76721967D01*
X114512323Y-76703330D01*
X114523688Y-76682066D01*
X114530688Y-76658991D01*
X114533051Y-76635000D01*
X114530688Y-76611009D01*
X114523688Y-76587934D01*
X114512323Y-76566670D01*
X114497028Y-76548033D01*
X114478391Y-76532738D01*
X114462369Y-76524175D01*
X114461313Y-76522476D01*
X114462256Y-76520713D01*
X114464077Y-76520563D01*
X114475635Y-76525350D01*
X114581192Y-76546347D01*
X114688808Y-76546347D01*
X114794365Y-76525350D01*
X114805923Y-76520563D01*
X114807906Y-76520824D01*
G37*
G36*
X113537906Y-76520824D02*
G01*
X113538671Y-76522672D01*
X113537631Y-76524175D01*
X113521609Y-76532738D01*
X113502972Y-76548033D01*
X113487677Y-76566670D01*
X113476312Y-76587934D01*
X113469312Y-76611009D01*
X113466949Y-76635000D01*
X113469312Y-76658991D01*
X113476312Y-76682066D01*
X113487677Y-76703330D01*
X113502972Y-76721967D01*
X113521609Y-76737262D01*
X113537631Y-76745825D01*
X113538687Y-76747524D01*
X113537744Y-76749287D01*
X113535923Y-76749437D01*
X113524365Y-76744650D01*
X113418808Y-76723653D01*
X113311192Y-76723653D01*
X113205635Y-76744650D01*
X113194077Y-76749437D01*
X113192094Y-76749176D01*
X113191329Y-76747328D01*
X113192369Y-76745825D01*
X113208391Y-76737262D01*
X113227028Y-76721967D01*
X113242323Y-76703330D01*
X113253688Y-76682066D01*
X113260688Y-76658991D01*
X113263051Y-76635000D01*
X113260688Y-76611009D01*
X113253688Y-76587934D01*
X113242323Y-76566670D01*
X113227028Y-76548033D01*
X113208391Y-76532738D01*
X113192369Y-76524175D01*
X113191313Y-76522476D01*
X113192256Y-76520713D01*
X113194077Y-76520563D01*
X113205635Y-76525350D01*
X113311192Y-76546347D01*
X113418808Y-76546347D01*
X113524365Y-76525350D01*
X113535923Y-76520563D01*
X113537906Y-76520824D01*
G37*
G36*
X114114287Y-75827256D02*
G01*
X114114437Y-75829077D01*
X114109650Y-75840635D01*
X114088653Y-75946192D01*
X114088653Y-76053808D01*
X114109650Y-76159365D01*
X114114437Y-76170923D01*
X114114176Y-76172906D01*
X114112328Y-76173671D01*
X114110825Y-76172631D01*
X114102262Y-76156609D01*
X114086967Y-76137972D01*
X114068330Y-76122677D01*
X114047066Y-76111312D01*
X114023991Y-76104312D01*
X114000000Y-76101949D01*
X113976009Y-76104312D01*
X113952934Y-76111312D01*
X113931670Y-76122677D01*
X113913033Y-76137972D01*
X113897738Y-76156609D01*
X113889175Y-76172631D01*
X113887476Y-76173687D01*
X113885713Y-76172744D01*
X113885563Y-76170923D01*
X113890350Y-76159365D01*
X113911347Y-76053808D01*
X113911347Y-75946192D01*
X113890350Y-75840635D01*
X113885563Y-75829077D01*
X113885824Y-75827094D01*
X113887672Y-75826329D01*
X113889175Y-75827369D01*
X113897738Y-75843391D01*
X113913033Y-75862028D01*
X113931670Y-75877323D01*
X113952934Y-75888688D01*
X113976009Y-75895688D01*
X114000000Y-75898051D01*
X114023991Y-75895688D01*
X114047066Y-75888688D01*
X114068330Y-75877323D01*
X114086967Y-75862028D01*
X114102262Y-75843391D01*
X114110825Y-75827369D01*
X114112524Y-75826313D01*
X114114287Y-75827256D01*
G37*
G36*
X113537906Y-75250824D02*
G01*
X113538671Y-75252672D01*
X113537631Y-75254175D01*
X113521609Y-75262738D01*
X113502972Y-75278033D01*
X113487677Y-75296670D01*
X113476312Y-75317934D01*
X113469312Y-75341009D01*
X113466949Y-75365000D01*
X113469312Y-75388991D01*
X113476312Y-75412066D01*
X113487677Y-75433330D01*
X113502972Y-75451967D01*
X113521609Y-75467262D01*
X113537631Y-75475825D01*
X113538687Y-75477524D01*
X113537744Y-75479287D01*
X113535923Y-75479437D01*
X113524365Y-75474650D01*
X113418808Y-75453653D01*
X113311192Y-75453653D01*
X113205635Y-75474650D01*
X113194077Y-75479437D01*
X113192094Y-75479176D01*
X113191329Y-75477328D01*
X113192369Y-75475825D01*
X113208391Y-75467262D01*
X113227028Y-75451967D01*
X113242323Y-75433330D01*
X113253688Y-75412066D01*
X113260688Y-75388991D01*
X113263051Y-75365000D01*
X113260688Y-75341009D01*
X113253688Y-75317934D01*
X113242323Y-75296670D01*
X113227028Y-75278033D01*
X113208391Y-75262738D01*
X113192369Y-75254175D01*
X113191313Y-75252476D01*
X113192256Y-75250713D01*
X113194077Y-75250563D01*
X113205635Y-75255350D01*
X113311192Y-75276347D01*
X113418808Y-75276347D01*
X113524365Y-75255350D01*
X113535923Y-75250563D01*
X113537906Y-75250824D01*
G37*
G36*
X114807906Y-75250824D02*
G01*
X114808671Y-75252672D01*
X114807631Y-75254175D01*
X114791609Y-75262738D01*
X114772972Y-75278033D01*
X114757677Y-75296670D01*
X114746312Y-75317934D01*
X114739312Y-75341009D01*
X114736949Y-75365000D01*
X114739312Y-75388991D01*
X114746312Y-75412066D01*
X114757677Y-75433330D01*
X114772972Y-75451967D01*
X114791609Y-75467262D01*
X114807631Y-75475825D01*
X114808687Y-75477524D01*
X114807744Y-75479287D01*
X114805923Y-75479437D01*
X114794365Y-75474650D01*
X114688808Y-75453653D01*
X114581192Y-75453653D01*
X114475635Y-75474650D01*
X114464077Y-75479437D01*
X114462094Y-75479176D01*
X114461329Y-75477328D01*
X114462369Y-75475825D01*
X114478391Y-75467262D01*
X114497028Y-75451967D01*
X114512323Y-75433330D01*
X114523688Y-75412066D01*
X114530688Y-75388991D01*
X114533051Y-75365000D01*
X114530688Y-75341009D01*
X114523688Y-75317934D01*
X114512323Y-75296670D01*
X114497028Y-75278033D01*
X114478391Y-75262738D01*
X114462369Y-75254175D01*
X114461313Y-75252476D01*
X114462256Y-75250713D01*
X114464077Y-75250563D01*
X114475635Y-75255350D01*
X114581192Y-75276347D01*
X114688808Y-75276347D01*
X114794365Y-75255350D01*
X114805923Y-75250563D01*
X114807906Y-75250824D01*
G37*
G36*
X114114287Y-74557256D02*
G01*
X114114437Y-74559077D01*
X114109650Y-74570635D01*
X114088653Y-74676192D01*
X114088653Y-74783808D01*
X114109650Y-74889365D01*
X114114437Y-74900923D01*
X114114176Y-74902906D01*
X114112328Y-74903671D01*
X114110825Y-74902631D01*
X114102262Y-74886609D01*
X114086967Y-74867972D01*
X114068330Y-74852677D01*
X114047066Y-74841312D01*
X114023991Y-74834312D01*
X114000000Y-74831949D01*
X113976009Y-74834312D01*
X113952934Y-74841312D01*
X113931670Y-74852677D01*
X113913033Y-74867972D01*
X113897738Y-74886609D01*
X113889175Y-74902631D01*
X113887476Y-74903687D01*
X113885713Y-74902744D01*
X113885563Y-74900923D01*
X113890350Y-74889365D01*
X113911347Y-74783808D01*
X113911347Y-74676192D01*
X113890350Y-74570635D01*
X113885563Y-74559077D01*
X113885824Y-74557094D01*
X113887672Y-74556329D01*
X113889175Y-74557369D01*
X113897738Y-74573391D01*
X113913033Y-74592028D01*
X113931670Y-74607323D01*
X113952934Y-74618688D01*
X113976009Y-74625688D01*
X114000000Y-74628051D01*
X114023991Y-74625688D01*
X114047066Y-74618688D01*
X114068330Y-74607323D01*
X114086967Y-74592028D01*
X114102262Y-74573391D01*
X114110825Y-74557369D01*
X114112524Y-74556313D01*
X114114287Y-74557256D01*
G37*
G36*
X113537906Y-73980824D02*
G01*
X113538671Y-73982672D01*
X113537631Y-73984175D01*
X113521609Y-73992738D01*
X113502972Y-74008033D01*
X113487677Y-74026670D01*
X113476312Y-74047934D01*
X113469312Y-74071009D01*
X113466949Y-74095000D01*
X113469312Y-74118991D01*
X113476312Y-74142066D01*
X113487677Y-74163330D01*
X113502972Y-74181967D01*
X113521609Y-74197262D01*
X113537631Y-74205825D01*
X113538687Y-74207524D01*
X113537744Y-74209287D01*
X113535923Y-74209437D01*
X113524365Y-74204650D01*
X113418808Y-74183653D01*
X113311192Y-74183653D01*
X113205635Y-74204650D01*
X113194077Y-74209437D01*
X113192094Y-74209176D01*
X113191329Y-74207328D01*
X113192369Y-74205825D01*
X113208391Y-74197262D01*
X113227028Y-74181967D01*
X113242323Y-74163330D01*
X113253688Y-74142066D01*
X113260688Y-74118991D01*
X113263051Y-74095000D01*
X113260688Y-74071009D01*
X113253688Y-74047934D01*
X113242323Y-74026670D01*
X113227028Y-74008033D01*
X113208391Y-73992738D01*
X113192369Y-73984175D01*
X113191313Y-73982476D01*
X113192256Y-73980713D01*
X113194077Y-73980563D01*
X113205635Y-73985350D01*
X113311192Y-74006347D01*
X113418808Y-74006347D01*
X113524365Y-73985350D01*
X113535923Y-73980563D01*
X113537906Y-73980824D01*
G37*
G36*
X114807906Y-73980824D02*
G01*
X114808671Y-73982672D01*
X114807631Y-73984175D01*
X114791609Y-73992738D01*
X114772972Y-74008033D01*
X114757677Y-74026670D01*
X114746312Y-74047934D01*
X114739312Y-74071009D01*
X114736949Y-74095000D01*
X114739312Y-74118991D01*
X114746312Y-74142066D01*
X114757677Y-74163330D01*
X114772972Y-74181967D01*
X114791609Y-74197262D01*
X114807631Y-74205825D01*
X114808687Y-74207524D01*
X114807744Y-74209287D01*
X114805923Y-74209437D01*
X114794365Y-74204650D01*
X114688808Y-74183653D01*
X114581192Y-74183653D01*
X114475635Y-74204650D01*
X114464077Y-74209437D01*
X114462094Y-74209176D01*
X114461329Y-74207328D01*
X114462369Y-74205825D01*
X114478391Y-74197262D01*
X114497028Y-74181967D01*
X114512323Y-74163330D01*
X114523688Y-74142066D01*
X114530688Y-74118991D01*
X114533051Y-74095000D01*
X114530688Y-74071009D01*
X114523688Y-74047934D01*
X114512323Y-74026670D01*
X114497028Y-74008033D01*
X114478391Y-73992738D01*
X114462369Y-73984175D01*
X114461313Y-73982476D01*
X114462256Y-73980713D01*
X114464077Y-73980563D01*
X114475635Y-73985350D01*
X114581192Y-74006347D01*
X114688808Y-74006347D01*
X114794365Y-73985350D01*
X114805923Y-73980563D01*
X114807906Y-73980824D01*
G37*
G36*
X114114287Y-73287256D02*
G01*
X114114437Y-73289077D01*
X114109650Y-73300635D01*
X114088653Y-73406192D01*
X114088653Y-73513808D01*
X114109650Y-73619365D01*
X114114437Y-73630923D01*
X114114176Y-73632906D01*
X114112328Y-73633671D01*
X114110825Y-73632631D01*
X114102262Y-73616609D01*
X114086967Y-73597972D01*
X114068330Y-73582677D01*
X114047066Y-73571312D01*
X114023991Y-73564312D01*
X114000000Y-73561949D01*
X113976009Y-73564312D01*
X113952934Y-73571312D01*
X113931670Y-73582677D01*
X113913033Y-73597972D01*
X113897738Y-73616609D01*
X113889175Y-73632631D01*
X113887476Y-73633687D01*
X113885713Y-73632744D01*
X113885563Y-73630923D01*
X113890350Y-73619365D01*
X113911347Y-73513808D01*
X113911347Y-73406192D01*
X113890350Y-73300635D01*
X113885563Y-73289077D01*
X113885824Y-73287094D01*
X113887672Y-73286329D01*
X113889175Y-73287369D01*
X113897738Y-73303391D01*
X113913033Y-73322028D01*
X113931670Y-73337323D01*
X113952934Y-73348688D01*
X113976009Y-73355688D01*
X114000000Y-73358051D01*
X114023991Y-73355688D01*
X114047066Y-73348688D01*
X114068330Y-73337323D01*
X114086967Y-73322028D01*
X114102262Y-73303391D01*
X114110825Y-73287369D01*
X114112524Y-73286313D01*
X114114287Y-73287256D01*
G37*
G36*
X109259581Y-66018316D02*
G01*
X109259581Y-66020316D01*
X108990451Y-66486464D01*
X108990345Y-66486629D01*
X108963803Y-66523667D01*
X108963544Y-66523962D01*
X108934801Y-66550883D01*
X108934490Y-66551121D01*
X108901046Y-66571918D01*
X108900694Y-66572092D01*
X108863825Y-66585968D01*
X108863447Y-66586069D01*
X108824591Y-66592484D01*
X108824200Y-66592510D01*
X108784836Y-66591222D01*
X108784447Y-66591171D01*
X108746087Y-66582226D01*
X108745716Y-66582100D01*
X108704217Y-66563297D01*
X108704042Y-66563207D01*
X108648182Y-66530956D01*
X108647182Y-66529224D01*
X108648182Y-66527492D01*
X108650007Y-66527402D01*
X108698421Y-66549339D01*
X108750000Y-66561365D01*
X108802934Y-66563098D01*
X108855185Y-66554471D01*
X108904755Y-66535815D01*
X108949726Y-66507850D01*
X108988381Y-66471645D01*
X109019290Y-66428512D01*
X109256117Y-66018316D01*
X109257849Y-66017316D01*
X109259581Y-66018316D01*
G37*
G36*
X107726771Y-65669220D02*
G01*
X107726771Y-65671220D01*
X107721983Y-65679514D01*
X107700084Y-65727844D01*
X107688058Y-65779423D01*
X107686325Y-65832357D01*
X107694952Y-65884608D01*
X107713608Y-65934178D01*
X107741573Y-65979149D01*
X107777777Y-66017804D01*
X107820911Y-66048713D01*
X108235500Y-66288076D01*
X108236500Y-66289808D01*
X108235500Y-66291540D01*
X108233500Y-66291540D01*
X107762958Y-66019873D01*
X107762793Y-66019767D01*
X107725757Y-65993227D01*
X107725462Y-65992968D01*
X107698539Y-65964223D01*
X107698301Y-65963912D01*
X107677504Y-65930468D01*
X107677330Y-65930116D01*
X107663454Y-65893247D01*
X107663353Y-65892869D01*
X107656938Y-65854013D01*
X107656912Y-65853622D01*
X107658200Y-65814258D01*
X107658251Y-65813869D01*
X107667196Y-65775508D01*
X107667322Y-65775137D01*
X107686123Y-65733643D01*
X107686213Y-65733468D01*
X107723307Y-65669220D01*
X107725039Y-65668220D01*
X107726771Y-65669220D01*
G37*
G36*
X109332042Y-65475479D02*
G01*
X109332207Y-65475585D01*
X109369243Y-65502125D01*
X109369538Y-65502384D01*
X109396461Y-65531129D01*
X109396699Y-65531440D01*
X109417496Y-65564884D01*
X109417670Y-65565236D01*
X109431546Y-65602105D01*
X109431647Y-65602483D01*
X109438062Y-65641339D01*
X109438088Y-65641730D01*
X109436800Y-65681094D01*
X109436749Y-65681483D01*
X109427804Y-65719844D01*
X109427678Y-65720215D01*
X109408877Y-65761709D01*
X109408787Y-65761884D01*
X109355207Y-65854687D01*
X109353475Y-65855687D01*
X109351743Y-65854687D01*
X109351743Y-65852687D01*
X109373017Y-65815838D01*
X109394916Y-65767508D01*
X109406942Y-65715929D01*
X109408675Y-65662995D01*
X109400048Y-65610744D01*
X109381392Y-65561174D01*
X109353427Y-65516203D01*
X109317223Y-65477548D01*
X109274089Y-65446639D01*
X108763977Y-65152126D01*
X108762977Y-65150394D01*
X108763977Y-65148662D01*
X108765977Y-65148662D01*
X109332042Y-65475479D01*
G37*
G36*
X147003883Y-65118316D02*
G01*
X147240710Y-65528512D01*
X147271619Y-65571646D01*
X147310274Y-65607850D01*
X147355245Y-65635815D01*
X147404815Y-65654471D01*
X147457066Y-65663098D01*
X147510000Y-65661365D01*
X147561579Y-65649339D01*
X147609993Y-65627402D01*
X147611983Y-65627598D01*
X147612808Y-65629420D01*
X147611818Y-65630956D01*
X147555958Y-65663207D01*
X147555783Y-65663297D01*
X147514284Y-65682100D01*
X147513913Y-65682226D01*
X147475553Y-65691171D01*
X147475164Y-65691222D01*
X147435800Y-65692510D01*
X147435409Y-65692484D01*
X147396553Y-65686069D01*
X147396175Y-65685968D01*
X147359306Y-65672092D01*
X147358954Y-65671918D01*
X147325510Y-65651121D01*
X147325199Y-65650883D01*
X147296456Y-65623962D01*
X147296197Y-65623667D01*
X147269655Y-65586629D01*
X147269549Y-65586464D01*
X147000419Y-65120316D01*
X147000419Y-65118316D01*
X147002151Y-65117316D01*
X147003883Y-65118316D01*
G37*
G36*
X108310164Y-64904130D02*
G01*
X108310553Y-64904181D01*
X108348913Y-64913126D01*
X108349284Y-64913252D01*
X108390783Y-64932055D01*
X108390958Y-64932145D01*
X108446818Y-64964396D01*
X108447818Y-64966128D01*
X108446818Y-64967860D01*
X108444993Y-64967950D01*
X108396579Y-64946013D01*
X108345000Y-64933987D01*
X108292066Y-64932254D01*
X108239815Y-64940881D01*
X108190245Y-64959537D01*
X108145274Y-64987502D01*
X108106619Y-65023707D01*
X108075710Y-65066840D01*
X107838883Y-65477036D01*
X107837151Y-65478036D01*
X107835419Y-65477036D01*
X107835419Y-65475036D01*
X108104549Y-65008888D01*
X108104655Y-65008723D01*
X108131197Y-64971685D01*
X108131456Y-64971390D01*
X108160199Y-64944469D01*
X108160510Y-64944231D01*
X108193954Y-64923434D01*
X108194306Y-64923260D01*
X108231175Y-64909384D01*
X108231553Y-64909283D01*
X108270409Y-64902868D01*
X108270800Y-64902842D01*
X108310164Y-64904130D01*
G37*
G36*
X148532101Y-64761266D02*
G01*
X148573787Y-64833468D01*
X148573877Y-64833643D01*
X148592678Y-64875137D01*
X148592804Y-64875508D01*
X148601749Y-64913869D01*
X148601800Y-64914258D01*
X148603088Y-64953622D01*
X148603062Y-64954013D01*
X148596647Y-64992869D01*
X148596546Y-64993247D01*
X148582670Y-65030116D01*
X148582496Y-65030468D01*
X148561699Y-65063912D01*
X148561461Y-65064223D01*
X148534538Y-65092968D01*
X148534243Y-65093227D01*
X148497207Y-65119767D01*
X148497042Y-65119873D01*
X148026500Y-65391540D01*
X148024500Y-65391540D01*
X148023500Y-65389808D01*
X148024500Y-65388076D01*
X148439089Y-65148713D01*
X148482222Y-65117804D01*
X148518427Y-65079149D01*
X148546392Y-65034178D01*
X148565048Y-64984608D01*
X148573675Y-64932357D01*
X148571942Y-64879423D01*
X148559916Y-64827844D01*
X148538017Y-64779514D01*
X148528637Y-64763266D01*
X148528637Y-64761266D01*
X148530369Y-64760266D01*
X148532101Y-64761266D01*
G37*
G36*
X147454331Y-64275042D02*
G01*
X147453331Y-64276774D01*
X146985911Y-64546639D01*
X146942778Y-64577548D01*
X146906573Y-64616203D01*
X146878608Y-64661174D01*
X146859952Y-64710744D01*
X146851325Y-64762995D01*
X146853058Y-64815929D01*
X146865084Y-64867508D01*
X146886983Y-64915838D01*
X146891771Y-64924132D01*
X146891771Y-64926132D01*
X146890039Y-64927132D01*
X146888307Y-64926132D01*
X146851213Y-64861884D01*
X146851123Y-64861709D01*
X146832322Y-64820215D01*
X146832196Y-64819844D01*
X146823251Y-64781483D01*
X146823200Y-64781094D01*
X146821912Y-64741730D01*
X146821938Y-64741339D01*
X146828353Y-64702483D01*
X146828454Y-64702105D01*
X146842330Y-64665236D01*
X146842504Y-64664884D01*
X146863301Y-64631440D01*
X146863539Y-64631129D01*
X146890462Y-64602384D01*
X146890757Y-64602125D01*
X146927793Y-64575585D01*
X146927958Y-64575479D01*
X147451331Y-64273310D01*
X147453331Y-64273310D01*
X147454331Y-64275042D01*
G37*
G36*
X110284581Y-64242964D02*
G01*
X110284581Y-64244964D01*
X110015451Y-64711112D01*
X110015345Y-64711277D01*
X109988803Y-64748315D01*
X109988544Y-64748610D01*
X109959801Y-64775531D01*
X109959490Y-64775769D01*
X109926046Y-64796566D01*
X109925694Y-64796740D01*
X109888825Y-64810616D01*
X109888447Y-64810717D01*
X109849591Y-64817132D01*
X109849200Y-64817158D01*
X109809836Y-64815870D01*
X109809447Y-64815819D01*
X109771087Y-64806874D01*
X109770716Y-64806748D01*
X109729217Y-64787945D01*
X109729042Y-64787855D01*
X109673182Y-64755604D01*
X109672182Y-64753872D01*
X109673182Y-64752140D01*
X109675007Y-64752050D01*
X109723421Y-64773987D01*
X109775000Y-64786013D01*
X109827934Y-64787746D01*
X109880185Y-64779119D01*
X109929755Y-64760463D01*
X109974726Y-64732498D01*
X110013381Y-64696293D01*
X110044290Y-64653160D01*
X110281117Y-64242964D01*
X110282849Y-64241964D01*
X110284581Y-64242964D01*
G37*
G36*
X147989591Y-64002868D02*
G01*
X148028447Y-64009283D01*
X148028825Y-64009384D01*
X148065694Y-64023260D01*
X148066046Y-64023434D01*
X148099490Y-64044231D01*
X148099801Y-64044469D01*
X148128544Y-64071390D01*
X148128803Y-64071685D01*
X148155345Y-64108723D01*
X148155451Y-64108888D01*
X148424581Y-64575036D01*
X148424581Y-64577036D01*
X148422849Y-64578036D01*
X148421117Y-64577036D01*
X148184290Y-64166840D01*
X148153381Y-64123706D01*
X148114726Y-64087502D01*
X148069755Y-64059537D01*
X148020185Y-64040881D01*
X147967934Y-64032254D01*
X147915000Y-64033987D01*
X147863421Y-64046013D01*
X147815007Y-64067950D01*
X147813017Y-64067754D01*
X147812192Y-64065932D01*
X147813182Y-64064396D01*
X147869042Y-64032145D01*
X147869217Y-64032055D01*
X147910716Y-64013252D01*
X147911087Y-64013126D01*
X147949447Y-64004181D01*
X147949836Y-64004130D01*
X147989200Y-64002842D01*
X147989591Y-64002868D01*
G37*
G36*
X108751771Y-63893868D02*
G01*
X108751771Y-63895868D01*
X108746983Y-63904162D01*
X108725084Y-63952492D01*
X108713058Y-64004071D01*
X108711325Y-64057005D01*
X108719952Y-64109256D01*
X108738608Y-64158826D01*
X108766573Y-64203797D01*
X108802777Y-64242452D01*
X108845911Y-64273361D01*
X109260500Y-64512724D01*
X109261500Y-64514456D01*
X109260500Y-64516188D01*
X109258500Y-64516188D01*
X108787958Y-64244521D01*
X108787793Y-64244415D01*
X108750757Y-64217875D01*
X108750462Y-64217616D01*
X108723539Y-64188871D01*
X108723301Y-64188560D01*
X108702504Y-64155116D01*
X108702330Y-64154764D01*
X108688454Y-64117895D01*
X108688353Y-64117517D01*
X108681938Y-64078661D01*
X108681912Y-64078270D01*
X108683200Y-64038906D01*
X108683251Y-64038517D01*
X108692196Y-64000156D01*
X108692322Y-63999785D01*
X108711123Y-63958291D01*
X108711213Y-63958116D01*
X108748307Y-63893868D01*
X108750039Y-63892868D01*
X108751771Y-63893868D01*
G37*
G36*
X110357042Y-63700127D02*
G01*
X110357207Y-63700233D01*
X110394243Y-63726773D01*
X110394538Y-63727032D01*
X110421461Y-63755777D01*
X110421699Y-63756088D01*
X110442496Y-63789532D01*
X110442670Y-63789884D01*
X110456546Y-63826753D01*
X110456647Y-63827131D01*
X110463062Y-63865987D01*
X110463088Y-63866378D01*
X110461800Y-63905742D01*
X110461749Y-63906131D01*
X110452804Y-63944492D01*
X110452678Y-63944863D01*
X110433877Y-63986357D01*
X110433787Y-63986532D01*
X110392101Y-64058734D01*
X110390369Y-64059734D01*
X110388637Y-64058734D01*
X110388637Y-64056734D01*
X110398017Y-64040486D01*
X110419916Y-63992156D01*
X110431942Y-63940577D01*
X110433675Y-63887643D01*
X110425048Y-63835392D01*
X110406392Y-63785822D01*
X110378427Y-63740851D01*
X110342223Y-63702196D01*
X110299089Y-63671287D01*
X109788977Y-63376774D01*
X109787977Y-63375042D01*
X109788977Y-63373310D01*
X109790977Y-63373310D01*
X110357042Y-63700127D01*
G37*
G36*
X145978883Y-63342964D02*
G01*
X146215710Y-63753160D01*
X146246619Y-63796294D01*
X146285274Y-63832498D01*
X146330245Y-63860463D01*
X146379815Y-63879119D01*
X146432066Y-63887746D01*
X146485000Y-63886013D01*
X146536579Y-63873987D01*
X146584993Y-63852050D01*
X146586983Y-63852246D01*
X146587808Y-63854068D01*
X146586818Y-63855604D01*
X146530958Y-63887855D01*
X146530783Y-63887945D01*
X146489284Y-63906748D01*
X146488913Y-63906874D01*
X146450553Y-63915819D01*
X146450164Y-63915870D01*
X146410800Y-63917158D01*
X146410409Y-63917132D01*
X146371553Y-63910717D01*
X146371175Y-63910616D01*
X146334306Y-63896740D01*
X146333954Y-63896566D01*
X146300510Y-63875769D01*
X146300199Y-63875531D01*
X146271456Y-63848610D01*
X146271197Y-63848315D01*
X146244655Y-63811277D01*
X146244549Y-63811112D01*
X145975419Y-63344964D01*
X145975419Y-63342964D01*
X145977151Y-63341964D01*
X145978883Y-63342964D01*
G37*
G36*
X109335164Y-63128778D02*
G01*
X109335553Y-63128829D01*
X109373913Y-63137774D01*
X109374284Y-63137900D01*
X109415783Y-63156703D01*
X109415958Y-63156793D01*
X109471818Y-63189044D01*
X109472818Y-63190776D01*
X109471818Y-63192508D01*
X109469993Y-63192598D01*
X109421579Y-63170661D01*
X109370000Y-63158635D01*
X109317066Y-63156902D01*
X109264815Y-63165529D01*
X109215245Y-63184185D01*
X109170274Y-63212150D01*
X109131619Y-63248355D01*
X109100710Y-63291488D01*
X108863883Y-63701684D01*
X108862151Y-63702684D01*
X108860419Y-63701684D01*
X108860419Y-63699684D01*
X109129549Y-63233536D01*
X109129655Y-63233371D01*
X109156197Y-63196333D01*
X109156456Y-63196038D01*
X109185199Y-63169117D01*
X109185510Y-63168879D01*
X109218954Y-63148082D01*
X109219306Y-63147908D01*
X109256175Y-63134032D01*
X109256553Y-63133931D01*
X109295409Y-63127516D01*
X109295800Y-63127490D01*
X109335164Y-63128778D01*
G37*
G36*
X147495207Y-62965313D02*
G01*
X147548787Y-63058116D01*
X147548877Y-63058291D01*
X147567678Y-63099785D01*
X147567804Y-63100156D01*
X147576749Y-63138517D01*
X147576800Y-63138906D01*
X147578088Y-63178270D01*
X147578062Y-63178661D01*
X147571647Y-63217517D01*
X147571546Y-63217895D01*
X147557670Y-63254764D01*
X147557496Y-63255116D01*
X147536699Y-63288560D01*
X147536461Y-63288871D01*
X147509538Y-63317616D01*
X147509243Y-63317875D01*
X147472207Y-63344415D01*
X147472042Y-63344521D01*
X147001500Y-63616188D01*
X146999500Y-63616188D01*
X146998500Y-63614456D01*
X146999500Y-63612724D01*
X147414089Y-63373361D01*
X147457222Y-63342452D01*
X147493427Y-63303797D01*
X147521392Y-63258826D01*
X147540048Y-63209256D01*
X147548675Y-63157005D01*
X147546942Y-63104071D01*
X147534916Y-63052492D01*
X147513017Y-63004162D01*
X147491743Y-62967313D01*
X147491743Y-62965313D01*
X147493475Y-62964313D01*
X147495207Y-62965313D01*
G37*
G36*
X146435203Y-62496300D02*
G01*
X146434203Y-62498032D01*
X145960911Y-62771287D01*
X145917778Y-62802196D01*
X145881573Y-62840851D01*
X145853608Y-62885822D01*
X145834952Y-62935392D01*
X145826325Y-62987643D01*
X145828058Y-63040577D01*
X145840084Y-63092156D01*
X145861983Y-63140486D01*
X145866771Y-63148780D01*
X145866771Y-63150780D01*
X145865039Y-63151780D01*
X145863307Y-63150780D01*
X145826213Y-63086532D01*
X145826123Y-63086357D01*
X145807322Y-63044863D01*
X145807196Y-63044492D01*
X145798251Y-63006131D01*
X145798200Y-63005742D01*
X145796912Y-62966378D01*
X145796938Y-62965987D01*
X145803353Y-62927131D01*
X145803454Y-62926753D01*
X145817330Y-62889884D01*
X145817504Y-62889532D01*
X145838301Y-62856088D01*
X145838539Y-62855777D01*
X145865462Y-62827032D01*
X145865757Y-62826773D01*
X145902793Y-62800233D01*
X145902958Y-62800127D01*
X146432203Y-62494568D01*
X146434203Y-62494568D01*
X146435203Y-62496300D01*
G37*
G36*
X146964591Y-62227516D02*
G01*
X147003447Y-62233931D01*
X147003825Y-62234032D01*
X147040694Y-62247908D01*
X147041046Y-62248082D01*
X147074490Y-62268879D01*
X147074801Y-62269117D01*
X147103544Y-62296038D01*
X147103803Y-62296333D01*
X147130345Y-62333371D01*
X147130451Y-62333536D01*
X147399581Y-62799684D01*
X147399581Y-62801684D01*
X147397849Y-62802684D01*
X147396117Y-62801684D01*
X147159290Y-62391488D01*
X147128381Y-62348354D01*
X147089726Y-62312150D01*
X147044755Y-62284185D01*
X146995185Y-62265529D01*
X146942934Y-62256902D01*
X146890000Y-62258635D01*
X146838421Y-62270661D01*
X146790007Y-62292598D01*
X146788017Y-62292402D01*
X146787192Y-62290580D01*
X146788182Y-62289044D01*
X146844042Y-62256793D01*
X146844217Y-62256703D01*
X146885716Y-62237900D01*
X146886087Y-62237774D01*
X146924447Y-62228829D01*
X146924836Y-62228778D01*
X146964200Y-62227490D01*
X146964591Y-62227516D01*
G37*
M02*
