G04 #@! TF.GenerationSoftware,KiCad,Pcbnew,(5.1.8-0-10_14)*
G04 #@! TF.CreationDate,2021-02-03T00:58:45+08:00*
G04 #@! TF.ProjectId,mops-out,6d6f7073-2d6f-4757-942e-6b696361645f,rev?*
G04 #@! TF.SameCoordinates,Original*
G04 #@! TF.FileFunction,Paste,Top*
G04 #@! TF.FilePolarity,Positive*
%FSLAX46Y46*%
G04 Gerber Fmt 4.6, Leading zero omitted, Abs format (unit mm)*
G04 Created by KiCad (PCBNEW (5.1.8-0-10_14)) date 2021-02-03 00:58:45*
%MOMM*%
%LPD*%
G01*
G04 APERTURE LIST*
%ADD10R,0.450000X1.300000*%
%ADD11R,0.800000X0.900000*%
%ADD12R,2.599995X1.899996*%
%ADD13R,1.399997X0.599999*%
%ADD14R,0.650000X1.060000*%
%ADD15R,1.560000X0.650000*%
%ADD16R,8.400034X3.499866*%
%ADD17R,1.999996X0.800100*%
%ADD18R,3.999992X0.800100*%
%ADD19R,1.299997X0.899998*%
%ADD20R,0.750011X1.799996*%
%ADD21R,0.599948X1.799996*%
G04 APERTURE END LIST*
D10*
X136100000Y-52100000D03*
X136750000Y-52100000D03*
X137400000Y-52100000D03*
X138050000Y-52100000D03*
X138700000Y-52100000D03*
G36*
G01*
X124385000Y-65237500D02*
X124385000Y-64762500D01*
G75*
G02*
X124622500Y-64525000I237500J0D01*
G01*
X125122500Y-64525000D01*
G75*
G02*
X125360000Y-64762500I0J-237500D01*
G01*
X125360000Y-65237500D01*
G75*
G02*
X125122500Y-65475000I-237500J0D01*
G01*
X124622500Y-65475000D01*
G75*
G02*
X124385000Y-65237500I0J237500D01*
G01*
G37*
G36*
G01*
X122560000Y-65237500D02*
X122560000Y-64762500D01*
G75*
G02*
X122797500Y-64525000I237500J0D01*
G01*
X123297500Y-64525000D01*
G75*
G02*
X123535000Y-64762500I0J-237500D01*
G01*
X123535000Y-65237500D01*
G75*
G02*
X123297500Y-65475000I-237500J0D01*
G01*
X122797500Y-65475000D01*
G75*
G02*
X122560000Y-65237500I0J237500D01*
G01*
G37*
G36*
G01*
X142705000Y-67857500D02*
X142705000Y-67382500D01*
G75*
G02*
X142942500Y-67145000I237500J0D01*
G01*
X143442500Y-67145000D01*
G75*
G02*
X143680000Y-67382500I0J-237500D01*
G01*
X143680000Y-67857500D01*
G75*
G02*
X143442500Y-68095000I-237500J0D01*
G01*
X142942500Y-68095000D01*
G75*
G02*
X142705000Y-67857500I0J237500D01*
G01*
G37*
G36*
G01*
X140880000Y-67857500D02*
X140880000Y-67382500D01*
G75*
G02*
X141117500Y-67145000I237500J0D01*
G01*
X141617500Y-67145000D01*
G75*
G02*
X141855000Y-67382500I0J-237500D01*
G01*
X141855000Y-67857500D01*
G75*
G02*
X141617500Y-68095000I-237500J0D01*
G01*
X141117500Y-68095000D01*
G75*
G02*
X140880000Y-67857500I0J237500D01*
G01*
G37*
G36*
G01*
X147762500Y-79105000D02*
X148237500Y-79105000D01*
G75*
G02*
X148475000Y-79342500I0J-237500D01*
G01*
X148475000Y-79842500D01*
G75*
G02*
X148237500Y-80080000I-237500J0D01*
G01*
X147762500Y-80080000D01*
G75*
G02*
X147525000Y-79842500I0J237500D01*
G01*
X147525000Y-79342500D01*
G75*
G02*
X147762500Y-79105000I237500J0D01*
G01*
G37*
G36*
G01*
X147762500Y-77280000D02*
X148237500Y-77280000D01*
G75*
G02*
X148475000Y-77517500I0J-237500D01*
G01*
X148475000Y-78017500D01*
G75*
G02*
X148237500Y-78255000I-237500J0D01*
G01*
X147762500Y-78255000D01*
G75*
G02*
X147525000Y-78017500I0J237500D01*
G01*
X147525000Y-77517500D01*
G75*
G02*
X147762500Y-77280000I237500J0D01*
G01*
G37*
G36*
G01*
X128990000Y-50120000D02*
X128670000Y-50120000D01*
G75*
G02*
X128510000Y-49960000I0J160000D01*
G01*
X128510000Y-49565000D01*
G75*
G02*
X128670000Y-49405000I160000J0D01*
G01*
X128990000Y-49405000D01*
G75*
G02*
X129150000Y-49565000I0J-160000D01*
G01*
X129150000Y-49960000D01*
G75*
G02*
X128990000Y-50120000I-160000J0D01*
G01*
G37*
G36*
G01*
X128990000Y-51315000D02*
X128670000Y-51315000D01*
G75*
G02*
X128510000Y-51155000I0J160000D01*
G01*
X128510000Y-50760000D01*
G75*
G02*
X128670000Y-50600000I160000J0D01*
G01*
X128990000Y-50600000D01*
G75*
G02*
X129150000Y-50760000I0J-160000D01*
G01*
X129150000Y-51155000D01*
G75*
G02*
X128990000Y-51315000I-160000J0D01*
G01*
G37*
G36*
G01*
X126210000Y-52130000D02*
X126210000Y-52450000D01*
G75*
G02*
X126050000Y-52610000I-160000J0D01*
G01*
X125655000Y-52610000D01*
G75*
G02*
X125495000Y-52450000I0J160000D01*
G01*
X125495000Y-52130000D01*
G75*
G02*
X125655000Y-51970000I160000J0D01*
G01*
X126050000Y-51970000D01*
G75*
G02*
X126210000Y-52130000I0J-160000D01*
G01*
G37*
G36*
G01*
X127405000Y-52130000D02*
X127405000Y-52450000D01*
G75*
G02*
X127245000Y-52610000I-160000J0D01*
G01*
X126850000Y-52610000D01*
G75*
G02*
X126690000Y-52450000I0J160000D01*
G01*
X126690000Y-52130000D01*
G75*
G02*
X126850000Y-51970000I160000J0D01*
G01*
X127245000Y-51970000D01*
G75*
G02*
X127405000Y-52130000I0J-160000D01*
G01*
G37*
G36*
G01*
X126920000Y-50630000D02*
X127240000Y-50630000D01*
G75*
G02*
X127400000Y-50790000I0J-160000D01*
G01*
X127400000Y-51185000D01*
G75*
G02*
X127240000Y-51345000I-160000J0D01*
G01*
X126920000Y-51345000D01*
G75*
G02*
X126760000Y-51185000I0J160000D01*
G01*
X126760000Y-50790000D01*
G75*
G02*
X126920000Y-50630000I160000J0D01*
G01*
G37*
G36*
G01*
X126920000Y-49435000D02*
X127240000Y-49435000D01*
G75*
G02*
X127400000Y-49595000I0J-160000D01*
G01*
X127400000Y-49990000D01*
G75*
G02*
X127240000Y-50150000I-160000J0D01*
G01*
X126920000Y-50150000D01*
G75*
G02*
X126760000Y-49990000I0J160000D01*
G01*
X126760000Y-49595000D01*
G75*
G02*
X126920000Y-49435000I160000J0D01*
G01*
G37*
D11*
X124890000Y-66710000D03*
X125840000Y-68710000D03*
X123940000Y-68710000D03*
G36*
G01*
X129650000Y-47662500D02*
X129650000Y-48137500D01*
G75*
G02*
X129412500Y-48375000I-237500J0D01*
G01*
X128837500Y-48375000D01*
G75*
G02*
X128600000Y-48137500I0J237500D01*
G01*
X128600000Y-47662500D01*
G75*
G02*
X128837500Y-47425000I237500J0D01*
G01*
X129412500Y-47425000D01*
G75*
G02*
X129650000Y-47662500I0J-237500D01*
G01*
G37*
G36*
G01*
X131400000Y-47662500D02*
X131400000Y-48137500D01*
G75*
G02*
X131162500Y-48375000I-237500J0D01*
G01*
X130587500Y-48375000D01*
G75*
G02*
X130350000Y-48137500I0J237500D01*
G01*
X130350000Y-47662500D01*
G75*
G02*
X130587500Y-47425000I237500J0D01*
G01*
X131162500Y-47425000D01*
G75*
G02*
X131400000Y-47662500I0J-237500D01*
G01*
G37*
G36*
G01*
X126350000Y-48137500D02*
X126350000Y-47662500D01*
G75*
G02*
X126587500Y-47425000I237500J0D01*
G01*
X127162500Y-47425000D01*
G75*
G02*
X127400000Y-47662500I0J-237500D01*
G01*
X127400000Y-48137500D01*
G75*
G02*
X127162500Y-48375000I-237500J0D01*
G01*
X126587500Y-48375000D01*
G75*
G02*
X126350000Y-48137500I0J237500D01*
G01*
G37*
G36*
G01*
X124600000Y-48137500D02*
X124600000Y-47662500D01*
G75*
G02*
X124837500Y-47425000I237500J0D01*
G01*
X125412500Y-47425000D01*
G75*
G02*
X125650000Y-47662500I0J-237500D01*
G01*
X125650000Y-48137500D01*
G75*
G02*
X125412500Y-48375000I-237500J0D01*
G01*
X124837500Y-48375000D01*
G75*
G02*
X124600000Y-48137500I0J237500D01*
G01*
G37*
G36*
G01*
X124055000Y-77147500D02*
X124055000Y-76672500D01*
G75*
G02*
X124292500Y-76435000I237500J0D01*
G01*
X124892500Y-76435000D01*
G75*
G02*
X125130000Y-76672500I0J-237500D01*
G01*
X125130000Y-77147500D01*
G75*
G02*
X124892500Y-77385000I-237500J0D01*
G01*
X124292500Y-77385000D01*
G75*
G02*
X124055000Y-77147500I0J237500D01*
G01*
G37*
G36*
G01*
X122330000Y-77147500D02*
X122330000Y-76672500D01*
G75*
G02*
X122567500Y-76435000I237500J0D01*
G01*
X123167500Y-76435000D01*
G75*
G02*
X123405000Y-76672500I0J-237500D01*
G01*
X123405000Y-77147500D01*
G75*
G02*
X123167500Y-77385000I-237500J0D01*
G01*
X122567500Y-77385000D01*
G75*
G02*
X122330000Y-77147500I0J237500D01*
G01*
G37*
G36*
G01*
X146465000Y-53127500D02*
X146465000Y-52652500D01*
G75*
G02*
X146702500Y-52415000I237500J0D01*
G01*
X147302500Y-52415000D01*
G75*
G02*
X147540000Y-52652500I0J-237500D01*
G01*
X147540000Y-53127500D01*
G75*
G02*
X147302500Y-53365000I-237500J0D01*
G01*
X146702500Y-53365000D01*
G75*
G02*
X146465000Y-53127500I0J237500D01*
G01*
G37*
G36*
G01*
X144740000Y-53127500D02*
X144740000Y-52652500D01*
G75*
G02*
X144977500Y-52415000I237500J0D01*
G01*
X145577500Y-52415000D01*
G75*
G02*
X145815000Y-52652500I0J-237500D01*
G01*
X145815000Y-53127500D01*
G75*
G02*
X145577500Y-53365000I-237500J0D01*
G01*
X144977500Y-53365000D01*
G75*
G02*
X144740000Y-53127500I0J237500D01*
G01*
G37*
G36*
G01*
X138277500Y-57385000D02*
X137802500Y-57385000D01*
G75*
G02*
X137565000Y-57147500I0J237500D01*
G01*
X137565000Y-56547500D01*
G75*
G02*
X137802500Y-56310000I237500J0D01*
G01*
X138277500Y-56310000D01*
G75*
G02*
X138515000Y-56547500I0J-237500D01*
G01*
X138515000Y-57147500D01*
G75*
G02*
X138277500Y-57385000I-237500J0D01*
G01*
G37*
G36*
G01*
X138277500Y-59110000D02*
X137802500Y-59110000D01*
G75*
G02*
X137565000Y-58872500I0J237500D01*
G01*
X137565000Y-58272500D01*
G75*
G02*
X137802500Y-58035000I237500J0D01*
G01*
X138277500Y-58035000D01*
G75*
G02*
X138515000Y-58272500I0J-237500D01*
G01*
X138515000Y-58872500D01*
G75*
G02*
X138277500Y-59110000I-237500J0D01*
G01*
G37*
G36*
G01*
X131587500Y-60925000D02*
X131587500Y-61235000D01*
G75*
G02*
X131432500Y-61390000I-155000J0D01*
G01*
X131007500Y-61390000D01*
G75*
G02*
X130852500Y-61235000I0J155000D01*
G01*
X130852500Y-60925000D01*
G75*
G02*
X131007500Y-60770000I155000J0D01*
G01*
X131432500Y-60770000D01*
G75*
G02*
X131587500Y-60925000I0J-155000D01*
G01*
G37*
G36*
G01*
X132722500Y-60925000D02*
X132722500Y-61235000D01*
G75*
G02*
X132567500Y-61390000I-155000J0D01*
G01*
X132142500Y-61390000D01*
G75*
G02*
X131987500Y-61235000I0J155000D01*
G01*
X131987500Y-60925000D01*
G75*
G02*
X132142500Y-60770000I155000J0D01*
G01*
X132567500Y-60770000D01*
G75*
G02*
X132722500Y-60925000I0J-155000D01*
G01*
G37*
G36*
G01*
X139622500Y-62385000D02*
X140097500Y-62385000D01*
G75*
G02*
X140335000Y-62622500I0J-237500D01*
G01*
X140335000Y-63222500D01*
G75*
G02*
X140097500Y-63460000I-237500J0D01*
G01*
X139622500Y-63460000D01*
G75*
G02*
X139385000Y-63222500I0J237500D01*
G01*
X139385000Y-62622500D01*
G75*
G02*
X139622500Y-62385000I237500J0D01*
G01*
G37*
G36*
G01*
X139622500Y-60660000D02*
X140097500Y-60660000D01*
G75*
G02*
X140335000Y-60897500I0J-237500D01*
G01*
X140335000Y-61497500D01*
G75*
G02*
X140097500Y-61735000I-237500J0D01*
G01*
X139622500Y-61735000D01*
G75*
G02*
X139385000Y-61497500I0J237500D01*
G01*
X139385000Y-60897500D01*
G75*
G02*
X139622500Y-60660000I237500J0D01*
G01*
G37*
G36*
G01*
X137785000Y-61970000D02*
X138095000Y-61970000D01*
G75*
G02*
X138250000Y-62125000I0J-155000D01*
G01*
X138250000Y-62550000D01*
G75*
G02*
X138095000Y-62705000I-155000J0D01*
G01*
X137785000Y-62705000D01*
G75*
G02*
X137630000Y-62550000I0J155000D01*
G01*
X137630000Y-62125000D01*
G75*
G02*
X137785000Y-61970000I155000J0D01*
G01*
G37*
G36*
G01*
X137785000Y-60835000D02*
X138095000Y-60835000D01*
G75*
G02*
X138250000Y-60990000I0J-155000D01*
G01*
X138250000Y-61415000D01*
G75*
G02*
X138095000Y-61570000I-155000J0D01*
G01*
X137785000Y-61570000D01*
G75*
G02*
X137630000Y-61415000I0J155000D01*
G01*
X137630000Y-60990000D01*
G75*
G02*
X137785000Y-60835000I155000J0D01*
G01*
G37*
D12*
X116318735Y-57944911D03*
X116318735Y-51694987D03*
D13*
X113701265Y-54195109D03*
X113701265Y-55445043D03*
D14*
X135880000Y-61130000D03*
X133980000Y-61130000D03*
X133980000Y-58930000D03*
X134930000Y-58930000D03*
X135880000Y-58930000D03*
D15*
X124150000Y-54520000D03*
X124150000Y-53570000D03*
X124150000Y-55470000D03*
X121450000Y-55470000D03*
X121450000Y-54520000D03*
X121450000Y-53570000D03*
D16*
X137400050Y-88465110D03*
D17*
X131800112Y-90214916D03*
D18*
X143949948Y-84215182D03*
X143949948Y-82315008D03*
X143949948Y-80415088D03*
X143949948Y-78515168D03*
X143949948Y-76614994D03*
X143949948Y-74715074D03*
D17*
X127949980Y-71775024D03*
X127949980Y-73484952D03*
X127949980Y-75195134D03*
X127949980Y-76905062D03*
X127949980Y-78614990D03*
X127949980Y-80325172D03*
X127949980Y-82035100D03*
X127949980Y-83745028D03*
X127949980Y-85454956D03*
X127949980Y-87165138D03*
D19*
X143096270Y-47559108D03*
X146903730Y-47559362D03*
D20*
X143784356Y-49640638D03*
D21*
X144985268Y-49640638D03*
D20*
X146186180Y-49640638D03*
M02*
