G04 #@! TF.GenerationSoftware,KiCad,Pcbnew,(5.1.10-1-10_14)*
G04 #@! TF.CreationDate,2021-06-27T23:26:48+08:00*
G04 #@! TF.ProjectId,mops-out,6d6f7073-2d6f-4757-942e-6b696361645f,rev?*
G04 #@! TF.SameCoordinates,Original*
G04 #@! TF.FileFunction,Copper,L2,Bot*
G04 #@! TF.FilePolarity,Positive*
%FSLAX46Y46*%
G04 Gerber Fmt 4.6, Leading zero omitted, Abs format (unit mm)*
G04 Created by KiCad (PCBNEW (5.1.10-1-10_14)) date 2021-06-27 23:26:48*
%MOMM*%
%LPD*%
G01*
G04 APERTURE LIST*
G04 #@! TA.AperFunction,ComponentPad*
%ADD10R,1.000000X1.000000*%
G04 #@! TD*
G04 #@! TA.AperFunction,ComponentPad*
%ADD11O,1.000000X1.000000*%
G04 #@! TD*
G04 #@! TA.AperFunction,ComponentPad*
%ADD12C,2.499995*%
G04 #@! TD*
G04 #@! TA.AperFunction,ComponentPad*
%ADD13O,4.999990X1.599997*%
G04 #@! TD*
G04 #@! TA.AperFunction,ComponentPad*
%ADD14O,1.000000X1.800000*%
G04 #@! TD*
G04 #@! TA.AperFunction,ComponentPad*
%ADD15O,1.000000X2.000000*%
G04 #@! TD*
G04 #@! TA.AperFunction,SMDPad,CuDef*
%ADD16R,1.799996X1.199896*%
G04 #@! TD*
G04 #@! TA.AperFunction,ComponentPad*
%ADD17O,0.762000X1.524000*%
G04 #@! TD*
G04 #@! TA.AperFunction,ViaPad*
%ADD18C,0.800000*%
G04 #@! TD*
G04 #@! TA.AperFunction,Conductor*
%ADD19C,0.350000*%
G04 #@! TD*
G04 APERTURE END LIST*
D10*
X149214840Y-85664040D03*
D11*
X150484840Y-85664040D03*
X150484840Y-86934040D03*
X149214840Y-86934040D03*
X150484840Y-88204040D03*
X149214840Y-88204040D03*
X150484840Y-89474040D03*
X149214840Y-89474040D03*
X150484840Y-90744040D03*
X149214840Y-90744040D03*
D12*
X114523520Y-89933780D03*
X114523520Y-69933820D03*
D13*
X114599720Y-90055700D03*
X114599720Y-69832164D03*
D14*
X133525000Y-48250000D03*
X141275000Y-48250000D03*
D15*
X133675000Y-52050000D03*
X141125000Y-52050000D03*
G04 #@! TA.AperFunction,SMDPad,CuDef*
G36*
G01*
X110754879Y-61302907D02*
X111118750Y-61608231D01*
G75*
G02*
X111148024Y-61942829I-152662J-181936D01*
G01*
X110826631Y-62325851D01*
G75*
G02*
X110492033Y-62355125I-181936J152662D01*
G01*
X110128162Y-62049801D01*
G75*
G02*
X110098888Y-61715203I152662J181936D01*
G01*
X110420281Y-61332181D01*
G75*
G02*
X110754879Y-61302907I181936J-152662D01*
G01*
G37*
G04 #@! TD.AperFunction*
G04 #@! TA.AperFunction,SMDPad,CuDef*
G36*
G01*
X111927967Y-59904875D02*
X112291838Y-60210199D01*
G75*
G02*
X112321112Y-60544797I-152662J-181936D01*
G01*
X111999719Y-60927819D01*
G75*
G02*
X111665121Y-60957093I-181936J152662D01*
G01*
X111301250Y-60651769D01*
G75*
G02*
X111271976Y-60317171I152662J181936D01*
G01*
X111593369Y-59934149D01*
G75*
G02*
X111927967Y-59904875I181936J-152662D01*
G01*
G37*
G04 #@! TD.AperFunction*
G04 #@! TA.AperFunction,SMDPad,CuDef*
G36*
G01*
X113547167Y-58209730D02*
X114125677Y-58899171D01*
G75*
G02*
X114094863Y-59251377I-191510J-160696D01*
G01*
X113596933Y-59669190D01*
G75*
G02*
X113244727Y-59638376I-160696J191510D01*
G01*
X112666217Y-58948935D01*
G75*
G02*
X112697031Y-58596729I191510J160696D01*
G01*
X113194961Y-58178916D01*
G75*
G02*
X113547167Y-58209730I160696J-191510D01*
G01*
G37*
G04 #@! TD.AperFunction*
G04 #@! TA.AperFunction,SMDPad,CuDef*
G36*
G01*
X115117559Y-56892016D02*
X115696069Y-57581457D01*
G75*
G02*
X115665255Y-57933663I-191510J-160696D01*
G01*
X115167325Y-58351476D01*
G75*
G02*
X114815119Y-58320662I-160696J191510D01*
G01*
X114236609Y-57631221D01*
G75*
G02*
X114267423Y-57279015I191510J160696D01*
G01*
X114765353Y-56861202D01*
G75*
G02*
X115117559Y-56892016I160696J-191510D01*
G01*
G37*
G04 #@! TD.AperFunction*
D16*
X131100070Y-73149991D03*
X131100070Y-76850009D03*
X124899930Y-73149991D03*
X124899930Y-76850009D03*
G04 #@! TA.AperFunction,SMDPad,CuDef*
G36*
G01*
X109674713Y-64695289D02*
X108895287Y-64245288D01*
G75*
G02*
X108803782Y-63903784I125000J216505D01*
G01*
X109128783Y-63340865D01*
G75*
G02*
X109470288Y-63249359I216505J-124999D01*
G01*
X110249713Y-63699360D01*
G75*
G02*
X110341218Y-64040864I-125000J-216505D01*
G01*
X110016217Y-64603783D01*
G75*
G02*
X109674713Y-64695289I-216505J124999D01*
G01*
G37*
G04 #@! TD.AperFunction*
G04 #@! TA.AperFunction,SMDPad,CuDef*
G36*
G01*
X108649713Y-66470641D02*
X107870287Y-66020640D01*
G75*
G02*
X107778782Y-65679136I125000J216505D01*
G01*
X108103783Y-65116217D01*
G75*
G02*
X108445288Y-65024711I216505J-124999D01*
G01*
X109224713Y-65474712D01*
G75*
G02*
X109316218Y-65816216I-125000J-216505D01*
G01*
X108991217Y-66379135D01*
G75*
G02*
X108649713Y-66470641I-216505J124999D01*
G01*
G37*
G04 #@! TD.AperFunction*
G04 #@! TA.AperFunction,SMDPad,CuDef*
G36*
G01*
X133221720Y-75549640D02*
X133696720Y-75549640D01*
G75*
G02*
X133934220Y-75787140I0J-237500D01*
G01*
X133934220Y-76387140D01*
G75*
G02*
X133696720Y-76624640I-237500J0D01*
G01*
X133221720Y-76624640D01*
G75*
G02*
X132984220Y-76387140I0J237500D01*
G01*
X132984220Y-75787140D01*
G75*
G02*
X133221720Y-75549640I237500J0D01*
G01*
G37*
G04 #@! TD.AperFunction*
G04 #@! TA.AperFunction,SMDPad,CuDef*
G36*
G01*
X133221720Y-73824640D02*
X133696720Y-73824640D01*
G75*
G02*
X133934220Y-74062140I0J-237500D01*
G01*
X133934220Y-74662140D01*
G75*
G02*
X133696720Y-74899640I-237500J0D01*
G01*
X133221720Y-74899640D01*
G75*
G02*
X132984220Y-74662140I0J237500D01*
G01*
X132984220Y-74062140D01*
G75*
G02*
X133221720Y-73824640I237500J0D01*
G01*
G37*
G04 #@! TD.AperFunction*
D17*
X142800106Y-48600000D03*
X147199894Y-48600000D03*
D18*
X146232880Y-77236320D03*
X135399780Y-76022200D03*
X147601940Y-65272920D03*
X140073380Y-69057520D03*
X136309100Y-67769740D03*
X126756160Y-70167500D03*
X128084580Y-53944520D03*
X127556260Y-51460400D03*
X117480080Y-50050700D03*
X130470278Y-51334038D03*
X130507740Y-56941720D03*
X147561300Y-78338680D03*
X136489440Y-73228200D03*
X133790177Y-81260100D03*
X129651760Y-83878420D03*
X134790180Y-81260100D03*
X129857500Y-87177880D03*
X139760960Y-83484720D03*
X144711420Y-53952140D03*
X141577060Y-78557120D03*
X129857500Y-67965320D03*
X125211840Y-78125320D03*
X137149840Y-50177700D03*
X126697740Y-54010560D03*
X137878820Y-66644520D03*
X137690860Y-70899020D03*
X132732780Y-55051960D03*
X107817920Y-68077080D03*
D19*
X132247071Y-73149991D02*
X133459220Y-74362140D01*
X131100070Y-73149991D02*
X132247071Y-73149991D01*
X131100070Y-73149991D02*
X124899930Y-73149991D01*
X151359841Y-91164041D02*
X151359841Y-89079041D01*
X150904841Y-91619041D02*
X151359841Y-91164041D01*
X151359841Y-89079041D02*
X150484840Y-88204040D01*
X150089841Y-91619041D02*
X150904841Y-91619041D01*
X149214840Y-90744040D02*
X150089841Y-91619041D01*
X147605942Y-77236320D02*
X146232880Y-77236320D01*
X151359841Y-80990219D02*
X147605942Y-77236320D01*
X151359841Y-89079041D02*
X151359841Y-80990219D01*
X135119280Y-76022200D02*
X133459220Y-74362140D01*
X135399780Y-76022200D02*
X135119280Y-76022200D01*
X147601940Y-49002046D02*
X147199894Y-48600000D01*
X147601940Y-65272920D02*
X147601940Y-49002046D01*
X138785600Y-67769740D02*
X136309100Y-67769740D01*
X140073380Y-69057520D02*
X138785600Y-67769740D01*
X124899930Y-72023730D02*
X126756160Y-70167500D01*
X124899930Y-73149991D02*
X124899930Y-72023730D01*
X125922739Y-53093921D02*
X127556260Y-51460400D01*
X125922739Y-54382561D02*
X125922739Y-53093921D01*
X127243539Y-54785561D02*
X126325739Y-54785561D01*
X126325739Y-54785561D02*
X125922739Y-54382561D01*
X128084580Y-53944520D02*
X127243539Y-54785561D01*
X127156261Y-51860399D02*
X119289779Y-51860399D01*
X119289779Y-51860399D02*
X117480080Y-50050700D01*
X127556260Y-51460400D02*
X127156261Y-51860399D01*
X109572500Y-64982800D02*
X114523520Y-69933820D01*
X109572500Y-63972324D02*
X109572500Y-64982800D01*
X109572500Y-62879972D02*
X110623456Y-61829016D01*
X109572500Y-63972324D02*
X109572500Y-62879972D01*
X130470278Y-56904258D02*
X130507740Y-56941720D01*
X130470278Y-51334038D02*
X130470278Y-56904258D01*
X147561300Y-85987606D02*
X147561300Y-78338680D01*
X148507734Y-86934040D02*
X147561300Y-85987606D01*
X149214840Y-86934040D02*
X148507734Y-86934040D01*
X130507740Y-67246500D02*
X130507740Y-56941720D01*
X136489440Y-73228200D02*
X130507740Y-67246500D01*
X133790177Y-81260100D02*
X133790177Y-82467373D01*
X132379130Y-83878420D02*
X129651760Y-83878420D01*
X133790177Y-82467373D02*
X132379130Y-83878420D01*
X134790180Y-82245200D02*
X129857500Y-87177880D01*
X134790180Y-81260100D02*
X134790180Y-82245200D01*
X144711420Y-78534260D02*
X144711420Y-53952140D01*
X139760960Y-83484720D02*
X144711420Y-78534260D01*
X140449300Y-78557120D02*
X129857500Y-67965320D01*
X141577060Y-78557120D02*
X140449300Y-78557120D01*
X131100070Y-76850009D02*
X131239491Y-76850009D01*
X132002360Y-76087140D02*
X133459220Y-76087140D01*
X131239491Y-76850009D02*
X132002360Y-76087140D01*
X131100070Y-76850009D02*
X124899930Y-76850009D01*
X117474724Y-60114724D02*
X117474724Y-69424803D01*
X117474724Y-69424803D02*
X124899930Y-76850009D01*
X114966339Y-57606339D02*
X117474724Y-60114724D01*
X125211840Y-77161919D02*
X124899930Y-76850009D01*
X125211840Y-78125320D02*
X125211840Y-77161919D01*
X137149840Y-65915540D02*
X137878820Y-66644520D01*
X137149840Y-50177700D02*
X137149840Y-65915540D01*
X137149840Y-50177700D02*
X130530600Y-50177700D01*
X130530600Y-50177700D02*
X126697740Y-54010560D01*
X132732780Y-65940940D02*
X132732780Y-55051960D01*
X137690860Y-70899020D02*
X132732780Y-65940940D01*
X107817920Y-66477256D02*
X108547500Y-65747676D01*
X107817920Y-68077080D02*
X107817920Y-66477256D01*
X113303475Y-58924053D02*
X111796544Y-60430984D01*
X113395947Y-58924053D02*
X113303475Y-58924053D01*
M02*
