M48
; DRILL file {KiCad (5.1.10-1-10_14)} date Sunday, June 27, 2021 at 11:26:49 PM
; FORMAT={-:-/ absolute / inch / decimal}
; #@! TF.CreationDate,2021-06-27T23:26:49+08:00
; #@! TF.GenerationSoftware,Kicad,Pcbnew,(5.1.10-1-10_14)
; #@! TF.FileFunction,Plated,1,2,PTH
FMAT,2
INCH
T1C0.0157
T2C0.0160
T3C0.0197
T4C0.0236
T5C0.0256
T6C0.0276
T7C0.0591
%
G90
G05
T1
X4.2448Y-2.6802
X4.6252Y-1.9705
X4.9296Y-3.0758
X4.9881Y-2.1264
X4.9904Y-2.7625
X5.0219Y-2.026
X5.0427Y-2.1238
X5.1044Y-3.3023
X5.1125Y-2.6758
X5.1125Y-3.4322
X5.1366Y-2.021
X5.1381Y-2.2418
X5.2257Y-2.1674
X5.2673Y-3.1992
X5.3067Y-3.1992
X5.3307Y-2.993
X5.3665Y-2.6681
X5.3736Y-2.883
X5.3996Y-1.9755
X5.4209Y-2.7913
X5.4283Y-2.6238
X5.5024Y-3.2868
X5.5147Y-2.7188
X5.5739Y-3.0928
X5.6973Y-2.1241
X5.7572Y-3.0408
X5.8095Y-3.0842
X5.8111Y-2.5698
T3
X5.8746Y-3.3726
X5.8746Y-3.4226
X5.8746Y-3.4726
X5.8746Y-3.5226
X5.8746Y-3.5726
X5.9246Y-3.3726
X5.9246Y-3.4226
X5.9246Y-3.4726
X5.9246Y-3.5226
X5.9246Y-3.5726
T7
X4.5088Y-2.7533
X4.5088Y-3.5407
T2
G00X5.6221Y-1.9294
M15
G01X5.6221Y-1.8974
M16
G05
G00X5.7953Y-1.9294
M15
G01X5.7953Y-1.8974
M16
G05
T4
G00X5.2569Y-1.9114
M15
G01X5.2569Y-1.8878
M16
G05
G00X5.562Y-1.9114
M15
G01X5.562Y-1.8878
M16
G05
T5
G00X4.4557Y-2.7493
M15
G01X4.5679Y-2.7493
M16
G05
G00X4.4557Y-3.5455
M15
G01X4.5679Y-3.5455
M16
G05
T6
G00X5.2628Y-2.063
M15
G01X5.2628Y-2.0354
M16
G05
G00X5.5561Y-2.063
M15
G01X5.5561Y-2.0354
M16
G05
T0
M30
