G04 #@! TF.GenerationSoftware,KiCad,Pcbnew,(5.1.10-1-10_14)*
G04 #@! TF.CreationDate,2021-06-27T23:26:48+08:00*
G04 #@! TF.ProjectId,mops-out,6d6f7073-2d6f-4757-942e-6b696361645f,rev?*
G04 #@! TF.SameCoordinates,Original*
G04 #@! TF.FileFunction,Profile,NP*
%FSLAX46Y46*%
G04 Gerber Fmt 4.6, Leading zero omitted, Abs format (unit mm)*
G04 Created by KiCad (PCBNEW (5.1.10-1-10_14)) date 2021-06-27 23:26:48*
%MOMM*%
%LPD*%
G01*
G04 APERTURE LIST*
G04 #@! TA.AperFunction,Profile*
%ADD10C,0.050000*%
G04 #@! TD*
G04 APERTURE END LIST*
D10*
X102000000Y-100000000D02*
G75*
G02*
X100000000Y-98000000I0J2000000D01*
G01*
X156500000Y-98000000D02*
G75*
G02*
X154500000Y-100000000I-2000000J0D01*
G01*
X154500000Y-47000000D02*
G75*
G02*
X156500000Y-49000000I0J-2000000D01*
G01*
X146360000Y-91330000D02*
G75*
G03*
X146360000Y-91330000I-500000J0D01*
G01*
X106150000Y-96000000D02*
G75*
G03*
X106150000Y-96000000I-1150000J0D01*
G01*
X152650000Y-96000000D02*
G75*
G03*
X152650000Y-96000000I-1150000J0D01*
G01*
X152650000Y-58000000D02*
G75*
G03*
X152650000Y-58000000I-1150000J0D01*
G01*
X121250000Y-50000000D02*
G75*
G03*
X121250000Y-50000000I-1150000J0D01*
G01*
X104150000Y-67500000D02*
G75*
G03*
X104150000Y-67500000I-1150000J0D01*
G01*
X102000000Y-100000000D02*
X154500000Y-100000000D01*
X156500000Y-98000000D02*
X156500000Y-91000000D01*
X156500000Y-91000000D02*
X154000000Y-91000000D01*
X154000000Y-91000000D02*
X154000000Y-83000000D01*
X154000000Y-83000000D02*
X156500000Y-83000000D01*
X156500000Y-83000000D02*
X156500000Y-65000000D01*
X156500000Y-65000000D02*
X154000000Y-65000000D01*
X154000000Y-65000000D02*
X154000000Y-57000000D01*
X154000000Y-57000000D02*
X156500000Y-57000000D01*
X156500000Y-57000000D02*
X156500000Y-49000000D01*
X154500000Y-47000000D02*
X118000000Y-47000000D01*
X118000000Y-47000000D02*
X100000000Y-65000000D01*
X100000000Y-65000000D02*
X100000000Y-84000000D01*
X100000000Y-84000000D02*
X102500000Y-84000000D01*
X102500000Y-84000000D02*
X102500000Y-92000000D01*
X102500000Y-92000000D02*
X100000000Y-92000000D01*
X100000000Y-92000000D02*
X100000000Y-98000000D01*
M02*
