G04 #@! TF.GenerationSoftware,KiCad,Pcbnew,(5.1.10-1-10_14)*
G04 #@! TF.CreationDate,2021-06-27T23:26:48+08:00*
G04 #@! TF.ProjectId,mops-out,6d6f7073-2d6f-4757-942e-6b696361645f,rev?*
G04 #@! TF.SameCoordinates,Original*
G04 #@! TF.FileFunction,Copper,L1,Top*
G04 #@! TF.FilePolarity,Positive*
%FSLAX46Y46*%
G04 Gerber Fmt 4.6, Leading zero omitted, Abs format (unit mm)*
G04 Created by KiCad (PCBNEW (5.1.10-1-10_14)) date 2021-06-27 23:26:48*
%MOMM*%
%LPD*%
G01*
G04 APERTURE LIST*
G04 #@! TA.AperFunction,ComponentPad*
%ADD10R,1.000000X1.000000*%
G04 #@! TD*
G04 #@! TA.AperFunction,ComponentPad*
%ADD11O,1.000000X1.000000*%
G04 #@! TD*
G04 #@! TA.AperFunction,SMDPad,CuDef*
%ADD12R,4.199992X3.499993*%
G04 #@! TD*
G04 #@! TA.AperFunction,ComponentPad*
%ADD13C,2.499995*%
G04 #@! TD*
G04 #@! TA.AperFunction,ComponentPad*
%ADD14O,4.999990X1.599997*%
G04 #@! TD*
G04 #@! TA.AperFunction,SMDPad,CuDef*
%ADD15C,14.999995*%
G04 #@! TD*
G04 #@! TA.AperFunction,ComponentPad*
%ADD16O,1.000000X1.800000*%
G04 #@! TD*
G04 #@! TA.AperFunction,ComponentPad*
%ADD17O,1.000000X2.000000*%
G04 #@! TD*
G04 #@! TA.AperFunction,SMDPad,CuDef*
%ADD18R,0.450000X1.300000*%
G04 #@! TD*
G04 #@! TA.AperFunction,SMDPad,CuDef*
%ADD19R,0.800000X0.900000*%
G04 #@! TD*
G04 #@! TA.AperFunction,SMDPad,CuDef*
%ADD20R,2.599995X1.899996*%
G04 #@! TD*
G04 #@! TA.AperFunction,SMDPad,CuDef*
%ADD21R,1.399997X0.599999*%
G04 #@! TD*
G04 #@! TA.AperFunction,SMDPad,CuDef*
%ADD22R,0.650000X1.060000*%
G04 #@! TD*
G04 #@! TA.AperFunction,SMDPad,CuDef*
%ADD23R,1.560000X0.650000*%
G04 #@! TD*
G04 #@! TA.AperFunction,SMDPad,CuDef*
%ADD24R,8.400034X3.499866*%
G04 #@! TD*
G04 #@! TA.AperFunction,SMDPad,CuDef*
%ADD25R,1.999996X0.800100*%
G04 #@! TD*
G04 #@! TA.AperFunction,SMDPad,CuDef*
%ADD26R,3.999992X0.800100*%
G04 #@! TD*
G04 #@! TA.AperFunction,ComponentPad*
%ADD27O,0.762000X1.524000*%
G04 #@! TD*
G04 #@! TA.AperFunction,SMDPad,CuDef*
%ADD28R,1.299997X0.899998*%
G04 #@! TD*
G04 #@! TA.AperFunction,SMDPad,CuDef*
%ADD29R,0.750011X1.799996*%
G04 #@! TD*
G04 #@! TA.AperFunction,SMDPad,CuDef*
%ADD30R,0.599948X1.799996*%
G04 #@! TD*
G04 #@! TA.AperFunction,ViaPad*
%ADD31C,0.800000*%
G04 #@! TD*
G04 #@! TA.AperFunction,Conductor*
%ADD32C,0.350000*%
G04 #@! TD*
G04 APERTURE END LIST*
G04 #@! TA.AperFunction,SMDPad,CuDef*
G36*
G01*
X143523380Y-65227060D02*
X143523380Y-65527060D01*
G75*
G02*
X143373380Y-65677060I-150000J0D01*
G01*
X141723380Y-65677060D01*
G75*
G02*
X141573380Y-65527060I0J150000D01*
G01*
X141573380Y-65227060D01*
G75*
G02*
X141723380Y-65077060I150000J0D01*
G01*
X143373380Y-65077060D01*
G75*
G02*
X143523380Y-65227060I0J-150000D01*
G01*
G37*
G04 #@! TD.AperFunction*
G04 #@! TA.AperFunction,SMDPad,CuDef*
G36*
G01*
X143523380Y-63957060D02*
X143523380Y-64257060D01*
G75*
G02*
X143373380Y-64407060I-150000J0D01*
G01*
X141723380Y-64407060D01*
G75*
G02*
X141573380Y-64257060I0J150000D01*
G01*
X141573380Y-63957060D01*
G75*
G02*
X141723380Y-63807060I150000J0D01*
G01*
X143373380Y-63807060D01*
G75*
G02*
X143523380Y-63957060I0J-150000D01*
G01*
G37*
G04 #@! TD.AperFunction*
G04 #@! TA.AperFunction,SMDPad,CuDef*
G36*
G01*
X143523380Y-62687060D02*
X143523380Y-62987060D01*
G75*
G02*
X143373380Y-63137060I-150000J0D01*
G01*
X141723380Y-63137060D01*
G75*
G02*
X141573380Y-62987060I0J150000D01*
G01*
X141573380Y-62687060D01*
G75*
G02*
X141723380Y-62537060I150000J0D01*
G01*
X143373380Y-62537060D01*
G75*
G02*
X143523380Y-62687060I0J-150000D01*
G01*
G37*
G04 #@! TD.AperFunction*
G04 #@! TA.AperFunction,SMDPad,CuDef*
G36*
G01*
X143523380Y-61417060D02*
X143523380Y-61717060D01*
G75*
G02*
X143373380Y-61867060I-150000J0D01*
G01*
X141723380Y-61867060D01*
G75*
G02*
X141573380Y-61717060I0J150000D01*
G01*
X141573380Y-61417060D01*
G75*
G02*
X141723380Y-61267060I150000J0D01*
G01*
X143373380Y-61267060D01*
G75*
G02*
X143523380Y-61417060I0J-150000D01*
G01*
G37*
G04 #@! TD.AperFunction*
G04 #@! TA.AperFunction,SMDPad,CuDef*
G36*
G01*
X143523380Y-60147060D02*
X143523380Y-60447060D01*
G75*
G02*
X143373380Y-60597060I-150000J0D01*
G01*
X141723380Y-60597060D01*
G75*
G02*
X141573380Y-60447060I0J150000D01*
G01*
X141573380Y-60147060D01*
G75*
G02*
X141723380Y-59997060I150000J0D01*
G01*
X143373380Y-59997060D01*
G75*
G02*
X143523380Y-60147060I0J-150000D01*
G01*
G37*
G04 #@! TD.AperFunction*
G04 #@! TA.AperFunction,SMDPad,CuDef*
G36*
G01*
X143523380Y-58877060D02*
X143523380Y-59177060D01*
G75*
G02*
X143373380Y-59327060I-150000J0D01*
G01*
X141723380Y-59327060D01*
G75*
G02*
X141573380Y-59177060I0J150000D01*
G01*
X141573380Y-58877060D01*
G75*
G02*
X141723380Y-58727060I150000J0D01*
G01*
X143373380Y-58727060D01*
G75*
G02*
X143523380Y-58877060I0J-150000D01*
G01*
G37*
G04 #@! TD.AperFunction*
G04 #@! TA.AperFunction,SMDPad,CuDef*
G36*
G01*
X143523380Y-57607060D02*
X143523380Y-57907060D01*
G75*
G02*
X143373380Y-58057060I-150000J0D01*
G01*
X141723380Y-58057060D01*
G75*
G02*
X141573380Y-57907060I0J150000D01*
G01*
X141573380Y-57607060D01*
G75*
G02*
X141723380Y-57457060I150000J0D01*
G01*
X143373380Y-57457060D01*
G75*
G02*
X143523380Y-57607060I0J-150000D01*
G01*
G37*
G04 #@! TD.AperFunction*
G04 #@! TA.AperFunction,SMDPad,CuDef*
G36*
G01*
X143523380Y-56337060D02*
X143523380Y-56637060D01*
G75*
G02*
X143373380Y-56787060I-150000J0D01*
G01*
X141723380Y-56787060D01*
G75*
G02*
X141573380Y-56637060I0J150000D01*
G01*
X141573380Y-56337060D01*
G75*
G02*
X141723380Y-56187060I150000J0D01*
G01*
X143373380Y-56187060D01*
G75*
G02*
X143523380Y-56337060I0J-150000D01*
G01*
G37*
G04 #@! TD.AperFunction*
G04 #@! TA.AperFunction,SMDPad,CuDef*
G36*
G01*
X138573380Y-56337060D02*
X138573380Y-56637060D01*
G75*
G02*
X138423380Y-56787060I-150000J0D01*
G01*
X136773380Y-56787060D01*
G75*
G02*
X136623380Y-56637060I0J150000D01*
G01*
X136623380Y-56337060D01*
G75*
G02*
X136773380Y-56187060I150000J0D01*
G01*
X138423380Y-56187060D01*
G75*
G02*
X138573380Y-56337060I0J-150000D01*
G01*
G37*
G04 #@! TD.AperFunction*
G04 #@! TA.AperFunction,SMDPad,CuDef*
G36*
G01*
X138573380Y-57607060D02*
X138573380Y-57907060D01*
G75*
G02*
X138423380Y-58057060I-150000J0D01*
G01*
X136773380Y-58057060D01*
G75*
G02*
X136623380Y-57907060I0J150000D01*
G01*
X136623380Y-57607060D01*
G75*
G02*
X136773380Y-57457060I150000J0D01*
G01*
X138423380Y-57457060D01*
G75*
G02*
X138573380Y-57607060I0J-150000D01*
G01*
G37*
G04 #@! TD.AperFunction*
G04 #@! TA.AperFunction,SMDPad,CuDef*
G36*
G01*
X138573380Y-58877060D02*
X138573380Y-59177060D01*
G75*
G02*
X138423380Y-59327060I-150000J0D01*
G01*
X136773380Y-59327060D01*
G75*
G02*
X136623380Y-59177060I0J150000D01*
G01*
X136623380Y-58877060D01*
G75*
G02*
X136773380Y-58727060I150000J0D01*
G01*
X138423380Y-58727060D01*
G75*
G02*
X138573380Y-58877060I0J-150000D01*
G01*
G37*
G04 #@! TD.AperFunction*
G04 #@! TA.AperFunction,SMDPad,CuDef*
G36*
G01*
X138573380Y-60147060D02*
X138573380Y-60447060D01*
G75*
G02*
X138423380Y-60597060I-150000J0D01*
G01*
X136773380Y-60597060D01*
G75*
G02*
X136623380Y-60447060I0J150000D01*
G01*
X136623380Y-60147060D01*
G75*
G02*
X136773380Y-59997060I150000J0D01*
G01*
X138423380Y-59997060D01*
G75*
G02*
X138573380Y-60147060I0J-150000D01*
G01*
G37*
G04 #@! TD.AperFunction*
G04 #@! TA.AperFunction,SMDPad,CuDef*
G36*
G01*
X138573380Y-61417060D02*
X138573380Y-61717060D01*
G75*
G02*
X138423380Y-61867060I-150000J0D01*
G01*
X136773380Y-61867060D01*
G75*
G02*
X136623380Y-61717060I0J150000D01*
G01*
X136623380Y-61417060D01*
G75*
G02*
X136773380Y-61267060I150000J0D01*
G01*
X138423380Y-61267060D01*
G75*
G02*
X138573380Y-61417060I0J-150000D01*
G01*
G37*
G04 #@! TD.AperFunction*
G04 #@! TA.AperFunction,SMDPad,CuDef*
G36*
G01*
X138573380Y-62687060D02*
X138573380Y-62987060D01*
G75*
G02*
X138423380Y-63137060I-150000J0D01*
G01*
X136773380Y-63137060D01*
G75*
G02*
X136623380Y-62987060I0J150000D01*
G01*
X136623380Y-62687060D01*
G75*
G02*
X136773380Y-62537060I150000J0D01*
G01*
X138423380Y-62537060D01*
G75*
G02*
X138573380Y-62687060I0J-150000D01*
G01*
G37*
G04 #@! TD.AperFunction*
G04 #@! TA.AperFunction,SMDPad,CuDef*
G36*
G01*
X138573380Y-63957060D02*
X138573380Y-64257060D01*
G75*
G02*
X138423380Y-64407060I-150000J0D01*
G01*
X136773380Y-64407060D01*
G75*
G02*
X136623380Y-64257060I0J150000D01*
G01*
X136623380Y-63957060D01*
G75*
G02*
X136773380Y-63807060I150000J0D01*
G01*
X138423380Y-63807060D01*
G75*
G02*
X138573380Y-63957060I0J-150000D01*
G01*
G37*
G04 #@! TD.AperFunction*
G04 #@! TA.AperFunction,SMDPad,CuDef*
G36*
G01*
X138573380Y-65227060D02*
X138573380Y-65527060D01*
G75*
G02*
X138423380Y-65677060I-150000J0D01*
G01*
X136773380Y-65677060D01*
G75*
G02*
X136623380Y-65527060I0J150000D01*
G01*
X136623380Y-65227060D01*
G75*
G02*
X136773380Y-65077060I150000J0D01*
G01*
X138423380Y-65077060D01*
G75*
G02*
X138573380Y-65227060I0J-150000D01*
G01*
G37*
G04 #@! TD.AperFunction*
D10*
X149214840Y-85664040D03*
D11*
X150484840Y-85664040D03*
X150484840Y-86934040D03*
X149214840Y-86934040D03*
X150484840Y-88204040D03*
X149214840Y-88204040D03*
X150484840Y-89474040D03*
X149214840Y-89474040D03*
X150484840Y-90744040D03*
X149214840Y-90744040D03*
G04 #@! TA.AperFunction,SMDPad,CuDef*
G36*
G01*
X146652040Y-61501300D02*
X146342040Y-61501300D01*
G75*
G02*
X146187040Y-61346300I0J155000D01*
G01*
X146187040Y-60921300D01*
G75*
G02*
X146342040Y-60766300I155000J0D01*
G01*
X146652040Y-60766300D01*
G75*
G02*
X146807040Y-60921300I0J-155000D01*
G01*
X146807040Y-61346300D01*
G75*
G02*
X146652040Y-61501300I-155000J0D01*
G01*
G37*
G04 #@! TD.AperFunction*
G04 #@! TA.AperFunction,SMDPad,CuDef*
G36*
G01*
X146652040Y-60366300D02*
X146342040Y-60366300D01*
G75*
G02*
X146187040Y-60211300I0J155000D01*
G01*
X146187040Y-59786300D01*
G75*
G02*
X146342040Y-59631300I155000J0D01*
G01*
X146652040Y-59631300D01*
G75*
G02*
X146807040Y-59786300I0J-155000D01*
G01*
X146807040Y-60211300D01*
G75*
G02*
X146652040Y-60366300I-155000J0D01*
G01*
G37*
G04 #@! TD.AperFunction*
G04 #@! TA.AperFunction,SMDPad,CuDef*
G36*
G01*
X137287280Y-66502220D02*
X137287280Y-66812220D01*
G75*
G02*
X137132280Y-66967220I-155000J0D01*
G01*
X136707280Y-66967220D01*
G75*
G02*
X136552280Y-66812220I0J155000D01*
G01*
X136552280Y-66502220D01*
G75*
G02*
X136707280Y-66347220I155000J0D01*
G01*
X137132280Y-66347220D01*
G75*
G02*
X137287280Y-66502220I0J-155000D01*
G01*
G37*
G04 #@! TD.AperFunction*
G04 #@! TA.AperFunction,SMDPad,CuDef*
G36*
G01*
X136152280Y-66502220D02*
X136152280Y-66812220D01*
G75*
G02*
X135997280Y-66967220I-155000J0D01*
G01*
X135572280Y-66967220D01*
G75*
G02*
X135417280Y-66812220I0J155000D01*
G01*
X135417280Y-66502220D01*
G75*
G02*
X135572280Y-66347220I155000J0D01*
G01*
X135997280Y-66347220D01*
G75*
G02*
X136152280Y-66502220I0J-155000D01*
G01*
G37*
G04 #@! TD.AperFunction*
G04 #@! TA.AperFunction,SMDPad,CuDef*
G36*
G01*
X132945280Y-56421680D02*
X132520280Y-56421680D01*
G75*
G02*
X132307780Y-56209180I0J212500D01*
G01*
X132307780Y-55409180D01*
G75*
G02*
X132520280Y-55196680I212500J0D01*
G01*
X132945280Y-55196680D01*
G75*
G02*
X133157780Y-55409180I0J-212500D01*
G01*
X133157780Y-56209180D01*
G75*
G02*
X132945280Y-56421680I-212500J0D01*
G01*
G37*
G04 #@! TD.AperFunction*
G04 #@! TA.AperFunction,SMDPad,CuDef*
G36*
G01*
X132945280Y-58046680D02*
X132520280Y-58046680D01*
G75*
G02*
X132307780Y-57834180I0J212500D01*
G01*
X132307780Y-57034180D01*
G75*
G02*
X132520280Y-56821680I212500J0D01*
G01*
X132945280Y-56821680D01*
G75*
G02*
X133157780Y-57034180I0J-212500D01*
G01*
X133157780Y-57834180D01*
G75*
G02*
X132945280Y-58046680I-212500J0D01*
G01*
G37*
G04 #@! TD.AperFunction*
D12*
X114330480Y-65756282D03*
X114330480Y-95731838D03*
D13*
X114523520Y-89933780D03*
X114523520Y-69933820D03*
D14*
X114599720Y-90055700D03*
X114599720Y-69832164D03*
D15*
X114599720Y-79943932D03*
D16*
X133525000Y-48250000D03*
X141275000Y-48250000D03*
D17*
X133675000Y-52050000D03*
X141125000Y-52050000D03*
D18*
X136100000Y-52100000D03*
X136750000Y-52100000D03*
X137400000Y-52100000D03*
X138050000Y-52100000D03*
X138700000Y-52100000D03*
G04 #@! TA.AperFunction,SMDPad,CuDef*
G36*
G01*
X124385000Y-65237500D02*
X124385000Y-64762500D01*
G75*
G02*
X124622500Y-64525000I237500J0D01*
G01*
X125122500Y-64525000D01*
G75*
G02*
X125360000Y-64762500I0J-237500D01*
G01*
X125360000Y-65237500D01*
G75*
G02*
X125122500Y-65475000I-237500J0D01*
G01*
X124622500Y-65475000D01*
G75*
G02*
X124385000Y-65237500I0J237500D01*
G01*
G37*
G04 #@! TD.AperFunction*
G04 #@! TA.AperFunction,SMDPad,CuDef*
G36*
G01*
X122560000Y-65237500D02*
X122560000Y-64762500D01*
G75*
G02*
X122797500Y-64525000I237500J0D01*
G01*
X123297500Y-64525000D01*
G75*
G02*
X123535000Y-64762500I0J-237500D01*
G01*
X123535000Y-65237500D01*
G75*
G02*
X123297500Y-65475000I-237500J0D01*
G01*
X122797500Y-65475000D01*
G75*
G02*
X122560000Y-65237500I0J237500D01*
G01*
G37*
G04 #@! TD.AperFunction*
G04 #@! TA.AperFunction,SMDPad,CuDef*
G36*
G01*
X149647900Y-79053240D02*
X150122900Y-79053240D01*
G75*
G02*
X150360400Y-79290740I0J-237500D01*
G01*
X150360400Y-79790740D01*
G75*
G02*
X150122900Y-80028240I-237500J0D01*
G01*
X149647900Y-80028240D01*
G75*
G02*
X149410400Y-79790740I0J237500D01*
G01*
X149410400Y-79290740D01*
G75*
G02*
X149647900Y-79053240I237500J0D01*
G01*
G37*
G04 #@! TD.AperFunction*
G04 #@! TA.AperFunction,SMDPad,CuDef*
G36*
G01*
X149647900Y-77228240D02*
X150122900Y-77228240D01*
G75*
G02*
X150360400Y-77465740I0J-237500D01*
G01*
X150360400Y-77965740D01*
G75*
G02*
X150122900Y-78203240I-237500J0D01*
G01*
X149647900Y-78203240D01*
G75*
G02*
X149410400Y-77965740I0J237500D01*
G01*
X149410400Y-77465740D01*
G75*
G02*
X149647900Y-77228240I237500J0D01*
G01*
G37*
G04 #@! TD.AperFunction*
G04 #@! TA.AperFunction,SMDPad,CuDef*
G36*
G01*
X147762500Y-79105000D02*
X148237500Y-79105000D01*
G75*
G02*
X148475000Y-79342500I0J-237500D01*
G01*
X148475000Y-79842500D01*
G75*
G02*
X148237500Y-80080000I-237500J0D01*
G01*
X147762500Y-80080000D01*
G75*
G02*
X147525000Y-79842500I0J237500D01*
G01*
X147525000Y-79342500D01*
G75*
G02*
X147762500Y-79105000I237500J0D01*
G01*
G37*
G04 #@! TD.AperFunction*
G04 #@! TA.AperFunction,SMDPad,CuDef*
G36*
G01*
X147762500Y-77280000D02*
X148237500Y-77280000D01*
G75*
G02*
X148475000Y-77517500I0J-237500D01*
G01*
X148475000Y-78017500D01*
G75*
G02*
X148237500Y-78255000I-237500J0D01*
G01*
X147762500Y-78255000D01*
G75*
G02*
X147525000Y-78017500I0J237500D01*
G01*
X147525000Y-77517500D01*
G75*
G02*
X147762500Y-77280000I237500J0D01*
G01*
G37*
G04 #@! TD.AperFunction*
G04 #@! TA.AperFunction,SMDPad,CuDef*
G36*
G01*
X129245340Y-49498280D02*
X128925340Y-49498280D01*
G75*
G02*
X128765340Y-49338280I0J160000D01*
G01*
X128765340Y-48943280D01*
G75*
G02*
X128925340Y-48783280I160000J0D01*
G01*
X129245340Y-48783280D01*
G75*
G02*
X129405340Y-48943280I0J-160000D01*
G01*
X129405340Y-49338280D01*
G75*
G02*
X129245340Y-49498280I-160000J0D01*
G01*
G37*
G04 #@! TD.AperFunction*
G04 #@! TA.AperFunction,SMDPad,CuDef*
G36*
G01*
X129245340Y-50693280D02*
X128925340Y-50693280D01*
G75*
G02*
X128765340Y-50533280I0J160000D01*
G01*
X128765340Y-50138280D01*
G75*
G02*
X128925340Y-49978280I160000J0D01*
G01*
X129245340Y-49978280D01*
G75*
G02*
X129405340Y-50138280I0J-160000D01*
G01*
X129405340Y-50533280D01*
G75*
G02*
X129245340Y-50693280I-160000J0D01*
G01*
G37*
G04 #@! TD.AperFunction*
G04 #@! TA.AperFunction,SMDPad,CuDef*
G36*
G01*
X125919260Y-51569640D02*
X125919260Y-51889640D01*
G75*
G02*
X125759260Y-52049640I-160000J0D01*
G01*
X125364260Y-52049640D01*
G75*
G02*
X125204260Y-51889640I0J160000D01*
G01*
X125204260Y-51569640D01*
G75*
G02*
X125364260Y-51409640I160000J0D01*
G01*
X125759260Y-51409640D01*
G75*
G02*
X125919260Y-51569640I0J-160000D01*
G01*
G37*
G04 #@! TD.AperFunction*
G04 #@! TA.AperFunction,SMDPad,CuDef*
G36*
G01*
X127114260Y-51569640D02*
X127114260Y-51889640D01*
G75*
G02*
X126954260Y-52049640I-160000J0D01*
G01*
X126559260Y-52049640D01*
G75*
G02*
X126399260Y-51889640I0J160000D01*
G01*
X126399260Y-51569640D01*
G75*
G02*
X126559260Y-51409640I160000J0D01*
G01*
X126954260Y-51409640D01*
G75*
G02*
X127114260Y-51569640I0J-160000D01*
G01*
G37*
G04 #@! TD.AperFunction*
G04 #@! TA.AperFunction,SMDPad,CuDef*
G36*
G01*
X126723160Y-50001140D02*
X127043160Y-50001140D01*
G75*
G02*
X127203160Y-50161140I0J-160000D01*
G01*
X127203160Y-50556140D01*
G75*
G02*
X127043160Y-50716140I-160000J0D01*
G01*
X126723160Y-50716140D01*
G75*
G02*
X126563160Y-50556140I0J160000D01*
G01*
X126563160Y-50161140D01*
G75*
G02*
X126723160Y-50001140I160000J0D01*
G01*
G37*
G04 #@! TD.AperFunction*
G04 #@! TA.AperFunction,SMDPad,CuDef*
G36*
G01*
X126723160Y-48806140D02*
X127043160Y-48806140D01*
G75*
G02*
X127203160Y-48966140I0J-160000D01*
G01*
X127203160Y-49361140D01*
G75*
G02*
X127043160Y-49521140I-160000J0D01*
G01*
X126723160Y-49521140D01*
G75*
G02*
X126563160Y-49361140I0J160000D01*
G01*
X126563160Y-48966140D01*
G75*
G02*
X126723160Y-48806140I160000J0D01*
G01*
G37*
G04 #@! TD.AperFunction*
D19*
X124858780Y-66287140D03*
X125808780Y-68287140D03*
X123908780Y-68287140D03*
G04 #@! TA.AperFunction,SMDPad,CuDef*
G36*
G01*
X129650000Y-47662500D02*
X129650000Y-48137500D01*
G75*
G02*
X129412500Y-48375000I-237500J0D01*
G01*
X128837500Y-48375000D01*
G75*
G02*
X128600000Y-48137500I0J237500D01*
G01*
X128600000Y-47662500D01*
G75*
G02*
X128837500Y-47425000I237500J0D01*
G01*
X129412500Y-47425000D01*
G75*
G02*
X129650000Y-47662500I0J-237500D01*
G01*
G37*
G04 #@! TD.AperFunction*
G04 #@! TA.AperFunction,SMDPad,CuDef*
G36*
G01*
X131400000Y-47662500D02*
X131400000Y-48137500D01*
G75*
G02*
X131162500Y-48375000I-237500J0D01*
G01*
X130587500Y-48375000D01*
G75*
G02*
X130350000Y-48137500I0J237500D01*
G01*
X130350000Y-47662500D01*
G75*
G02*
X130587500Y-47425000I237500J0D01*
G01*
X131162500Y-47425000D01*
G75*
G02*
X131400000Y-47662500I0J-237500D01*
G01*
G37*
G04 #@! TD.AperFunction*
G04 #@! TA.AperFunction,SMDPad,CuDef*
G36*
G01*
X126350000Y-48137500D02*
X126350000Y-47662500D01*
G75*
G02*
X126587500Y-47425000I237500J0D01*
G01*
X127162500Y-47425000D01*
G75*
G02*
X127400000Y-47662500I0J-237500D01*
G01*
X127400000Y-48137500D01*
G75*
G02*
X127162500Y-48375000I-237500J0D01*
G01*
X126587500Y-48375000D01*
G75*
G02*
X126350000Y-48137500I0J237500D01*
G01*
G37*
G04 #@! TD.AperFunction*
G04 #@! TA.AperFunction,SMDPad,CuDef*
G36*
G01*
X124600000Y-48137500D02*
X124600000Y-47662500D01*
G75*
G02*
X124837500Y-47425000I237500J0D01*
G01*
X125412500Y-47425000D01*
G75*
G02*
X125650000Y-47662500I0J-237500D01*
G01*
X125650000Y-48137500D01*
G75*
G02*
X125412500Y-48375000I-237500J0D01*
G01*
X124837500Y-48375000D01*
G75*
G02*
X124600000Y-48137500I0J237500D01*
G01*
G37*
G04 #@! TD.AperFunction*
G04 #@! TA.AperFunction,SMDPad,CuDef*
G36*
G01*
X145897480Y-52950120D02*
X145897480Y-52475120D01*
G75*
G02*
X146134980Y-52237620I237500J0D01*
G01*
X146734980Y-52237620D01*
G75*
G02*
X146972480Y-52475120I0J-237500D01*
G01*
X146972480Y-52950120D01*
G75*
G02*
X146734980Y-53187620I-237500J0D01*
G01*
X146134980Y-53187620D01*
G75*
G02*
X145897480Y-52950120I0J237500D01*
G01*
G37*
G04 #@! TD.AperFunction*
G04 #@! TA.AperFunction,SMDPad,CuDef*
G36*
G01*
X144172480Y-52950120D02*
X144172480Y-52475120D01*
G75*
G02*
X144409980Y-52237620I237500J0D01*
G01*
X145009980Y-52237620D01*
G75*
G02*
X145247480Y-52475120I0J-237500D01*
G01*
X145247480Y-52950120D01*
G75*
G02*
X145009980Y-53187620I-237500J0D01*
G01*
X144409980Y-53187620D01*
G75*
G02*
X144172480Y-52950120I0J237500D01*
G01*
G37*
G04 #@! TD.AperFunction*
G04 #@! TA.AperFunction,SMDPad,CuDef*
G36*
G01*
X133962020Y-54474120D02*
X133962020Y-53999120D01*
G75*
G02*
X134199520Y-53761620I237500J0D01*
G01*
X134799520Y-53761620D01*
G75*
G02*
X135037020Y-53999120I0J-237500D01*
G01*
X135037020Y-54474120D01*
G75*
G02*
X134799520Y-54711620I-237500J0D01*
G01*
X134199520Y-54711620D01*
G75*
G02*
X133962020Y-54474120I0J237500D01*
G01*
G37*
G04 #@! TD.AperFunction*
G04 #@! TA.AperFunction,SMDPad,CuDef*
G36*
G01*
X132237020Y-54474120D02*
X132237020Y-53999120D01*
G75*
G02*
X132474520Y-53761620I237500J0D01*
G01*
X133074520Y-53761620D01*
G75*
G02*
X133312020Y-53999120I0J-237500D01*
G01*
X133312020Y-54474120D01*
G75*
G02*
X133074520Y-54711620I-237500J0D01*
G01*
X132474520Y-54711620D01*
G75*
G02*
X132237020Y-54474120I0J237500D01*
G01*
G37*
G04 #@! TD.AperFunction*
G04 #@! TA.AperFunction,SMDPad,CuDef*
G36*
G01*
X129120840Y-58282180D02*
X129430840Y-58282180D01*
G75*
G02*
X129585840Y-58437180I0J-155000D01*
G01*
X129585840Y-58862180D01*
G75*
G02*
X129430840Y-59017180I-155000J0D01*
G01*
X129120840Y-59017180D01*
G75*
G02*
X128965840Y-58862180I0J155000D01*
G01*
X128965840Y-58437180D01*
G75*
G02*
X129120840Y-58282180I155000J0D01*
G01*
G37*
G04 #@! TD.AperFunction*
G04 #@! TA.AperFunction,SMDPad,CuDef*
G36*
G01*
X129120840Y-57147180D02*
X129430840Y-57147180D01*
G75*
G02*
X129585840Y-57302180I0J-155000D01*
G01*
X129585840Y-57727180D01*
G75*
G02*
X129430840Y-57882180I-155000J0D01*
G01*
X129120840Y-57882180D01*
G75*
G02*
X128965840Y-57727180I0J155000D01*
G01*
X128965840Y-57302180D01*
G75*
G02*
X129120840Y-57147180I155000J0D01*
G01*
G37*
G04 #@! TD.AperFunction*
G04 #@! TA.AperFunction,SMDPad,CuDef*
G36*
G01*
X134738120Y-56380500D02*
X134263120Y-56380500D01*
G75*
G02*
X134025620Y-56143000I0J237500D01*
G01*
X134025620Y-55543000D01*
G75*
G02*
X134263120Y-55305500I237500J0D01*
G01*
X134738120Y-55305500D01*
G75*
G02*
X134975620Y-55543000I0J-237500D01*
G01*
X134975620Y-56143000D01*
G75*
G02*
X134738120Y-56380500I-237500J0D01*
G01*
G37*
G04 #@! TD.AperFunction*
G04 #@! TA.AperFunction,SMDPad,CuDef*
G36*
G01*
X134738120Y-58105500D02*
X134263120Y-58105500D01*
G75*
G02*
X134025620Y-57868000I0J237500D01*
G01*
X134025620Y-57268000D01*
G75*
G02*
X134263120Y-57030500I237500J0D01*
G01*
X134738120Y-57030500D01*
G75*
G02*
X134975620Y-57268000I0J-237500D01*
G01*
X134975620Y-57868000D01*
G75*
G02*
X134738120Y-58105500I-237500J0D01*
G01*
G37*
G04 #@! TD.AperFunction*
G04 #@! TA.AperFunction,SMDPad,CuDef*
G36*
G01*
X131033460Y-58241540D02*
X131343460Y-58241540D01*
G75*
G02*
X131498460Y-58396540I0J-155000D01*
G01*
X131498460Y-58821540D01*
G75*
G02*
X131343460Y-58976540I-155000J0D01*
G01*
X131033460Y-58976540D01*
G75*
G02*
X130878460Y-58821540I0J155000D01*
G01*
X130878460Y-58396540D01*
G75*
G02*
X131033460Y-58241540I155000J0D01*
G01*
G37*
G04 #@! TD.AperFunction*
G04 #@! TA.AperFunction,SMDPad,CuDef*
G36*
G01*
X131033460Y-57106540D02*
X131343460Y-57106540D01*
G75*
G02*
X131498460Y-57261540I0J-155000D01*
G01*
X131498460Y-57686540D01*
G75*
G02*
X131343460Y-57841540I-155000J0D01*
G01*
X131033460Y-57841540D01*
G75*
G02*
X130878460Y-57686540I0J155000D01*
G01*
X130878460Y-57261540D01*
G75*
G02*
X131033460Y-57106540I155000J0D01*
G01*
G37*
G04 #@! TD.AperFunction*
D20*
X116318735Y-57944911D03*
X116318735Y-51694987D03*
D21*
X113701265Y-54195109D03*
X113701265Y-55445043D03*
D22*
X131193580Y-56179900D03*
X129293580Y-56179900D03*
X129293580Y-53979900D03*
X130243580Y-53979900D03*
X131193580Y-53979900D03*
D23*
X124019300Y-53334920D03*
X124019300Y-52384920D03*
X124019300Y-54284920D03*
X121319300Y-54284920D03*
X121319300Y-53334920D03*
X121319300Y-52384920D03*
D24*
X137400050Y-88465110D03*
D25*
X131800112Y-90214916D03*
D26*
X143949948Y-84215182D03*
X143949948Y-82315008D03*
X143949948Y-80415088D03*
X143949948Y-78515168D03*
X143949948Y-76614994D03*
X143949948Y-74715074D03*
D25*
X127949980Y-71775024D03*
X127949980Y-73484952D03*
X127949980Y-75195134D03*
X127949980Y-76905062D03*
X127949980Y-78614990D03*
X127949980Y-80325172D03*
X127949980Y-82035100D03*
X127949980Y-83745028D03*
X127949980Y-85454956D03*
X127949980Y-87165138D03*
D27*
X142800106Y-48600000D03*
X147199894Y-48600000D03*
D28*
X143096270Y-47559108D03*
X146903730Y-47559362D03*
D29*
X143784356Y-49640638D03*
D30*
X144985268Y-49640638D03*
D29*
X146186180Y-49640638D03*
D31*
X146232880Y-77236320D03*
X135399780Y-76022200D03*
X147601940Y-65272920D03*
X140073380Y-69057520D03*
X136309100Y-67769740D03*
X126756160Y-70167500D03*
X128084580Y-53944520D03*
X127556260Y-51460400D03*
X117480080Y-50050700D03*
X130470278Y-51334038D03*
X130507740Y-56941720D03*
X147561300Y-78338680D03*
X136489440Y-73228200D03*
X133790177Y-81260100D03*
X129651760Y-83878420D03*
X134790180Y-81260100D03*
X129857500Y-87177880D03*
X139760960Y-83484720D03*
X144711420Y-53952140D03*
X141577060Y-78557120D03*
X129857500Y-67965320D03*
X125211840Y-78125320D03*
X137149840Y-50177700D03*
X126697740Y-54010560D03*
X137878820Y-66644520D03*
X137690860Y-70899020D03*
X132732780Y-55051960D03*
X107817920Y-68077080D03*
D32*
X139537440Y-58892440D02*
X140942060Y-60297060D01*
X139537440Y-56019700D02*
X139537440Y-58892440D01*
X137400000Y-53882260D02*
X139537440Y-56019700D01*
X140942060Y-60297060D02*
X142548380Y-60297060D01*
X137400000Y-52100000D02*
X137400000Y-53882260D01*
X138050000Y-53671200D02*
X138050000Y-52100000D01*
X140185140Y-55806340D02*
X138050000Y-53671200D01*
X140185140Y-58577480D02*
X140185140Y-55806340D01*
X140634720Y-59027060D02*
X140185140Y-58577480D01*
X142548380Y-59027060D02*
X140634720Y-59027060D01*
X143784356Y-49584250D02*
X142800106Y-48600000D01*
X143784356Y-49640638D02*
X143784356Y-49584250D01*
X142800106Y-47855272D02*
X143096270Y-47559108D01*
X142800106Y-48600000D02*
X142800106Y-47855272D01*
X141625000Y-48600000D02*
X141275000Y-48250000D01*
X142800106Y-48600000D02*
X141625000Y-48600000D01*
X141275000Y-51900000D02*
X141125000Y-52050000D01*
X141275000Y-48250000D02*
X141275000Y-51900000D01*
X147199894Y-47855526D02*
X146903730Y-47559362D01*
X147199894Y-48600000D02*
X147199894Y-47855526D01*
X146186180Y-49613714D02*
X147199894Y-48600000D01*
X146186180Y-49640638D02*
X146186180Y-49613714D01*
X143096524Y-47559362D02*
X143096270Y-47559108D01*
X146903730Y-47559362D02*
X143096524Y-47559362D01*
X146434980Y-49889438D02*
X146186180Y-49640638D01*
X146434980Y-52712620D02*
X146434980Y-49889438D01*
X133525000Y-48250000D02*
X141275000Y-48250000D01*
X133675000Y-48400000D02*
X133525000Y-48250000D01*
X133675000Y-52050000D02*
X133675000Y-48400000D01*
X133725000Y-52100000D02*
X133675000Y-52050000D01*
X136100000Y-52100000D02*
X133725000Y-52100000D01*
X117958668Y-53334920D02*
X116318735Y-51694987D01*
X121319300Y-53334920D02*
X117958668Y-53334920D01*
X116201387Y-51694987D02*
X113701265Y-54195109D01*
X116318735Y-51694987D02*
X116201387Y-51694987D01*
X134500620Y-54237720D02*
X134499520Y-54236620D01*
X134500620Y-55843000D02*
X134500620Y-54237720D01*
X134499520Y-52874520D02*
X133675000Y-52050000D01*
X134499520Y-54236620D02*
X134499520Y-52874520D01*
X130751688Y-52891790D02*
X132833210Y-52891790D01*
X132833210Y-52891790D02*
X133675000Y-52050000D01*
X130243580Y-53399898D02*
X130751688Y-52891790D01*
X130243580Y-53979900D02*
X130243580Y-53399898D01*
X131188460Y-58609040D02*
X129316480Y-58609040D01*
X117474724Y-92587594D02*
X114330480Y-95731838D01*
X117474724Y-82818936D02*
X117474724Y-92587594D01*
X114599720Y-79943932D02*
X117474724Y-82818936D01*
X112413020Y-88880692D02*
X114523520Y-88880692D01*
X111724716Y-89568996D02*
X112413020Y-88880692D01*
X111724716Y-93126074D02*
X111724716Y-89568996D01*
X114330480Y-95731838D02*
X111724716Y-93126074D01*
X146497040Y-52774680D02*
X146434980Y-52712620D01*
X146497040Y-59998800D02*
X146497040Y-52774680D01*
X139178981Y-90244041D02*
X137400050Y-88465110D01*
X148714841Y-90244041D02*
X139178981Y-90244041D01*
X149214840Y-90744040D02*
X148714841Y-90244041D01*
X144571274Y-77236320D02*
X146232880Y-77236320D01*
X143949948Y-76614994D02*
X144571274Y-77236320D01*
X135992574Y-76614994D02*
X135399780Y-76022200D01*
X143949948Y-76614994D02*
X135992574Y-76614994D01*
X142548380Y-65377060D02*
X142882620Y-65377060D01*
X142986760Y-65272920D02*
X147601940Y-65272920D01*
X142882620Y-65377060D02*
X142986760Y-65272920D01*
X142548380Y-66582520D02*
X140073380Y-69057520D01*
X142548380Y-65377060D02*
X142548380Y-66582520D01*
X136309100Y-67181540D02*
X135784780Y-66657220D01*
X136309100Y-67769740D02*
X136309100Y-67181540D01*
X136309100Y-67769740D02*
X132273040Y-71805800D01*
X127980756Y-71805800D02*
X127949980Y-71775024D01*
X132273040Y-71805800D02*
X127980756Y-71805800D01*
X126756160Y-70581204D02*
X127949980Y-71775024D01*
X126756160Y-70167500D02*
X126756160Y-70581204D01*
X130632501Y-67593319D02*
X130632501Y-69092503D01*
X130229501Y-67190319D02*
X130632501Y-67593319D01*
X130632501Y-69092503D02*
X127949980Y-71775024D01*
X126905601Y-67190319D02*
X130229501Y-67190319D01*
X125808780Y-68287140D02*
X126905601Y-67190319D01*
X124376152Y-70167500D02*
X126756160Y-70167500D01*
X114599720Y-79943932D02*
X124376152Y-70167500D01*
X131704622Y-61767720D02*
X128905000Y-61767720D01*
X135350630Y-58121712D02*
X131704622Y-61767720D01*
X135350630Y-56693010D02*
X135350630Y-58121712D01*
X134500620Y-55843000D02*
X135350630Y-56693010D01*
X129275840Y-58649680D02*
X129316480Y-58609040D01*
X128571071Y-57944911D02*
X129275840Y-58649680D01*
X116318735Y-57944911D02*
X128571071Y-57944911D01*
X123910010Y-66760908D02*
X114599720Y-76071198D01*
X114599720Y-76071198D02*
X114599720Y-79943932D01*
X123910010Y-64608768D02*
X123910010Y-66760908D01*
X126751058Y-61767720D02*
X123910010Y-64608768D01*
X128905000Y-61767720D02*
X126751058Y-61767720D01*
X112651267Y-54195109D02*
X113701265Y-54195109D01*
X112626266Y-56045044D02*
X112626266Y-54220110D01*
X112626266Y-54220110D02*
X112651267Y-54195109D01*
X114526133Y-57944911D02*
X112626266Y-56045044D01*
X116318735Y-57944911D02*
X114526133Y-57944911D01*
X128668579Y-53074899D02*
X128084580Y-53658898D01*
X130218579Y-53074899D02*
X128668579Y-53074899D01*
X130243580Y-53099900D02*
X130218579Y-53074899D01*
X128084580Y-53658898D02*
X128084580Y-53944520D01*
X130243580Y-53979900D02*
X130243580Y-53099900D01*
X127026000Y-51460400D02*
X126756760Y-51729640D01*
X127556260Y-51460400D02*
X127026000Y-51460400D01*
X117480080Y-50533642D02*
X116318735Y-51694987D01*
X117480080Y-50050700D02*
X117480080Y-50533642D01*
X132185390Y-73484952D02*
X127949980Y-73484952D01*
X138653821Y-66284141D02*
X138653821Y-67016521D01*
X138653821Y-67016521D02*
X132185390Y-73484952D01*
X142100902Y-62837060D02*
X138653821Y-66284141D01*
X142548380Y-62837060D02*
X142100902Y-62837060D01*
X151330660Y-63916560D02*
X150251160Y-62837060D01*
X151350980Y-63916560D02*
X151330660Y-63916560D01*
X150484840Y-90744040D02*
X152030270Y-90744040D01*
X153599990Y-66165570D02*
X151350980Y-63916560D01*
X153599990Y-89174320D02*
X153599990Y-66165570D01*
X150251160Y-62837060D02*
X142548380Y-62837060D01*
X152030270Y-90744040D02*
X153599990Y-89174320D01*
X145957391Y-86216591D02*
X138908298Y-86216591D01*
X149214840Y-89474040D02*
X145957391Y-86216591D01*
X126649981Y-82810151D02*
X126574981Y-82735151D01*
X138908298Y-86216591D02*
X135501859Y-82810151D01*
X135501859Y-82810151D02*
X126649981Y-82810151D01*
X126574981Y-82735151D02*
X126574981Y-80350173D01*
X126574981Y-80350173D02*
X126599982Y-80325172D01*
X126599982Y-80325172D02*
X127949980Y-80325172D01*
X139203831Y-67726261D02*
X131734958Y-75195134D01*
X139203831Y-67004131D02*
X139203831Y-67726261D01*
X142100902Y-64107060D02*
X139203831Y-67004131D01*
X131734958Y-75195134D02*
X127949980Y-75195134D01*
X142548380Y-64107060D02*
X142100902Y-64107060D01*
X150743329Y-64107060D02*
X142548380Y-64107060D01*
X151102839Y-64466570D02*
X150743329Y-64107060D01*
X151123160Y-64466570D02*
X151102839Y-64466570D01*
X153049980Y-66393390D02*
X151123160Y-64466570D01*
X153049980Y-88778340D02*
X153049980Y-66393390D01*
X152354280Y-89474040D02*
X153049980Y-88778340D01*
X150484840Y-89474040D02*
X152354280Y-89474040D01*
X135504640Y-82035100D02*
X127949980Y-82035100D01*
X139136120Y-85666580D02*
X135504640Y-82035100D01*
X149214840Y-88204040D02*
X146677380Y-85666580D01*
X146677380Y-85666580D02*
X139136120Y-85666580D01*
X126906020Y-50335780D02*
X126883160Y-50358640D01*
X129085340Y-50335780D02*
X126906020Y-50335780D01*
X131228320Y-57434180D02*
X131188460Y-57474040D01*
X132732780Y-57434180D02*
X131228320Y-57434180D01*
X131188460Y-56185020D02*
X131193580Y-56179900D01*
X131188460Y-57474040D02*
X131188460Y-56185020D01*
X134366800Y-57434180D02*
X134500620Y-57568000D01*
X132732780Y-57434180D02*
X134366800Y-57434180D01*
X114330480Y-65756282D02*
X114330480Y-65656460D01*
X114330480Y-65656460D02*
X119319040Y-60667900D01*
X131400720Y-60667900D02*
X134500620Y-57568000D01*
X119319040Y-60667900D02*
X131400720Y-60667900D01*
X114330480Y-69740780D02*
X114523520Y-69933820D01*
X114330480Y-65756282D02*
X114330480Y-69740780D01*
X148000000Y-77767500D02*
X148000000Y-77712020D01*
X145003054Y-74715074D02*
X143949948Y-74715074D01*
X148000000Y-77712020D02*
X145003054Y-74715074D01*
X129472020Y-50335780D02*
X130470278Y-51334038D01*
X129085340Y-50335780D02*
X129472020Y-50335780D01*
X130507740Y-56865740D02*
X131193580Y-56179900D01*
X130507740Y-56941720D02*
X130507740Y-56865740D01*
X114599720Y-66025522D02*
X114330480Y-65756282D01*
X114599720Y-69832164D02*
X114599720Y-66025522D01*
X147561300Y-78206200D02*
X148000000Y-77767500D01*
X147561300Y-78338680D02*
X147561300Y-78206200D01*
X137976314Y-74715074D02*
X136489440Y-73228200D01*
X143949948Y-74715074D02*
X137976314Y-74715074D01*
X128083372Y-83878420D02*
X127949980Y-83745028D01*
X129651760Y-83878420D02*
X128083372Y-83878420D01*
X134418179Y-80485099D02*
X133790177Y-81113101D01*
X133790177Y-81113101D02*
X133790177Y-81260100D01*
X149599957Y-83294220D02*
X141338300Y-83294220D01*
X151359841Y-85054104D02*
X149599957Y-83294220D01*
X138529179Y-80485099D02*
X134418179Y-80485099D01*
X141338300Y-83294220D02*
X138529179Y-80485099D01*
X151359841Y-86059039D02*
X151359841Y-85054104D01*
X150484840Y-86934040D02*
X151359841Y-86059039D01*
X127962722Y-87177880D02*
X127949980Y-87165138D01*
X129857500Y-87177880D02*
X127962722Y-87177880D01*
X139497970Y-85116570D02*
X135641500Y-81260100D01*
X135641500Y-81260100D02*
X134790180Y-81260100D01*
X148159570Y-85116570D02*
X139497970Y-85116570D01*
X148487101Y-84789039D02*
X148159570Y-85116570D01*
X150484840Y-84956934D02*
X150316945Y-84789039D01*
X150316945Y-84789039D02*
X148487101Y-84789039D01*
X150484840Y-85664040D02*
X150484840Y-84956934D01*
X144985268Y-52437332D02*
X144709980Y-52712620D01*
X144985268Y-49640638D02*
X144985268Y-52437332D01*
X143949948Y-84215182D02*
X142596658Y-84215182D01*
X140491422Y-84215182D02*
X139760960Y-83484720D01*
X142596658Y-84215182D02*
X140491422Y-84215182D01*
X144711420Y-52714060D02*
X144709980Y-52712620D01*
X144711420Y-53952140D02*
X144711420Y-52714060D01*
X147177412Y-80415088D02*
X148000000Y-79592500D01*
X143949948Y-80415088D02*
X147177412Y-80415088D01*
X149833640Y-79592500D02*
X149885400Y-79540740D01*
X148000000Y-79592500D02*
X149833640Y-79592500D01*
X143907996Y-78557120D02*
X143949948Y-78515168D01*
X141577060Y-78557120D02*
X143907996Y-78557120D01*
X123908780Y-68287140D02*
X124743879Y-69122239D01*
X124743879Y-69122239D02*
X128700581Y-69122239D01*
X128700581Y-69122239D02*
X129857500Y-67965320D01*
X126432098Y-76905062D02*
X125211840Y-78125320D01*
X127949980Y-76905062D02*
X126432098Y-76905062D01*
X138700000Y-51100000D02*
X137777700Y-50177700D01*
X137777700Y-50177700D02*
X137149840Y-50177700D01*
X138700000Y-52100000D02*
X138700000Y-51100000D01*
X126423380Y-54284920D02*
X124019300Y-54284920D01*
X126697740Y-54010560D02*
X126423380Y-54284920D01*
X137878820Y-65657500D02*
X137598380Y-65377060D01*
X137878820Y-66644520D02*
X137878820Y-65657500D01*
X137866120Y-66657220D02*
X137878820Y-66644520D01*
X136919780Y-66657220D02*
X137866120Y-66657220D01*
X120159177Y-55445043D02*
X121319300Y-54284920D01*
X113701265Y-55445043D02*
X120159177Y-55445043D01*
X132732780Y-54278360D02*
X132774520Y-54236620D01*
X131450300Y-54236620D02*
X131193580Y-53979900D01*
X132774520Y-54236620D02*
X131450300Y-54236620D01*
X130868581Y-54884901D02*
X129318581Y-54884901D01*
X129293580Y-54859900D02*
X129293580Y-53979900D01*
X129318581Y-54884901D02*
X129293580Y-54859900D01*
X131193580Y-54559902D02*
X130868581Y-54884901D01*
X131193580Y-53979900D02*
X131193580Y-54559902D01*
X128288559Y-54984921D02*
X122019301Y-54984921D01*
X122019301Y-54984921D02*
X121319300Y-54284920D01*
X129293580Y-53979900D02*
X128288559Y-54984921D01*
X149885400Y-77715740D02*
X143068680Y-70899020D01*
X143068680Y-70899020D02*
X137690860Y-70899020D01*
X132732780Y-55051960D02*
X132732780Y-54278360D01*
X132732780Y-55809180D02*
X132732780Y-55051960D01*
X129275840Y-56197640D02*
X129293580Y-56179900D01*
X129275840Y-57514680D02*
X129275840Y-56197640D01*
X126883160Y-47908160D02*
X126875000Y-47900000D01*
X126883160Y-49163640D02*
X126883160Y-47908160D01*
X121319300Y-51705700D02*
X125125000Y-47900000D01*
X121319300Y-52384920D02*
X121319300Y-51705700D01*
X129085340Y-47939660D02*
X129125000Y-47900000D01*
X129085340Y-49140780D02*
X129085340Y-47939660D01*
X131714240Y-48739240D02*
X130875000Y-47900000D01*
X127258740Y-52341780D02*
X131142740Y-52341780D01*
X131714240Y-51770280D02*
X131714240Y-48739240D01*
X124019300Y-53334920D02*
X126265600Y-53334920D01*
X126265600Y-53334920D02*
X127258740Y-52341780D01*
X131142740Y-52341780D02*
X131714240Y-51770280D01*
X123047500Y-65000000D02*
X123047500Y-64899800D01*
X116388482Y-71558818D02*
X111299658Y-71558818D01*
X123047500Y-64899800D02*
X116388482Y-71558818D01*
X111299658Y-71558818D02*
X107817920Y-68077080D01*
X124858780Y-65013720D02*
X124872500Y-65000000D01*
X124858780Y-66287140D02*
X124858780Y-65013720D01*
X124674580Y-51729640D02*
X124019300Y-52384920D01*
X125561760Y-51729640D02*
X124674580Y-51729640D01*
X142577780Y-61596460D02*
X142548380Y-61567060D01*
X146063780Y-61567060D02*
X146497040Y-61133800D01*
X142548380Y-61567060D02*
X146063780Y-61567060D01*
M02*
