G04 #@! TF.GenerationSoftware,KiCad,Pcbnew,(5.1.10-1-10_14)*
G04 #@! TF.CreationDate,2021-06-27T23:26:48+08:00*
G04 #@! TF.ProjectId,mops-out,6d6f7073-2d6f-4757-942e-6b696361645f,rev?*
G04 #@! TF.SameCoordinates,Original*
G04 #@! TF.FileFunction,Soldermask,Top*
G04 #@! TF.FilePolarity,Negative*
%FSLAX46Y46*%
G04 Gerber Fmt 4.6, Leading zero omitted, Abs format (unit mm)*
G04 Created by KiCad (PCBNEW (5.1.10-1-10_14)) date 2021-06-27 23:26:48*
%MOMM*%
%LPD*%
G01*
G04 APERTURE LIST*
%ADD10O,1.102000X1.102000*%
%ADD11C,2.601995*%
%ADD12O,5.101990X1.701997*%
%ADD13C,15.101995*%
%ADD14C,0.902000*%
%ADD15O,1.102000X1.902000*%
%ADD16O,1.102000X2.102000*%
%ADD17O,0.864000X1.626000*%
%ADD18C,0.100000*%
G04 APERTURE END LIST*
G36*
G01*
X143574380Y-65201560D02*
X143574380Y-65552560D01*
G75*
G02*
X143398880Y-65728060I-175500J0D01*
G01*
X141697880Y-65728060D01*
G75*
G02*
X141522380Y-65552560I0J175500D01*
G01*
X141522380Y-65201560D01*
G75*
G02*
X141697880Y-65026060I175500J0D01*
G01*
X143398880Y-65026060D01*
G75*
G02*
X143574380Y-65201560I0J-175500D01*
G01*
G37*
G36*
G01*
X143574380Y-63931560D02*
X143574380Y-64282560D01*
G75*
G02*
X143398880Y-64458060I-175500J0D01*
G01*
X141697880Y-64458060D01*
G75*
G02*
X141522380Y-64282560I0J175500D01*
G01*
X141522380Y-63931560D01*
G75*
G02*
X141697880Y-63756060I175500J0D01*
G01*
X143398880Y-63756060D01*
G75*
G02*
X143574380Y-63931560I0J-175500D01*
G01*
G37*
G36*
G01*
X143574380Y-62661560D02*
X143574380Y-63012560D01*
G75*
G02*
X143398880Y-63188060I-175500J0D01*
G01*
X141697880Y-63188060D01*
G75*
G02*
X141522380Y-63012560I0J175500D01*
G01*
X141522380Y-62661560D01*
G75*
G02*
X141697880Y-62486060I175500J0D01*
G01*
X143398880Y-62486060D01*
G75*
G02*
X143574380Y-62661560I0J-175500D01*
G01*
G37*
G36*
G01*
X143574380Y-61391560D02*
X143574380Y-61742560D01*
G75*
G02*
X143398880Y-61918060I-175500J0D01*
G01*
X141697880Y-61918060D01*
G75*
G02*
X141522380Y-61742560I0J175500D01*
G01*
X141522380Y-61391560D01*
G75*
G02*
X141697880Y-61216060I175500J0D01*
G01*
X143398880Y-61216060D01*
G75*
G02*
X143574380Y-61391560I0J-175500D01*
G01*
G37*
G36*
G01*
X143574380Y-60121560D02*
X143574380Y-60472560D01*
G75*
G02*
X143398880Y-60648060I-175500J0D01*
G01*
X141697880Y-60648060D01*
G75*
G02*
X141522380Y-60472560I0J175500D01*
G01*
X141522380Y-60121560D01*
G75*
G02*
X141697880Y-59946060I175500J0D01*
G01*
X143398880Y-59946060D01*
G75*
G02*
X143574380Y-60121560I0J-175500D01*
G01*
G37*
G36*
G01*
X143574380Y-58851560D02*
X143574380Y-59202560D01*
G75*
G02*
X143398880Y-59378060I-175500J0D01*
G01*
X141697880Y-59378060D01*
G75*
G02*
X141522380Y-59202560I0J175500D01*
G01*
X141522380Y-58851560D01*
G75*
G02*
X141697880Y-58676060I175500J0D01*
G01*
X143398880Y-58676060D01*
G75*
G02*
X143574380Y-58851560I0J-175500D01*
G01*
G37*
G36*
G01*
X143574380Y-57581560D02*
X143574380Y-57932560D01*
G75*
G02*
X143398880Y-58108060I-175500J0D01*
G01*
X141697880Y-58108060D01*
G75*
G02*
X141522380Y-57932560I0J175500D01*
G01*
X141522380Y-57581560D01*
G75*
G02*
X141697880Y-57406060I175500J0D01*
G01*
X143398880Y-57406060D01*
G75*
G02*
X143574380Y-57581560I0J-175500D01*
G01*
G37*
G36*
G01*
X143574380Y-56311560D02*
X143574380Y-56662560D01*
G75*
G02*
X143398880Y-56838060I-175500J0D01*
G01*
X141697880Y-56838060D01*
G75*
G02*
X141522380Y-56662560I0J175500D01*
G01*
X141522380Y-56311560D01*
G75*
G02*
X141697880Y-56136060I175500J0D01*
G01*
X143398880Y-56136060D01*
G75*
G02*
X143574380Y-56311560I0J-175500D01*
G01*
G37*
G36*
G01*
X138624380Y-56311560D02*
X138624380Y-56662560D01*
G75*
G02*
X138448880Y-56838060I-175500J0D01*
G01*
X136747880Y-56838060D01*
G75*
G02*
X136572380Y-56662560I0J175500D01*
G01*
X136572380Y-56311560D01*
G75*
G02*
X136747880Y-56136060I175500J0D01*
G01*
X138448880Y-56136060D01*
G75*
G02*
X138624380Y-56311560I0J-175500D01*
G01*
G37*
G36*
G01*
X138624380Y-57581560D02*
X138624380Y-57932560D01*
G75*
G02*
X138448880Y-58108060I-175500J0D01*
G01*
X136747880Y-58108060D01*
G75*
G02*
X136572380Y-57932560I0J175500D01*
G01*
X136572380Y-57581560D01*
G75*
G02*
X136747880Y-57406060I175500J0D01*
G01*
X138448880Y-57406060D01*
G75*
G02*
X138624380Y-57581560I0J-175500D01*
G01*
G37*
G36*
G01*
X138624380Y-58851560D02*
X138624380Y-59202560D01*
G75*
G02*
X138448880Y-59378060I-175500J0D01*
G01*
X136747880Y-59378060D01*
G75*
G02*
X136572380Y-59202560I0J175500D01*
G01*
X136572380Y-58851560D01*
G75*
G02*
X136747880Y-58676060I175500J0D01*
G01*
X138448880Y-58676060D01*
G75*
G02*
X138624380Y-58851560I0J-175500D01*
G01*
G37*
G36*
G01*
X138624380Y-60121560D02*
X138624380Y-60472560D01*
G75*
G02*
X138448880Y-60648060I-175500J0D01*
G01*
X136747880Y-60648060D01*
G75*
G02*
X136572380Y-60472560I0J175500D01*
G01*
X136572380Y-60121560D01*
G75*
G02*
X136747880Y-59946060I175500J0D01*
G01*
X138448880Y-59946060D01*
G75*
G02*
X138624380Y-60121560I0J-175500D01*
G01*
G37*
G36*
G01*
X138624380Y-61391560D02*
X138624380Y-61742560D01*
G75*
G02*
X138448880Y-61918060I-175500J0D01*
G01*
X136747880Y-61918060D01*
G75*
G02*
X136572380Y-61742560I0J175500D01*
G01*
X136572380Y-61391560D01*
G75*
G02*
X136747880Y-61216060I175500J0D01*
G01*
X138448880Y-61216060D01*
G75*
G02*
X138624380Y-61391560I0J-175500D01*
G01*
G37*
G36*
G01*
X138624380Y-62661560D02*
X138624380Y-63012560D01*
G75*
G02*
X138448880Y-63188060I-175500J0D01*
G01*
X136747880Y-63188060D01*
G75*
G02*
X136572380Y-63012560I0J175500D01*
G01*
X136572380Y-62661560D01*
G75*
G02*
X136747880Y-62486060I175500J0D01*
G01*
X138448880Y-62486060D01*
G75*
G02*
X138624380Y-62661560I0J-175500D01*
G01*
G37*
G36*
G01*
X138624380Y-63931560D02*
X138624380Y-64282560D01*
G75*
G02*
X138448880Y-64458060I-175500J0D01*
G01*
X136747880Y-64458060D01*
G75*
G02*
X136572380Y-64282560I0J175500D01*
G01*
X136572380Y-63931560D01*
G75*
G02*
X136747880Y-63756060I175500J0D01*
G01*
X138448880Y-63756060D01*
G75*
G02*
X138624380Y-63931560I0J-175500D01*
G01*
G37*
G36*
G01*
X138624380Y-65201560D02*
X138624380Y-65552560D01*
G75*
G02*
X138448880Y-65728060I-175500J0D01*
G01*
X136747880Y-65728060D01*
G75*
G02*
X136572380Y-65552560I0J175500D01*
G01*
X136572380Y-65201560D01*
G75*
G02*
X136747880Y-65026060I175500J0D01*
G01*
X138448880Y-65026060D01*
G75*
G02*
X138624380Y-65201560I0J-175500D01*
G01*
G37*
G36*
G01*
X148663840Y-86164040D02*
X148663840Y-85164040D01*
G75*
G02*
X148714840Y-85113040I51000J0D01*
G01*
X149714840Y-85113040D01*
G75*
G02*
X149765840Y-85164040I0J-51000D01*
G01*
X149765840Y-86164040D01*
G75*
G02*
X149714840Y-86215040I-51000J0D01*
G01*
X148714840Y-86215040D01*
G75*
G02*
X148663840Y-86164040I0J51000D01*
G01*
G37*
D10*
X150484840Y-85664040D03*
X150484840Y-86934040D03*
X149214840Y-86934040D03*
X150484840Y-88204040D03*
X149214840Y-88204040D03*
X150484840Y-89474040D03*
X149214840Y-89474040D03*
X150484840Y-90744040D03*
X149214840Y-90744040D03*
G36*
G01*
X146677540Y-61552300D02*
X146316540Y-61552300D01*
G75*
G02*
X146136040Y-61371800I0J180500D01*
G01*
X146136040Y-60895800D01*
G75*
G02*
X146316540Y-60715300I180500J0D01*
G01*
X146677540Y-60715300D01*
G75*
G02*
X146858040Y-60895800I0J-180500D01*
G01*
X146858040Y-61371800D01*
G75*
G02*
X146677540Y-61552300I-180500J0D01*
G01*
G37*
G36*
G01*
X146677540Y-60417300D02*
X146316540Y-60417300D01*
G75*
G02*
X146136040Y-60236800I0J180500D01*
G01*
X146136040Y-59760800D01*
G75*
G02*
X146316540Y-59580300I180500J0D01*
G01*
X146677540Y-59580300D01*
G75*
G02*
X146858040Y-59760800I0J-180500D01*
G01*
X146858040Y-60236800D01*
G75*
G02*
X146677540Y-60417300I-180500J0D01*
G01*
G37*
G36*
G01*
X137338280Y-66476720D02*
X137338280Y-66837720D01*
G75*
G02*
X137157780Y-67018220I-180500J0D01*
G01*
X136681780Y-67018220D01*
G75*
G02*
X136501280Y-66837720I0J180500D01*
G01*
X136501280Y-66476720D01*
G75*
G02*
X136681780Y-66296220I180500J0D01*
G01*
X137157780Y-66296220D01*
G75*
G02*
X137338280Y-66476720I0J-180500D01*
G01*
G37*
G36*
G01*
X136203280Y-66476720D02*
X136203280Y-66837720D01*
G75*
G02*
X136022780Y-67018220I-180500J0D01*
G01*
X135546780Y-67018220D01*
G75*
G02*
X135366280Y-66837720I0J180500D01*
G01*
X135366280Y-66476720D01*
G75*
G02*
X135546780Y-66296220I180500J0D01*
G01*
X136022780Y-66296220D01*
G75*
G02*
X136203280Y-66476720I0J-180500D01*
G01*
G37*
G36*
G01*
X132970780Y-56472680D02*
X132494780Y-56472680D01*
G75*
G02*
X132256780Y-56234680I0J238000D01*
G01*
X132256780Y-55383680D01*
G75*
G02*
X132494780Y-55145680I238000J0D01*
G01*
X132970780Y-55145680D01*
G75*
G02*
X133208780Y-55383680I0J-238000D01*
G01*
X133208780Y-56234680D01*
G75*
G02*
X132970780Y-56472680I-238000J0D01*
G01*
G37*
G36*
G01*
X132970780Y-58097680D02*
X132494780Y-58097680D01*
G75*
G02*
X132256780Y-57859680I0J238000D01*
G01*
X132256780Y-57008680D01*
G75*
G02*
X132494780Y-56770680I238000J0D01*
G01*
X132970780Y-56770680D01*
G75*
G02*
X133208780Y-57008680I0J-238000D01*
G01*
X133208780Y-57859680D01*
G75*
G02*
X132970780Y-58097680I-238000J0D01*
G01*
G37*
G36*
G01*
X116430476Y-67557278D02*
X112230484Y-67557278D01*
G75*
G02*
X112179484Y-67506278I0J51000D01*
G01*
X112179484Y-64006286D01*
G75*
G02*
X112230484Y-63955286I51000J0D01*
G01*
X116430476Y-63955286D01*
G75*
G02*
X116481476Y-64006286I0J-51000D01*
G01*
X116481476Y-67506278D01*
G75*
G02*
X116430476Y-67557278I-51000J0D01*
G01*
G37*
G36*
G01*
X116430476Y-97532834D02*
X112230484Y-97532834D01*
G75*
G02*
X112179484Y-97481834I0J51000D01*
G01*
X112179484Y-93981842D01*
G75*
G02*
X112230484Y-93930842I51000J0D01*
G01*
X116430476Y-93930842D01*
G75*
G02*
X116481476Y-93981842I0J-51000D01*
G01*
X116481476Y-97481834D01*
G75*
G02*
X116430476Y-97532834I-51000J0D01*
G01*
G37*
D11*
X114523520Y-89933780D03*
X114523520Y-69933820D03*
D12*
X114599720Y-90055700D03*
X114599720Y-69832164D03*
D13*
X114599720Y-79943932D03*
D14*
X134900000Y-51000000D03*
X139900000Y-51000000D03*
D15*
X133525000Y-48250000D03*
X141275000Y-48250000D03*
D16*
X133675000Y-52050000D03*
X141125000Y-52050000D03*
G36*
G01*
X136376000Y-51450000D02*
X136376000Y-52750000D01*
G75*
G02*
X136325000Y-52801000I-51000J0D01*
G01*
X135875000Y-52801000D01*
G75*
G02*
X135824000Y-52750000I0J51000D01*
G01*
X135824000Y-51450000D01*
G75*
G02*
X135875000Y-51399000I51000J0D01*
G01*
X136325000Y-51399000D01*
G75*
G02*
X136376000Y-51450000I0J-51000D01*
G01*
G37*
G36*
G01*
X137026000Y-51450000D02*
X137026000Y-52750000D01*
G75*
G02*
X136975000Y-52801000I-51000J0D01*
G01*
X136525000Y-52801000D01*
G75*
G02*
X136474000Y-52750000I0J51000D01*
G01*
X136474000Y-51450000D01*
G75*
G02*
X136525000Y-51399000I51000J0D01*
G01*
X136975000Y-51399000D01*
G75*
G02*
X137026000Y-51450000I0J-51000D01*
G01*
G37*
G36*
G01*
X137676000Y-51450000D02*
X137676000Y-52750000D01*
G75*
G02*
X137625000Y-52801000I-51000J0D01*
G01*
X137175000Y-52801000D01*
G75*
G02*
X137124000Y-52750000I0J51000D01*
G01*
X137124000Y-51450000D01*
G75*
G02*
X137175000Y-51399000I51000J0D01*
G01*
X137625000Y-51399000D01*
G75*
G02*
X137676000Y-51450000I0J-51000D01*
G01*
G37*
G36*
G01*
X138326000Y-51450000D02*
X138326000Y-52750000D01*
G75*
G02*
X138275000Y-52801000I-51000J0D01*
G01*
X137825000Y-52801000D01*
G75*
G02*
X137774000Y-52750000I0J51000D01*
G01*
X137774000Y-51450000D01*
G75*
G02*
X137825000Y-51399000I51000J0D01*
G01*
X138275000Y-51399000D01*
G75*
G02*
X138326000Y-51450000I0J-51000D01*
G01*
G37*
G36*
G01*
X138976000Y-51450000D02*
X138976000Y-52750000D01*
G75*
G02*
X138925000Y-52801000I-51000J0D01*
G01*
X138475000Y-52801000D01*
G75*
G02*
X138424000Y-52750000I0J51000D01*
G01*
X138424000Y-51450000D01*
G75*
G02*
X138475000Y-51399000I51000J0D01*
G01*
X138925000Y-51399000D01*
G75*
G02*
X138976000Y-51450000I0J-51000D01*
G01*
G37*
G36*
G01*
X124334000Y-65263000D02*
X124334000Y-64737000D01*
G75*
G02*
X124597000Y-64474000I263000J0D01*
G01*
X125148000Y-64474000D01*
G75*
G02*
X125411000Y-64737000I0J-263000D01*
G01*
X125411000Y-65263000D01*
G75*
G02*
X125148000Y-65526000I-263000J0D01*
G01*
X124597000Y-65526000D01*
G75*
G02*
X124334000Y-65263000I0J263000D01*
G01*
G37*
G36*
G01*
X122509000Y-65263000D02*
X122509000Y-64737000D01*
G75*
G02*
X122772000Y-64474000I263000J0D01*
G01*
X123323000Y-64474000D01*
G75*
G02*
X123586000Y-64737000I0J-263000D01*
G01*
X123586000Y-65263000D01*
G75*
G02*
X123323000Y-65526000I-263000J0D01*
G01*
X122772000Y-65526000D01*
G75*
G02*
X122509000Y-65263000I0J263000D01*
G01*
G37*
G36*
G01*
X149622400Y-79002240D02*
X150148400Y-79002240D01*
G75*
G02*
X150411400Y-79265240I0J-263000D01*
G01*
X150411400Y-79816240D01*
G75*
G02*
X150148400Y-80079240I-263000J0D01*
G01*
X149622400Y-80079240D01*
G75*
G02*
X149359400Y-79816240I0J263000D01*
G01*
X149359400Y-79265240D01*
G75*
G02*
X149622400Y-79002240I263000J0D01*
G01*
G37*
G36*
G01*
X149622400Y-77177240D02*
X150148400Y-77177240D01*
G75*
G02*
X150411400Y-77440240I0J-263000D01*
G01*
X150411400Y-77991240D01*
G75*
G02*
X150148400Y-78254240I-263000J0D01*
G01*
X149622400Y-78254240D01*
G75*
G02*
X149359400Y-77991240I0J263000D01*
G01*
X149359400Y-77440240D01*
G75*
G02*
X149622400Y-77177240I263000J0D01*
G01*
G37*
G36*
G01*
X147737000Y-79054000D02*
X148263000Y-79054000D01*
G75*
G02*
X148526000Y-79317000I0J-263000D01*
G01*
X148526000Y-79868000D01*
G75*
G02*
X148263000Y-80131000I-263000J0D01*
G01*
X147737000Y-80131000D01*
G75*
G02*
X147474000Y-79868000I0J263000D01*
G01*
X147474000Y-79317000D01*
G75*
G02*
X147737000Y-79054000I263000J0D01*
G01*
G37*
G36*
G01*
X147737000Y-77229000D02*
X148263000Y-77229000D01*
G75*
G02*
X148526000Y-77492000I0J-263000D01*
G01*
X148526000Y-78043000D01*
G75*
G02*
X148263000Y-78306000I-263000J0D01*
G01*
X147737000Y-78306000D01*
G75*
G02*
X147474000Y-78043000I0J263000D01*
G01*
X147474000Y-77492000D01*
G75*
G02*
X147737000Y-77229000I263000J0D01*
G01*
G37*
G36*
G01*
X129270840Y-49549280D02*
X128899840Y-49549280D01*
G75*
G02*
X128714340Y-49363780I0J185500D01*
G01*
X128714340Y-48917780D01*
G75*
G02*
X128899840Y-48732280I185500J0D01*
G01*
X129270840Y-48732280D01*
G75*
G02*
X129456340Y-48917780I0J-185500D01*
G01*
X129456340Y-49363780D01*
G75*
G02*
X129270840Y-49549280I-185500J0D01*
G01*
G37*
G36*
G01*
X129270840Y-50744280D02*
X128899840Y-50744280D01*
G75*
G02*
X128714340Y-50558780I0J185500D01*
G01*
X128714340Y-50112780D01*
G75*
G02*
X128899840Y-49927280I185500J0D01*
G01*
X129270840Y-49927280D01*
G75*
G02*
X129456340Y-50112780I0J-185500D01*
G01*
X129456340Y-50558780D01*
G75*
G02*
X129270840Y-50744280I-185500J0D01*
G01*
G37*
G36*
G01*
X125970260Y-51544140D02*
X125970260Y-51915140D01*
G75*
G02*
X125784760Y-52100640I-185500J0D01*
G01*
X125338760Y-52100640D01*
G75*
G02*
X125153260Y-51915140I0J185500D01*
G01*
X125153260Y-51544140D01*
G75*
G02*
X125338760Y-51358640I185500J0D01*
G01*
X125784760Y-51358640D01*
G75*
G02*
X125970260Y-51544140I0J-185500D01*
G01*
G37*
G36*
G01*
X127165260Y-51544140D02*
X127165260Y-51915140D01*
G75*
G02*
X126979760Y-52100640I-185500J0D01*
G01*
X126533760Y-52100640D01*
G75*
G02*
X126348260Y-51915140I0J185500D01*
G01*
X126348260Y-51544140D01*
G75*
G02*
X126533760Y-51358640I185500J0D01*
G01*
X126979760Y-51358640D01*
G75*
G02*
X127165260Y-51544140I0J-185500D01*
G01*
G37*
G36*
G01*
X126697660Y-49950140D02*
X127068660Y-49950140D01*
G75*
G02*
X127254160Y-50135640I0J-185500D01*
G01*
X127254160Y-50581640D01*
G75*
G02*
X127068660Y-50767140I-185500J0D01*
G01*
X126697660Y-50767140D01*
G75*
G02*
X126512160Y-50581640I0J185500D01*
G01*
X126512160Y-50135640D01*
G75*
G02*
X126697660Y-49950140I185500J0D01*
G01*
G37*
G36*
G01*
X126697660Y-48755140D02*
X127068660Y-48755140D01*
G75*
G02*
X127254160Y-48940640I0J-185500D01*
G01*
X127254160Y-49386640D01*
G75*
G02*
X127068660Y-49572140I-185500J0D01*
G01*
X126697660Y-49572140D01*
G75*
G02*
X126512160Y-49386640I0J185500D01*
G01*
X126512160Y-48940640D01*
G75*
G02*
X126697660Y-48755140I185500J0D01*
G01*
G37*
G36*
G01*
X125258780Y-66788140D02*
X124458780Y-66788140D01*
G75*
G02*
X124407780Y-66737140I0J51000D01*
G01*
X124407780Y-65837140D01*
G75*
G02*
X124458780Y-65786140I51000J0D01*
G01*
X125258780Y-65786140D01*
G75*
G02*
X125309780Y-65837140I0J-51000D01*
G01*
X125309780Y-66737140D01*
G75*
G02*
X125258780Y-66788140I-51000J0D01*
G01*
G37*
G36*
G01*
X126208780Y-68788140D02*
X125408780Y-68788140D01*
G75*
G02*
X125357780Y-68737140I0J51000D01*
G01*
X125357780Y-67837140D01*
G75*
G02*
X125408780Y-67786140I51000J0D01*
G01*
X126208780Y-67786140D01*
G75*
G02*
X126259780Y-67837140I0J-51000D01*
G01*
X126259780Y-68737140D01*
G75*
G02*
X126208780Y-68788140I-51000J0D01*
G01*
G37*
G36*
G01*
X124308780Y-68788140D02*
X123508780Y-68788140D01*
G75*
G02*
X123457780Y-68737140I0J51000D01*
G01*
X123457780Y-67837140D01*
G75*
G02*
X123508780Y-67786140I51000J0D01*
G01*
X124308780Y-67786140D01*
G75*
G02*
X124359780Y-67837140I0J-51000D01*
G01*
X124359780Y-68737140D01*
G75*
G02*
X124308780Y-68788140I-51000J0D01*
G01*
G37*
G36*
G01*
X129701000Y-47637000D02*
X129701000Y-48163000D01*
G75*
G02*
X129438000Y-48426000I-263000J0D01*
G01*
X128812000Y-48426000D01*
G75*
G02*
X128549000Y-48163000I0J263000D01*
G01*
X128549000Y-47637000D01*
G75*
G02*
X128812000Y-47374000I263000J0D01*
G01*
X129438000Y-47374000D01*
G75*
G02*
X129701000Y-47637000I0J-263000D01*
G01*
G37*
G36*
G01*
X131451000Y-47637000D02*
X131451000Y-48163000D01*
G75*
G02*
X131188000Y-48426000I-263000J0D01*
G01*
X130562000Y-48426000D01*
G75*
G02*
X130299000Y-48163000I0J263000D01*
G01*
X130299000Y-47637000D01*
G75*
G02*
X130562000Y-47374000I263000J0D01*
G01*
X131188000Y-47374000D01*
G75*
G02*
X131451000Y-47637000I0J-263000D01*
G01*
G37*
G36*
G01*
X126299000Y-48163000D02*
X126299000Y-47637000D01*
G75*
G02*
X126562000Y-47374000I263000J0D01*
G01*
X127188000Y-47374000D01*
G75*
G02*
X127451000Y-47637000I0J-263000D01*
G01*
X127451000Y-48163000D01*
G75*
G02*
X127188000Y-48426000I-263000J0D01*
G01*
X126562000Y-48426000D01*
G75*
G02*
X126299000Y-48163000I0J263000D01*
G01*
G37*
G36*
G01*
X124549000Y-48163000D02*
X124549000Y-47637000D01*
G75*
G02*
X124812000Y-47374000I263000J0D01*
G01*
X125438000Y-47374000D01*
G75*
G02*
X125701000Y-47637000I0J-263000D01*
G01*
X125701000Y-48163000D01*
G75*
G02*
X125438000Y-48426000I-263000J0D01*
G01*
X124812000Y-48426000D01*
G75*
G02*
X124549000Y-48163000I0J263000D01*
G01*
G37*
G36*
G01*
X145846480Y-52975620D02*
X145846480Y-52449620D01*
G75*
G02*
X146109480Y-52186620I263000J0D01*
G01*
X146760480Y-52186620D01*
G75*
G02*
X147023480Y-52449620I0J-263000D01*
G01*
X147023480Y-52975620D01*
G75*
G02*
X146760480Y-53238620I-263000J0D01*
G01*
X146109480Y-53238620D01*
G75*
G02*
X145846480Y-52975620I0J263000D01*
G01*
G37*
G36*
G01*
X144121480Y-52975620D02*
X144121480Y-52449620D01*
G75*
G02*
X144384480Y-52186620I263000J0D01*
G01*
X145035480Y-52186620D01*
G75*
G02*
X145298480Y-52449620I0J-263000D01*
G01*
X145298480Y-52975620D01*
G75*
G02*
X145035480Y-53238620I-263000J0D01*
G01*
X144384480Y-53238620D01*
G75*
G02*
X144121480Y-52975620I0J263000D01*
G01*
G37*
G36*
G01*
X133911020Y-54499620D02*
X133911020Y-53973620D01*
G75*
G02*
X134174020Y-53710620I263000J0D01*
G01*
X134825020Y-53710620D01*
G75*
G02*
X135088020Y-53973620I0J-263000D01*
G01*
X135088020Y-54499620D01*
G75*
G02*
X134825020Y-54762620I-263000J0D01*
G01*
X134174020Y-54762620D01*
G75*
G02*
X133911020Y-54499620I0J263000D01*
G01*
G37*
G36*
G01*
X132186020Y-54499620D02*
X132186020Y-53973620D01*
G75*
G02*
X132449020Y-53710620I263000J0D01*
G01*
X133100020Y-53710620D01*
G75*
G02*
X133363020Y-53973620I0J-263000D01*
G01*
X133363020Y-54499620D01*
G75*
G02*
X133100020Y-54762620I-263000J0D01*
G01*
X132449020Y-54762620D01*
G75*
G02*
X132186020Y-54499620I0J263000D01*
G01*
G37*
G36*
G01*
X129095340Y-58231180D02*
X129456340Y-58231180D01*
G75*
G02*
X129636840Y-58411680I0J-180500D01*
G01*
X129636840Y-58887680D01*
G75*
G02*
X129456340Y-59068180I-180500J0D01*
G01*
X129095340Y-59068180D01*
G75*
G02*
X128914840Y-58887680I0J180500D01*
G01*
X128914840Y-58411680D01*
G75*
G02*
X129095340Y-58231180I180500J0D01*
G01*
G37*
G36*
G01*
X129095340Y-57096180D02*
X129456340Y-57096180D01*
G75*
G02*
X129636840Y-57276680I0J-180500D01*
G01*
X129636840Y-57752680D01*
G75*
G02*
X129456340Y-57933180I-180500J0D01*
G01*
X129095340Y-57933180D01*
G75*
G02*
X128914840Y-57752680I0J180500D01*
G01*
X128914840Y-57276680D01*
G75*
G02*
X129095340Y-57096180I180500J0D01*
G01*
G37*
G36*
G01*
X134763620Y-56431500D02*
X134237620Y-56431500D01*
G75*
G02*
X133974620Y-56168500I0J263000D01*
G01*
X133974620Y-55517500D01*
G75*
G02*
X134237620Y-55254500I263000J0D01*
G01*
X134763620Y-55254500D01*
G75*
G02*
X135026620Y-55517500I0J-263000D01*
G01*
X135026620Y-56168500D01*
G75*
G02*
X134763620Y-56431500I-263000J0D01*
G01*
G37*
G36*
G01*
X134763620Y-58156500D02*
X134237620Y-58156500D01*
G75*
G02*
X133974620Y-57893500I0J263000D01*
G01*
X133974620Y-57242500D01*
G75*
G02*
X134237620Y-56979500I263000J0D01*
G01*
X134763620Y-56979500D01*
G75*
G02*
X135026620Y-57242500I0J-263000D01*
G01*
X135026620Y-57893500D01*
G75*
G02*
X134763620Y-58156500I-263000J0D01*
G01*
G37*
G36*
G01*
X131007960Y-58190540D02*
X131368960Y-58190540D01*
G75*
G02*
X131549460Y-58371040I0J-180500D01*
G01*
X131549460Y-58847040D01*
G75*
G02*
X131368960Y-59027540I-180500J0D01*
G01*
X131007960Y-59027540D01*
G75*
G02*
X130827460Y-58847040I0J180500D01*
G01*
X130827460Y-58371040D01*
G75*
G02*
X131007960Y-58190540I180500J0D01*
G01*
G37*
G36*
G01*
X131007960Y-57055540D02*
X131368960Y-57055540D01*
G75*
G02*
X131549460Y-57236040I0J-180500D01*
G01*
X131549460Y-57712040D01*
G75*
G02*
X131368960Y-57892540I-180500J0D01*
G01*
X131007960Y-57892540D01*
G75*
G02*
X130827460Y-57712040I0J180500D01*
G01*
X130827460Y-57236040D01*
G75*
G02*
X131007960Y-57055540I180500J0D01*
G01*
G37*
G36*
G01*
X117618732Y-58945909D02*
X115018738Y-58945909D01*
G75*
G02*
X114967738Y-58894909I0J51000D01*
G01*
X114967738Y-56994913D01*
G75*
G02*
X115018738Y-56943913I51000J0D01*
G01*
X117618732Y-56943913D01*
G75*
G02*
X117669732Y-56994913I0J-51000D01*
G01*
X117669732Y-58894909D01*
G75*
G02*
X117618732Y-58945909I-51000J0D01*
G01*
G37*
G36*
G01*
X117618732Y-52695985D02*
X115018738Y-52695985D01*
G75*
G02*
X114967738Y-52644985I0J51000D01*
G01*
X114967738Y-50744989D01*
G75*
G02*
X115018738Y-50693989I51000J0D01*
G01*
X117618732Y-50693989D01*
G75*
G02*
X117669732Y-50744989I0J-51000D01*
G01*
X117669732Y-52644985D01*
G75*
G02*
X117618732Y-52695985I-51000J0D01*
G01*
G37*
G36*
G01*
X114401264Y-54546108D02*
X113001266Y-54546108D01*
G75*
G02*
X112950267Y-54495109I0J50999D01*
G01*
X112950267Y-53895109D01*
G75*
G02*
X113001266Y-53844110I50999J0D01*
G01*
X114401264Y-53844110D01*
G75*
G02*
X114452263Y-53895109I0J-50999D01*
G01*
X114452263Y-54495109D01*
G75*
G02*
X114401264Y-54546108I-50999J0D01*
G01*
G37*
G36*
G01*
X114401264Y-55796042D02*
X113001266Y-55796042D01*
G75*
G02*
X112950267Y-55745043I0J50999D01*
G01*
X112950267Y-55145043D01*
G75*
G02*
X113001266Y-55094044I50999J0D01*
G01*
X114401264Y-55094044D01*
G75*
G02*
X114452263Y-55145043I0J-50999D01*
G01*
X114452263Y-55745043D01*
G75*
G02*
X114401264Y-55796042I-50999J0D01*
G01*
G37*
G36*
G01*
X130868579Y-55598900D02*
X131518581Y-55598900D01*
G75*
G02*
X131569580Y-55649899I0J-50999D01*
G01*
X131569580Y-56709901D01*
G75*
G02*
X131518581Y-56760900I-50999J0D01*
G01*
X130868579Y-56760900D01*
G75*
G02*
X130817580Y-56709901I0J50999D01*
G01*
X130817580Y-55649899D01*
G75*
G02*
X130868579Y-55598900I50999J0D01*
G01*
G37*
G36*
G01*
X128968579Y-55598900D02*
X129618581Y-55598900D01*
G75*
G02*
X129669580Y-55649899I0J-50999D01*
G01*
X129669580Y-56709901D01*
G75*
G02*
X129618581Y-56760900I-50999J0D01*
G01*
X128968579Y-56760900D01*
G75*
G02*
X128917580Y-56709901I0J50999D01*
G01*
X128917580Y-55649899D01*
G75*
G02*
X128968579Y-55598900I50999J0D01*
G01*
G37*
G36*
G01*
X128968579Y-53398900D02*
X129618581Y-53398900D01*
G75*
G02*
X129669580Y-53449899I0J-50999D01*
G01*
X129669580Y-54509901D01*
G75*
G02*
X129618581Y-54560900I-50999J0D01*
G01*
X128968579Y-54560900D01*
G75*
G02*
X128917580Y-54509901I0J50999D01*
G01*
X128917580Y-53449899D01*
G75*
G02*
X128968579Y-53398900I50999J0D01*
G01*
G37*
G36*
G01*
X129918579Y-53398900D02*
X130568581Y-53398900D01*
G75*
G02*
X130619580Y-53449899I0J-50999D01*
G01*
X130619580Y-54509901D01*
G75*
G02*
X130568581Y-54560900I-50999J0D01*
G01*
X129918579Y-54560900D01*
G75*
G02*
X129867580Y-54509901I0J50999D01*
G01*
X129867580Y-53449899D01*
G75*
G02*
X129918579Y-53398900I50999J0D01*
G01*
G37*
G36*
G01*
X130868579Y-53398900D02*
X131518581Y-53398900D01*
G75*
G02*
X131569580Y-53449899I0J-50999D01*
G01*
X131569580Y-54509901D01*
G75*
G02*
X131518581Y-54560900I-50999J0D01*
G01*
X130868579Y-54560900D01*
G75*
G02*
X130817580Y-54509901I0J50999D01*
G01*
X130817580Y-53449899D01*
G75*
G02*
X130868579Y-53398900I50999J0D01*
G01*
G37*
G36*
G01*
X123188300Y-53659921D02*
X123188300Y-53009919D01*
G75*
G02*
X123239299Y-52958920I50999J0D01*
G01*
X124799301Y-52958920D01*
G75*
G02*
X124850300Y-53009919I0J-50999D01*
G01*
X124850300Y-53659921D01*
G75*
G02*
X124799301Y-53710920I-50999J0D01*
G01*
X123239299Y-53710920D01*
G75*
G02*
X123188300Y-53659921I0J50999D01*
G01*
G37*
G36*
G01*
X123188300Y-52709921D02*
X123188300Y-52059919D01*
G75*
G02*
X123239299Y-52008920I50999J0D01*
G01*
X124799301Y-52008920D01*
G75*
G02*
X124850300Y-52059919I0J-50999D01*
G01*
X124850300Y-52709921D01*
G75*
G02*
X124799301Y-52760920I-50999J0D01*
G01*
X123239299Y-52760920D01*
G75*
G02*
X123188300Y-52709921I0J50999D01*
G01*
G37*
G36*
G01*
X123188300Y-54609921D02*
X123188300Y-53959919D01*
G75*
G02*
X123239299Y-53908920I50999J0D01*
G01*
X124799301Y-53908920D01*
G75*
G02*
X124850300Y-53959919I0J-50999D01*
G01*
X124850300Y-54609921D01*
G75*
G02*
X124799301Y-54660920I-50999J0D01*
G01*
X123239299Y-54660920D01*
G75*
G02*
X123188300Y-54609921I0J50999D01*
G01*
G37*
G36*
G01*
X120488300Y-54609921D02*
X120488300Y-53959919D01*
G75*
G02*
X120539299Y-53908920I50999J0D01*
G01*
X122099301Y-53908920D01*
G75*
G02*
X122150300Y-53959919I0J-50999D01*
G01*
X122150300Y-54609921D01*
G75*
G02*
X122099301Y-54660920I-50999J0D01*
G01*
X120539299Y-54660920D01*
G75*
G02*
X120488300Y-54609921I0J50999D01*
G01*
G37*
G36*
G01*
X120488300Y-53659921D02*
X120488300Y-53009919D01*
G75*
G02*
X120539299Y-52958920I50999J0D01*
G01*
X122099301Y-52958920D01*
G75*
G02*
X122150300Y-53009919I0J-50999D01*
G01*
X122150300Y-53659921D01*
G75*
G02*
X122099301Y-53710920I-50999J0D01*
G01*
X120539299Y-53710920D01*
G75*
G02*
X120488300Y-53659921I0J50999D01*
G01*
G37*
G36*
G01*
X120488300Y-52709921D02*
X120488300Y-52059919D01*
G75*
G02*
X120539299Y-52008920I50999J0D01*
G01*
X122099301Y-52008920D01*
G75*
G02*
X122150300Y-52059919I0J-50999D01*
G01*
X122150300Y-52709921D01*
G75*
G02*
X122099301Y-52760920I-50999J0D01*
G01*
X120539299Y-52760920D01*
G75*
G02*
X120488300Y-52709921I0J50999D01*
G01*
G37*
G36*
G01*
X141651067Y-86715177D02*
X141651067Y-90215043D01*
G75*
G02*
X141600067Y-90266043I-51000J0D01*
G01*
X133200033Y-90266043D01*
G75*
G02*
X133149033Y-90215043I0J51000D01*
G01*
X133149033Y-86715177D01*
G75*
G02*
X133200033Y-86664177I51000J0D01*
G01*
X141600067Y-86664177D01*
G75*
G02*
X141651067Y-86715177I0J-51000D01*
G01*
G37*
G36*
G01*
X132851110Y-89814866D02*
X132851110Y-90614966D01*
G75*
G02*
X132800110Y-90665966I-51000J0D01*
G01*
X130800114Y-90665966D01*
G75*
G02*
X130749114Y-90614966I0J51000D01*
G01*
X130749114Y-89814866D01*
G75*
G02*
X130800114Y-89763866I51000J0D01*
G01*
X132800110Y-89763866D01*
G75*
G02*
X132851110Y-89814866I0J-51000D01*
G01*
G37*
G36*
G01*
X146000944Y-83815132D02*
X146000944Y-84615232D01*
G75*
G02*
X145949944Y-84666232I-51000J0D01*
G01*
X141949952Y-84666232D01*
G75*
G02*
X141898952Y-84615232I0J51000D01*
G01*
X141898952Y-83815132D01*
G75*
G02*
X141949952Y-83764132I51000J0D01*
G01*
X145949944Y-83764132D01*
G75*
G02*
X146000944Y-83815132I0J-51000D01*
G01*
G37*
G36*
G01*
X146000944Y-81914958D02*
X146000944Y-82715058D01*
G75*
G02*
X145949944Y-82766058I-51000J0D01*
G01*
X141949952Y-82766058D01*
G75*
G02*
X141898952Y-82715058I0J51000D01*
G01*
X141898952Y-81914958D01*
G75*
G02*
X141949952Y-81863958I51000J0D01*
G01*
X145949944Y-81863958D01*
G75*
G02*
X146000944Y-81914958I0J-51000D01*
G01*
G37*
G36*
G01*
X146000944Y-80015038D02*
X146000944Y-80815138D01*
G75*
G02*
X145949944Y-80866138I-51000J0D01*
G01*
X141949952Y-80866138D01*
G75*
G02*
X141898952Y-80815138I0J51000D01*
G01*
X141898952Y-80015038D01*
G75*
G02*
X141949952Y-79964038I51000J0D01*
G01*
X145949944Y-79964038D01*
G75*
G02*
X146000944Y-80015038I0J-51000D01*
G01*
G37*
G36*
G01*
X146000944Y-78115118D02*
X146000944Y-78915218D01*
G75*
G02*
X145949944Y-78966218I-51000J0D01*
G01*
X141949952Y-78966218D01*
G75*
G02*
X141898952Y-78915218I0J51000D01*
G01*
X141898952Y-78115118D01*
G75*
G02*
X141949952Y-78064118I51000J0D01*
G01*
X145949944Y-78064118D01*
G75*
G02*
X146000944Y-78115118I0J-51000D01*
G01*
G37*
G36*
G01*
X146000944Y-76214944D02*
X146000944Y-77015044D01*
G75*
G02*
X145949944Y-77066044I-51000J0D01*
G01*
X141949952Y-77066044D01*
G75*
G02*
X141898952Y-77015044I0J51000D01*
G01*
X141898952Y-76214944D01*
G75*
G02*
X141949952Y-76163944I51000J0D01*
G01*
X145949944Y-76163944D01*
G75*
G02*
X146000944Y-76214944I0J-51000D01*
G01*
G37*
G36*
G01*
X146000944Y-74315024D02*
X146000944Y-75115124D01*
G75*
G02*
X145949944Y-75166124I-51000J0D01*
G01*
X141949952Y-75166124D01*
G75*
G02*
X141898952Y-75115124I0J51000D01*
G01*
X141898952Y-74315024D01*
G75*
G02*
X141949952Y-74264024I51000J0D01*
G01*
X145949944Y-74264024D01*
G75*
G02*
X146000944Y-74315024I0J-51000D01*
G01*
G37*
G36*
G01*
X129000978Y-71374974D02*
X129000978Y-72175074D01*
G75*
G02*
X128949978Y-72226074I-51000J0D01*
G01*
X126949982Y-72226074D01*
G75*
G02*
X126898982Y-72175074I0J51000D01*
G01*
X126898982Y-71374974D01*
G75*
G02*
X126949982Y-71323974I51000J0D01*
G01*
X128949978Y-71323974D01*
G75*
G02*
X129000978Y-71374974I0J-51000D01*
G01*
G37*
G36*
G01*
X129000978Y-73084902D02*
X129000978Y-73885002D01*
G75*
G02*
X128949978Y-73936002I-51000J0D01*
G01*
X126949982Y-73936002D01*
G75*
G02*
X126898982Y-73885002I0J51000D01*
G01*
X126898982Y-73084902D01*
G75*
G02*
X126949982Y-73033902I51000J0D01*
G01*
X128949978Y-73033902D01*
G75*
G02*
X129000978Y-73084902I0J-51000D01*
G01*
G37*
G36*
G01*
X129000978Y-74795084D02*
X129000978Y-75595184D01*
G75*
G02*
X128949978Y-75646184I-51000J0D01*
G01*
X126949982Y-75646184D01*
G75*
G02*
X126898982Y-75595184I0J51000D01*
G01*
X126898982Y-74795084D01*
G75*
G02*
X126949982Y-74744084I51000J0D01*
G01*
X128949978Y-74744084D01*
G75*
G02*
X129000978Y-74795084I0J-51000D01*
G01*
G37*
G36*
G01*
X129000978Y-76505012D02*
X129000978Y-77305112D01*
G75*
G02*
X128949978Y-77356112I-51000J0D01*
G01*
X126949982Y-77356112D01*
G75*
G02*
X126898982Y-77305112I0J51000D01*
G01*
X126898982Y-76505012D01*
G75*
G02*
X126949982Y-76454012I51000J0D01*
G01*
X128949978Y-76454012D01*
G75*
G02*
X129000978Y-76505012I0J-51000D01*
G01*
G37*
G36*
G01*
X129000978Y-78214940D02*
X129000978Y-79015040D01*
G75*
G02*
X128949978Y-79066040I-51000J0D01*
G01*
X126949982Y-79066040D01*
G75*
G02*
X126898982Y-79015040I0J51000D01*
G01*
X126898982Y-78214940D01*
G75*
G02*
X126949982Y-78163940I51000J0D01*
G01*
X128949978Y-78163940D01*
G75*
G02*
X129000978Y-78214940I0J-51000D01*
G01*
G37*
G36*
G01*
X129000978Y-79925122D02*
X129000978Y-80725222D01*
G75*
G02*
X128949978Y-80776222I-51000J0D01*
G01*
X126949982Y-80776222D01*
G75*
G02*
X126898982Y-80725222I0J51000D01*
G01*
X126898982Y-79925122D01*
G75*
G02*
X126949982Y-79874122I51000J0D01*
G01*
X128949978Y-79874122D01*
G75*
G02*
X129000978Y-79925122I0J-51000D01*
G01*
G37*
G36*
G01*
X129000978Y-81635050D02*
X129000978Y-82435150D01*
G75*
G02*
X128949978Y-82486150I-51000J0D01*
G01*
X126949982Y-82486150D01*
G75*
G02*
X126898982Y-82435150I0J51000D01*
G01*
X126898982Y-81635050D01*
G75*
G02*
X126949982Y-81584050I51000J0D01*
G01*
X128949978Y-81584050D01*
G75*
G02*
X129000978Y-81635050I0J-51000D01*
G01*
G37*
G36*
G01*
X129000978Y-83344978D02*
X129000978Y-84145078D01*
G75*
G02*
X128949978Y-84196078I-51000J0D01*
G01*
X126949982Y-84196078D01*
G75*
G02*
X126898982Y-84145078I0J51000D01*
G01*
X126898982Y-83344978D01*
G75*
G02*
X126949982Y-83293978I51000J0D01*
G01*
X128949978Y-83293978D01*
G75*
G02*
X129000978Y-83344978I0J-51000D01*
G01*
G37*
G36*
G01*
X129000978Y-85054906D02*
X129000978Y-85855006D01*
G75*
G02*
X128949978Y-85906006I-51000J0D01*
G01*
X126949982Y-85906006D01*
G75*
G02*
X126898982Y-85855006I0J51000D01*
G01*
X126898982Y-85054906D01*
G75*
G02*
X126949982Y-85003906I51000J0D01*
G01*
X128949978Y-85003906D01*
G75*
G02*
X129000978Y-85054906I0J-51000D01*
G01*
G37*
G36*
G01*
X129000978Y-86765088D02*
X129000978Y-87565188D01*
G75*
G02*
X128949978Y-87616188I-51000J0D01*
G01*
X126949982Y-87616188D01*
G75*
G02*
X126898982Y-87565188I0J51000D01*
G01*
X126898982Y-86765088D01*
G75*
G02*
X126949982Y-86714088I51000J0D01*
G01*
X128949978Y-86714088D01*
G75*
G02*
X129000978Y-86765088I0J-51000D01*
G01*
G37*
D17*
X142800106Y-48600000D03*
X147199894Y-48600000D03*
G36*
G01*
X142446272Y-47058109D02*
X143746268Y-47058109D01*
G75*
G02*
X143797268Y-47109109I0J-51000D01*
G01*
X143797268Y-48009107D01*
G75*
G02*
X143746268Y-48060107I-51000J0D01*
G01*
X142446272Y-48060107D01*
G75*
G02*
X142395272Y-48009107I0J51000D01*
G01*
X142395272Y-47109109D01*
G75*
G02*
X142446272Y-47058109I51000J0D01*
G01*
G37*
G36*
G01*
X146253732Y-47058363D02*
X147553728Y-47058363D01*
G75*
G02*
X147604728Y-47109363I0J-51000D01*
G01*
X147604728Y-48009361D01*
G75*
G02*
X147553728Y-48060361I-51000J0D01*
G01*
X146253732Y-48060361D01*
G75*
G02*
X146202732Y-48009361I0J51000D01*
G01*
X146202732Y-47109363D01*
G75*
G02*
X146253732Y-47058363I51000J0D01*
G01*
G37*
G36*
G01*
X144210361Y-48740640D02*
X144210361Y-50540636D01*
G75*
G02*
X144159361Y-50591636I-51000J0D01*
G01*
X143409351Y-50591636D01*
G75*
G02*
X143358351Y-50540636I0J51000D01*
G01*
X143358351Y-48740640D01*
G75*
G02*
X143409351Y-48689640I51000J0D01*
G01*
X144159361Y-48689640D01*
G75*
G02*
X144210361Y-48740640I0J-51000D01*
G01*
G37*
G36*
G01*
X145336242Y-48740639D02*
X145336242Y-50540637D01*
G75*
G02*
X145285243Y-50591636I-50999J0D01*
G01*
X144685293Y-50591636D01*
G75*
G02*
X144634294Y-50540637I0J50999D01*
G01*
X144634294Y-48740639D01*
G75*
G02*
X144685293Y-48689640I50999J0D01*
G01*
X145285243Y-48689640D01*
G75*
G02*
X145336242Y-48740639I0J-50999D01*
G01*
G37*
G36*
G01*
X146612185Y-48740640D02*
X146612185Y-50540636D01*
G75*
G02*
X146561185Y-50591636I-51000J0D01*
G01*
X145811175Y-50591636D01*
G75*
G02*
X145760175Y-50540636I0J51000D01*
G01*
X145760175Y-48740640D01*
G75*
G02*
X145811175Y-48689640I51000J0D01*
G01*
X146561185Y-48689640D01*
G75*
G02*
X146612185Y-48740640I0J-51000D01*
G01*
G37*
D18*
G36*
X149964127Y-90571296D02*
G01*
X149964277Y-90573117D01*
X149959490Y-90584675D01*
X149938493Y-90690232D01*
X149938493Y-90797848D01*
X149959490Y-90903405D01*
X149964277Y-90914963D01*
X149964016Y-90916946D01*
X149962168Y-90917711D01*
X149960665Y-90916671D01*
X149952102Y-90900649D01*
X149936807Y-90882012D01*
X149918170Y-90866717D01*
X149896906Y-90855352D01*
X149873831Y-90848352D01*
X149849840Y-90845989D01*
X149825849Y-90848352D01*
X149802774Y-90855352D01*
X149781510Y-90866717D01*
X149762873Y-90882012D01*
X149747578Y-90900649D01*
X149739015Y-90916671D01*
X149737316Y-90917727D01*
X149735553Y-90916784D01*
X149735403Y-90914963D01*
X149740190Y-90903405D01*
X149761187Y-90797848D01*
X149761187Y-90690232D01*
X149740190Y-90584675D01*
X149735403Y-90573117D01*
X149735664Y-90571134D01*
X149737512Y-90570369D01*
X149739015Y-90571409D01*
X149747578Y-90587431D01*
X149762873Y-90606068D01*
X149781510Y-90621363D01*
X149802774Y-90632728D01*
X149825849Y-90639728D01*
X149849840Y-90642091D01*
X149873831Y-90639728D01*
X149896906Y-90632728D01*
X149918170Y-90621363D01*
X149936807Y-90606068D01*
X149952102Y-90587431D01*
X149960665Y-90571409D01*
X149962364Y-90570353D01*
X149964127Y-90571296D01*
G37*
G36*
X150657746Y-89994864D02*
G01*
X150658511Y-89996712D01*
X150657471Y-89998215D01*
X150641449Y-90006778D01*
X150622812Y-90022073D01*
X150607517Y-90040710D01*
X150596152Y-90061974D01*
X150589152Y-90085049D01*
X150586789Y-90109040D01*
X150589152Y-90133031D01*
X150596152Y-90156106D01*
X150607517Y-90177370D01*
X150622812Y-90196007D01*
X150641449Y-90211302D01*
X150657471Y-90219865D01*
X150658527Y-90221564D01*
X150657584Y-90223327D01*
X150655763Y-90223477D01*
X150644205Y-90218690D01*
X150538648Y-90197693D01*
X150431032Y-90197693D01*
X150325475Y-90218690D01*
X150313917Y-90223477D01*
X150311934Y-90223216D01*
X150311169Y-90221368D01*
X150312209Y-90219865D01*
X150328231Y-90211302D01*
X150346868Y-90196007D01*
X150362163Y-90177370D01*
X150373528Y-90156106D01*
X150380528Y-90133031D01*
X150382891Y-90109040D01*
X150380528Y-90085049D01*
X150373528Y-90061974D01*
X150362163Y-90040710D01*
X150346868Y-90022073D01*
X150328231Y-90006778D01*
X150312209Y-89998215D01*
X150311153Y-89996516D01*
X150312096Y-89994753D01*
X150313917Y-89994603D01*
X150325475Y-89999390D01*
X150431032Y-90020387D01*
X150538648Y-90020387D01*
X150644205Y-89999390D01*
X150655763Y-89994603D01*
X150657746Y-89994864D01*
G37*
G36*
X149387746Y-89994864D02*
G01*
X149388511Y-89996712D01*
X149387471Y-89998215D01*
X149371449Y-90006778D01*
X149352812Y-90022073D01*
X149337517Y-90040710D01*
X149326152Y-90061974D01*
X149319152Y-90085049D01*
X149316789Y-90109040D01*
X149319152Y-90133031D01*
X149326152Y-90156106D01*
X149337517Y-90177370D01*
X149352812Y-90196007D01*
X149371449Y-90211302D01*
X149387471Y-90219865D01*
X149388527Y-90221564D01*
X149387584Y-90223327D01*
X149385763Y-90223477D01*
X149374205Y-90218690D01*
X149268648Y-90197693D01*
X149161032Y-90197693D01*
X149055475Y-90218690D01*
X149043917Y-90223477D01*
X149041934Y-90223216D01*
X149041169Y-90221368D01*
X149042209Y-90219865D01*
X149058231Y-90211302D01*
X149076868Y-90196007D01*
X149092163Y-90177370D01*
X149103528Y-90156106D01*
X149110528Y-90133031D01*
X149112891Y-90109040D01*
X149110528Y-90085049D01*
X149103528Y-90061974D01*
X149092163Y-90040710D01*
X149076868Y-90022073D01*
X149058231Y-90006778D01*
X149042209Y-89998215D01*
X149041153Y-89996516D01*
X149042096Y-89994753D01*
X149043917Y-89994603D01*
X149055475Y-89999390D01*
X149161032Y-90020387D01*
X149268648Y-90020387D01*
X149374205Y-89999390D01*
X149385763Y-89994603D01*
X149387746Y-89994864D01*
G37*
G36*
X149964127Y-89301296D02*
G01*
X149964277Y-89303117D01*
X149959490Y-89314675D01*
X149938493Y-89420232D01*
X149938493Y-89527848D01*
X149959490Y-89633405D01*
X149964277Y-89644963D01*
X149964016Y-89646946D01*
X149962168Y-89647711D01*
X149960665Y-89646671D01*
X149952102Y-89630649D01*
X149936807Y-89612012D01*
X149918170Y-89596717D01*
X149896906Y-89585352D01*
X149873831Y-89578352D01*
X149849840Y-89575989D01*
X149825849Y-89578352D01*
X149802774Y-89585352D01*
X149781510Y-89596717D01*
X149762873Y-89612012D01*
X149747578Y-89630649D01*
X149739015Y-89646671D01*
X149737316Y-89647727D01*
X149735553Y-89646784D01*
X149735403Y-89644963D01*
X149740190Y-89633405D01*
X149761187Y-89527848D01*
X149761187Y-89420232D01*
X149740190Y-89314675D01*
X149735403Y-89303117D01*
X149735664Y-89301134D01*
X149737512Y-89300369D01*
X149739015Y-89301409D01*
X149747578Y-89317431D01*
X149762873Y-89336068D01*
X149781510Y-89351363D01*
X149802774Y-89362728D01*
X149825849Y-89369728D01*
X149849840Y-89372091D01*
X149873831Y-89369728D01*
X149896906Y-89362728D01*
X149918170Y-89351363D01*
X149936807Y-89336068D01*
X149952102Y-89317431D01*
X149960665Y-89301409D01*
X149962364Y-89300353D01*
X149964127Y-89301296D01*
G37*
G36*
X150657746Y-88724864D02*
G01*
X150658511Y-88726712D01*
X150657471Y-88728215D01*
X150641449Y-88736778D01*
X150622812Y-88752073D01*
X150607517Y-88770710D01*
X150596152Y-88791974D01*
X150589152Y-88815049D01*
X150586789Y-88839040D01*
X150589152Y-88863031D01*
X150596152Y-88886106D01*
X150607517Y-88907370D01*
X150622812Y-88926007D01*
X150641449Y-88941302D01*
X150657471Y-88949865D01*
X150658527Y-88951564D01*
X150657584Y-88953327D01*
X150655763Y-88953477D01*
X150644205Y-88948690D01*
X150538648Y-88927693D01*
X150431032Y-88927693D01*
X150325475Y-88948690D01*
X150313917Y-88953477D01*
X150311934Y-88953216D01*
X150311169Y-88951368D01*
X150312209Y-88949865D01*
X150328231Y-88941302D01*
X150346868Y-88926007D01*
X150362163Y-88907370D01*
X150373528Y-88886106D01*
X150380528Y-88863031D01*
X150382891Y-88839040D01*
X150380528Y-88815049D01*
X150373528Y-88791974D01*
X150362163Y-88770710D01*
X150346868Y-88752073D01*
X150328231Y-88736778D01*
X150312209Y-88728215D01*
X150311153Y-88726516D01*
X150312096Y-88724753D01*
X150313917Y-88724603D01*
X150325475Y-88729390D01*
X150431032Y-88750387D01*
X150538648Y-88750387D01*
X150644205Y-88729390D01*
X150655763Y-88724603D01*
X150657746Y-88724864D01*
G37*
G36*
X149387746Y-88724864D02*
G01*
X149388511Y-88726712D01*
X149387471Y-88728215D01*
X149371449Y-88736778D01*
X149352812Y-88752073D01*
X149337517Y-88770710D01*
X149326152Y-88791974D01*
X149319152Y-88815049D01*
X149316789Y-88839040D01*
X149319152Y-88863031D01*
X149326152Y-88886106D01*
X149337517Y-88907370D01*
X149352812Y-88926007D01*
X149371449Y-88941302D01*
X149387471Y-88949865D01*
X149388527Y-88951564D01*
X149387584Y-88953327D01*
X149385763Y-88953477D01*
X149374205Y-88948690D01*
X149268648Y-88927693D01*
X149161032Y-88927693D01*
X149055475Y-88948690D01*
X149043917Y-88953477D01*
X149041934Y-88953216D01*
X149041169Y-88951368D01*
X149042209Y-88949865D01*
X149058231Y-88941302D01*
X149076868Y-88926007D01*
X149092163Y-88907370D01*
X149103528Y-88886106D01*
X149110528Y-88863031D01*
X149112891Y-88839040D01*
X149110528Y-88815049D01*
X149103528Y-88791974D01*
X149092163Y-88770710D01*
X149076868Y-88752073D01*
X149058231Y-88736778D01*
X149042209Y-88728215D01*
X149041153Y-88726516D01*
X149042096Y-88724753D01*
X149043917Y-88724603D01*
X149055475Y-88729390D01*
X149161032Y-88750387D01*
X149268648Y-88750387D01*
X149374205Y-88729390D01*
X149385763Y-88724603D01*
X149387746Y-88724864D01*
G37*
G36*
X149964127Y-88031296D02*
G01*
X149964277Y-88033117D01*
X149959490Y-88044675D01*
X149938493Y-88150232D01*
X149938493Y-88257848D01*
X149959490Y-88363405D01*
X149964277Y-88374963D01*
X149964016Y-88376946D01*
X149962168Y-88377711D01*
X149960665Y-88376671D01*
X149952102Y-88360649D01*
X149936807Y-88342012D01*
X149918170Y-88326717D01*
X149896906Y-88315352D01*
X149873831Y-88308352D01*
X149849840Y-88305989D01*
X149825849Y-88308352D01*
X149802774Y-88315352D01*
X149781510Y-88326717D01*
X149762873Y-88342012D01*
X149747578Y-88360649D01*
X149739015Y-88376671D01*
X149737316Y-88377727D01*
X149735553Y-88376784D01*
X149735403Y-88374963D01*
X149740190Y-88363405D01*
X149761187Y-88257848D01*
X149761187Y-88150232D01*
X149740190Y-88044675D01*
X149735403Y-88033117D01*
X149735664Y-88031134D01*
X149737512Y-88030369D01*
X149739015Y-88031409D01*
X149747578Y-88047431D01*
X149762873Y-88066068D01*
X149781510Y-88081363D01*
X149802774Y-88092728D01*
X149825849Y-88099728D01*
X149849840Y-88102091D01*
X149873831Y-88099728D01*
X149896906Y-88092728D01*
X149918170Y-88081363D01*
X149936807Y-88066068D01*
X149952102Y-88047431D01*
X149960665Y-88031409D01*
X149962364Y-88030353D01*
X149964127Y-88031296D01*
G37*
G36*
X149387746Y-87454864D02*
G01*
X149388511Y-87456712D01*
X149387471Y-87458215D01*
X149371449Y-87466778D01*
X149352812Y-87482073D01*
X149337517Y-87500710D01*
X149326152Y-87521974D01*
X149319152Y-87545049D01*
X149316789Y-87569040D01*
X149319152Y-87593031D01*
X149326152Y-87616106D01*
X149337517Y-87637370D01*
X149352812Y-87656007D01*
X149371449Y-87671302D01*
X149387471Y-87679865D01*
X149388527Y-87681564D01*
X149387584Y-87683327D01*
X149385763Y-87683477D01*
X149374205Y-87678690D01*
X149268648Y-87657693D01*
X149161032Y-87657693D01*
X149055475Y-87678690D01*
X149043917Y-87683477D01*
X149041934Y-87683216D01*
X149041169Y-87681368D01*
X149042209Y-87679865D01*
X149058231Y-87671302D01*
X149076868Y-87656007D01*
X149092163Y-87637370D01*
X149103528Y-87616106D01*
X149110528Y-87593031D01*
X149112891Y-87569040D01*
X149110528Y-87545049D01*
X149103528Y-87521974D01*
X149092163Y-87500710D01*
X149076868Y-87482073D01*
X149058231Y-87466778D01*
X149042209Y-87458215D01*
X149041153Y-87456516D01*
X149042096Y-87454753D01*
X149043917Y-87454603D01*
X149055475Y-87459390D01*
X149161032Y-87480387D01*
X149268648Y-87480387D01*
X149374205Y-87459390D01*
X149385763Y-87454603D01*
X149387746Y-87454864D01*
G37*
G36*
X150657746Y-87454864D02*
G01*
X150658511Y-87456712D01*
X150657471Y-87458215D01*
X150641449Y-87466778D01*
X150622812Y-87482073D01*
X150607517Y-87500710D01*
X150596152Y-87521974D01*
X150589152Y-87545049D01*
X150586789Y-87569040D01*
X150589152Y-87593031D01*
X150596152Y-87616106D01*
X150607517Y-87637370D01*
X150622812Y-87656007D01*
X150641449Y-87671302D01*
X150657471Y-87679865D01*
X150658527Y-87681564D01*
X150657584Y-87683327D01*
X150655763Y-87683477D01*
X150644205Y-87678690D01*
X150538648Y-87657693D01*
X150431032Y-87657693D01*
X150325475Y-87678690D01*
X150313917Y-87683477D01*
X150311934Y-87683216D01*
X150311169Y-87681368D01*
X150312209Y-87679865D01*
X150328231Y-87671302D01*
X150346868Y-87656007D01*
X150362163Y-87637370D01*
X150373528Y-87616106D01*
X150380528Y-87593031D01*
X150382891Y-87569040D01*
X150380528Y-87545049D01*
X150373528Y-87521974D01*
X150362163Y-87500710D01*
X150346868Y-87482073D01*
X150328231Y-87466778D01*
X150312209Y-87458215D01*
X150311153Y-87456516D01*
X150312096Y-87454753D01*
X150313917Y-87454603D01*
X150325475Y-87459390D01*
X150431032Y-87480387D01*
X150538648Y-87480387D01*
X150644205Y-87459390D01*
X150655763Y-87454603D01*
X150657746Y-87454864D01*
G37*
G36*
X149964127Y-86761296D02*
G01*
X149964277Y-86763117D01*
X149959490Y-86774675D01*
X149938493Y-86880232D01*
X149938493Y-86987848D01*
X149959490Y-87093405D01*
X149964277Y-87104963D01*
X149964016Y-87106946D01*
X149962168Y-87107711D01*
X149960665Y-87106671D01*
X149952102Y-87090649D01*
X149936807Y-87072012D01*
X149918170Y-87056717D01*
X149896906Y-87045352D01*
X149873831Y-87038352D01*
X149849840Y-87035989D01*
X149825849Y-87038352D01*
X149802774Y-87045352D01*
X149781510Y-87056717D01*
X149762873Y-87072012D01*
X149747578Y-87090649D01*
X149739015Y-87106671D01*
X149737316Y-87107727D01*
X149735553Y-87106784D01*
X149735403Y-87104963D01*
X149740190Y-87093405D01*
X149761187Y-86987848D01*
X149761187Y-86880232D01*
X149740190Y-86774675D01*
X149735403Y-86763117D01*
X149735664Y-86761134D01*
X149737512Y-86760369D01*
X149739015Y-86761409D01*
X149747578Y-86777431D01*
X149762873Y-86796068D01*
X149781510Y-86811363D01*
X149802774Y-86822728D01*
X149825849Y-86829728D01*
X149849840Y-86832091D01*
X149873831Y-86829728D01*
X149896906Y-86822728D01*
X149918170Y-86811363D01*
X149936807Y-86796068D01*
X149952102Y-86777431D01*
X149960665Y-86761409D01*
X149962364Y-86760353D01*
X149964127Y-86761296D01*
G37*
G36*
X149538494Y-86214040D02*
G01*
X149538494Y-86216040D01*
X149536958Y-86217030D01*
X149512771Y-86219412D01*
X149489696Y-86226412D01*
X149468432Y-86237777D01*
X149449795Y-86253072D01*
X149434500Y-86271709D01*
X149423135Y-86292973D01*
X149416135Y-86316048D01*
X149413772Y-86340038D01*
X149416135Y-86364030D01*
X149423135Y-86387105D01*
X149434500Y-86408369D01*
X149449795Y-86427006D01*
X149468510Y-86442364D01*
X149472838Y-86445256D01*
X149473723Y-86447050D01*
X149472612Y-86448713D01*
X149470962Y-86448767D01*
X149374205Y-86408690D01*
X149268648Y-86387693D01*
X149161032Y-86387693D01*
X149055475Y-86408690D01*
X148958718Y-86448767D01*
X148956735Y-86448506D01*
X148955970Y-86446658D01*
X148956842Y-86445256D01*
X148961170Y-86442364D01*
X148979885Y-86427005D01*
X148995180Y-86408368D01*
X149006545Y-86387105D01*
X149013545Y-86364030D01*
X149015908Y-86340038D01*
X149013545Y-86316047D01*
X149006545Y-86292972D01*
X148995180Y-86271709D01*
X148979884Y-86253072D01*
X148961247Y-86237777D01*
X148939984Y-86226412D01*
X148916909Y-86219412D01*
X148892722Y-86217030D01*
X148891096Y-86215865D01*
X148891292Y-86213875D01*
X148892918Y-86213040D01*
X149536762Y-86213040D01*
X149538494Y-86214040D01*
G37*
G36*
X150657746Y-86184864D02*
G01*
X150658511Y-86186712D01*
X150657471Y-86188215D01*
X150641449Y-86196778D01*
X150622812Y-86212073D01*
X150607517Y-86230710D01*
X150596152Y-86251974D01*
X150589152Y-86275049D01*
X150586789Y-86299040D01*
X150589152Y-86323031D01*
X150596152Y-86346106D01*
X150607517Y-86367370D01*
X150622812Y-86386007D01*
X150641449Y-86401302D01*
X150657471Y-86409865D01*
X150658527Y-86411564D01*
X150657584Y-86413327D01*
X150655763Y-86413477D01*
X150644205Y-86408690D01*
X150538648Y-86387693D01*
X150431032Y-86387693D01*
X150325475Y-86408690D01*
X150313917Y-86413477D01*
X150311934Y-86413216D01*
X150311169Y-86411368D01*
X150312209Y-86409865D01*
X150328231Y-86401302D01*
X150346868Y-86386007D01*
X150362163Y-86367370D01*
X150373528Y-86346106D01*
X150380528Y-86323031D01*
X150382891Y-86299040D01*
X150380528Y-86275049D01*
X150373528Y-86251974D01*
X150362163Y-86230710D01*
X150346868Y-86212073D01*
X150328231Y-86196778D01*
X150312209Y-86188215D01*
X150311153Y-86186516D01*
X150312096Y-86184753D01*
X150313917Y-86184603D01*
X150325475Y-86189390D01*
X150431032Y-86210387D01*
X150538648Y-86210387D01*
X150644205Y-86189390D01*
X150655763Y-86184603D01*
X150657746Y-86184864D01*
G37*
G36*
X149767830Y-85341922D02*
G01*
X149770212Y-85366109D01*
X149777212Y-85389184D01*
X149788577Y-85410448D01*
X149803872Y-85429085D01*
X149822509Y-85444380D01*
X149843773Y-85455745D01*
X149866848Y-85462745D01*
X149890839Y-85465108D01*
X149914830Y-85462745D01*
X149937905Y-85455745D01*
X149959169Y-85444380D01*
X149977806Y-85429085D01*
X149993164Y-85410370D01*
X149996056Y-85406042D01*
X149997850Y-85405157D01*
X149999513Y-85406268D01*
X149999567Y-85407918D01*
X149959490Y-85504675D01*
X149938493Y-85610232D01*
X149938493Y-85717848D01*
X149959490Y-85823405D01*
X149999567Y-85920162D01*
X149999306Y-85922145D01*
X149997458Y-85922910D01*
X149996056Y-85922038D01*
X149993164Y-85917710D01*
X149977805Y-85898995D01*
X149959168Y-85883700D01*
X149937905Y-85872335D01*
X149914830Y-85865335D01*
X149890838Y-85862972D01*
X149866847Y-85865335D01*
X149843772Y-85872335D01*
X149822509Y-85883700D01*
X149803872Y-85898996D01*
X149788577Y-85917633D01*
X149777212Y-85938896D01*
X149770212Y-85961971D01*
X149767830Y-85986158D01*
X149766665Y-85987784D01*
X149764675Y-85987588D01*
X149763840Y-85985962D01*
X149763840Y-85342118D01*
X149764840Y-85340386D01*
X149766840Y-85340386D01*
X149767830Y-85341922D01*
G37*
G36*
X129869312Y-53397900D02*
G01*
X129869580Y-53398900D01*
X129869580Y-54560900D01*
X129868580Y-54562632D01*
X129867580Y-54562900D01*
X129669580Y-54562900D01*
X129667848Y-54561900D01*
X129667580Y-54560900D01*
X129667580Y-53398900D01*
X129668580Y-53397168D01*
X129669580Y-53396900D01*
X129867580Y-53396900D01*
X129869312Y-53397900D01*
G37*
G36*
X130819312Y-53397900D02*
G01*
X130819580Y-53398900D01*
X130819580Y-54560900D01*
X130818580Y-54562632D01*
X130817580Y-54562900D01*
X130619580Y-54562900D01*
X130617848Y-54561900D01*
X130617580Y-54560900D01*
X130617580Y-53398900D01*
X130618580Y-53397168D01*
X130619580Y-53396900D01*
X130817580Y-53396900D01*
X130819312Y-53397900D01*
G37*
G36*
X122152032Y-53709920D02*
G01*
X122152300Y-53710920D01*
X122152300Y-53908920D01*
X122151300Y-53910652D01*
X122150300Y-53910920D01*
X120488300Y-53910920D01*
X120486568Y-53909920D01*
X120486300Y-53908920D01*
X120486300Y-53710920D01*
X120487300Y-53709188D01*
X120488300Y-53708920D01*
X122150300Y-53708920D01*
X122152032Y-53709920D01*
G37*
G36*
X124852032Y-53709920D02*
G01*
X124852300Y-53710920D01*
X124852300Y-53908920D01*
X124851300Y-53910652D01*
X124850300Y-53910920D01*
X123188300Y-53910920D01*
X123186568Y-53909920D01*
X123186300Y-53908920D01*
X123186300Y-53710920D01*
X123187300Y-53709188D01*
X123188300Y-53708920D01*
X124850300Y-53708920D01*
X124852032Y-53709920D01*
G37*
G36*
X124852032Y-52759920D02*
G01*
X124852300Y-52760920D01*
X124852300Y-52958920D01*
X124851300Y-52960652D01*
X124850300Y-52960920D01*
X123188300Y-52960920D01*
X123186568Y-52959920D01*
X123186300Y-52958920D01*
X123186300Y-52760920D01*
X123187300Y-52759188D01*
X123188300Y-52758920D01*
X124850300Y-52758920D01*
X124852032Y-52759920D01*
G37*
G36*
X122152032Y-52759920D02*
G01*
X122152300Y-52760920D01*
X122152300Y-52958920D01*
X122151300Y-52960652D01*
X122150300Y-52960920D01*
X120488300Y-52960920D01*
X120486568Y-52959920D01*
X120486300Y-52958920D01*
X120486300Y-52760920D01*
X120487300Y-52759188D01*
X120488300Y-52758920D01*
X122150300Y-52758920D01*
X122152032Y-52759920D01*
G37*
G36*
X137125732Y-51398000D02*
G01*
X137126000Y-51399000D01*
X137126000Y-52801000D01*
X137125000Y-52802732D01*
X137124000Y-52803000D01*
X137026000Y-52803000D01*
X137024268Y-52802000D01*
X137024000Y-52801000D01*
X137024000Y-51399000D01*
X137025000Y-51397268D01*
X137026000Y-51397000D01*
X137124000Y-51397000D01*
X137125732Y-51398000D01*
G37*
G36*
X137775732Y-51398000D02*
G01*
X137776000Y-51399000D01*
X137776000Y-52801000D01*
X137775000Y-52802732D01*
X137774000Y-52803000D01*
X137676000Y-52803000D01*
X137674268Y-52802000D01*
X137674000Y-52801000D01*
X137674000Y-51399000D01*
X137675000Y-51397268D01*
X137676000Y-51397000D01*
X137774000Y-51397000D01*
X137775732Y-51398000D01*
G37*
G36*
X138425732Y-51398000D02*
G01*
X138426000Y-51399000D01*
X138426000Y-52801000D01*
X138425000Y-52802732D01*
X138424000Y-52803000D01*
X138326000Y-52803000D01*
X138324268Y-52802000D01*
X138324000Y-52801000D01*
X138324000Y-51399000D01*
X138325000Y-51397268D01*
X138326000Y-51397000D01*
X138424000Y-51397000D01*
X138425732Y-51398000D01*
G37*
G36*
X136475732Y-51398000D02*
G01*
X136476000Y-51399000D01*
X136476000Y-52801000D01*
X136475000Y-52802732D01*
X136474000Y-52803000D01*
X136376000Y-52803000D01*
X136374268Y-52802000D01*
X136374000Y-52801000D01*
X136374000Y-51399000D01*
X136375000Y-51397268D01*
X136376000Y-51397000D01*
X136474000Y-51397000D01*
X136475732Y-51398000D01*
G37*
G36*
X143234096Y-48564445D02*
G01*
X143236478Y-48588632D01*
X143243478Y-48611707D01*
X143254843Y-48632971D01*
X143270138Y-48651608D01*
X143288775Y-48666903D01*
X143310039Y-48678268D01*
X143333114Y-48685268D01*
X143357199Y-48687640D01*
X143358351Y-48687640D01*
X143360083Y-48688640D01*
X143360351Y-48689640D01*
X143360351Y-49326863D01*
X143359351Y-49328595D01*
X143357351Y-49328595D01*
X143356361Y-49327059D01*
X143353979Y-49302872D01*
X143346979Y-49279797D01*
X143335614Y-49258533D01*
X143320319Y-49239896D01*
X143301682Y-49224601D01*
X143280418Y-49213236D01*
X143257343Y-49206236D01*
X143233352Y-49203873D01*
X143209361Y-49206236D01*
X143186286Y-49213236D01*
X143165022Y-49224601D01*
X143146235Y-49240020D01*
X143144262Y-49240346D01*
X143142993Y-49238800D01*
X143143420Y-49237205D01*
X143157630Y-49219890D01*
X143197365Y-49145550D01*
X143221835Y-49064884D01*
X143230106Y-48980906D01*
X143230106Y-48564641D01*
X143231106Y-48562909D01*
X143233106Y-48562909D01*
X143234096Y-48564445D01*
G37*
G36*
X146769130Y-48223558D02*
G01*
X146769895Y-48225131D01*
X146769894Y-48980906D01*
X146778165Y-49064883D01*
X146802635Y-49145549D01*
X146841010Y-49217344D01*
X146840944Y-49219343D01*
X146839181Y-49220286D01*
X146837700Y-49219556D01*
X146832323Y-49213004D01*
X146815209Y-49195890D01*
X146795162Y-49182495D01*
X146772888Y-49173269D01*
X146749237Y-49168564D01*
X146725131Y-49168564D01*
X146701481Y-49173268D01*
X146679207Y-49182495D01*
X146659160Y-49195889D01*
X146642113Y-49212936D01*
X146628718Y-49232983D01*
X146619492Y-49255257D01*
X146614778Y-49278954D01*
X146614183Y-49291059D01*
X146613099Y-49292740D01*
X146611101Y-49292642D01*
X146610185Y-49290961D01*
X146610185Y-48689640D01*
X146611185Y-48687908D01*
X146612185Y-48687640D01*
X146642801Y-48687640D01*
X146666886Y-48685268D01*
X146689961Y-48678268D01*
X146711225Y-48666903D01*
X146729862Y-48651608D01*
X146745157Y-48632971D01*
X146756522Y-48611707D01*
X146763522Y-48588632D01*
X146765894Y-48564547D01*
X146765894Y-48225138D01*
X146765914Y-48224855D01*
X146765915Y-48224848D01*
X146767150Y-48223275D01*
X146769130Y-48223558D01*
G37*
M02*
