G04 #@! TF.GenerationSoftware,KiCad,Pcbnew,(5.1.10-1-10_14)*
G04 #@! TF.CreationDate,2021-06-27T23:26:48+08:00*
G04 #@! TF.ProjectId,mops-out,6d6f7073-2d6f-4757-942e-6b696361645f,rev?*
G04 #@! TF.SameCoordinates,Original*
G04 #@! TF.FileFunction,Soldermask,Bot*
G04 #@! TF.FilePolarity,Negative*
%FSLAX46Y46*%
G04 Gerber Fmt 4.6, Leading zero omitted, Abs format (unit mm)*
G04 Created by KiCad (PCBNEW (5.1.10-1-10_14)) date 2021-06-27 23:26:48*
%MOMM*%
%LPD*%
G01*
G04 APERTURE LIST*
%ADD10O,1.102000X1.102000*%
%ADD11C,2.601995*%
%ADD12O,5.101990X1.701997*%
%ADD13C,0.902000*%
%ADD14O,1.102000X1.902000*%
%ADD15O,1.102000X2.102000*%
%ADD16O,0.864000X1.626000*%
%ADD17C,0.100000*%
G04 APERTURE END LIST*
G36*
G01*
X148663840Y-86164040D02*
X148663840Y-85164040D01*
G75*
G02*
X148714840Y-85113040I51000J0D01*
G01*
X149714840Y-85113040D01*
G75*
G02*
X149765840Y-85164040I0J-51000D01*
G01*
X149765840Y-86164040D01*
G75*
G02*
X149714840Y-86215040I-51000J0D01*
G01*
X148714840Y-86215040D01*
G75*
G02*
X148663840Y-86164040I0J51000D01*
G01*
G37*
D10*
X150484840Y-85664040D03*
X150484840Y-86934040D03*
X149214840Y-86934040D03*
X150484840Y-88204040D03*
X149214840Y-88204040D03*
X150484840Y-89474040D03*
X149214840Y-89474040D03*
X150484840Y-90744040D03*
X149214840Y-90744040D03*
D11*
X114523520Y-89933780D03*
X114523520Y-69933820D03*
D12*
X114599720Y-90055700D03*
X114599720Y-69832164D03*
D13*
X134900000Y-51000000D03*
X139900000Y-51000000D03*
D14*
X133525000Y-48250000D03*
X141275000Y-48250000D03*
D15*
X133675000Y-52050000D03*
X141125000Y-52050000D03*
G36*
G01*
X110768127Y-61247448D02*
X111171067Y-61585554D01*
G75*
G02*
X111203484Y-61956077I-169053J-201470D01*
G01*
X110849308Y-62378167D01*
G75*
G02*
X110478785Y-62410584I-201470J169053D01*
G01*
X110075845Y-62072478D01*
G75*
G02*
X110043428Y-61701955I169053J201470D01*
G01*
X110397604Y-61279865D01*
G75*
G02*
X110768127Y-61247448I201470J-169053D01*
G01*
G37*
G36*
G01*
X111941215Y-59849416D02*
X112344155Y-60187522D01*
G75*
G02*
X112376572Y-60558045I-169053J-201470D01*
G01*
X112022396Y-60980135D01*
G75*
G02*
X111651873Y-61012552I-201470J169053D01*
G01*
X111248933Y-60674446D01*
G75*
G02*
X111216516Y-60303923I169053J201470D01*
G01*
X111570692Y-59881833D01*
G75*
G02*
X111941215Y-59849416I201470J-169053D01*
G01*
G37*
G36*
G01*
X113567706Y-58154864D02*
X114183276Y-58888471D01*
G75*
G02*
X114149729Y-59271916I-208496J-174949D01*
G01*
X113607633Y-59726789D01*
G75*
G02*
X113224188Y-59693242I-174949J208496D01*
G01*
X112608618Y-58959635D01*
G75*
G02*
X112642165Y-58576190I208496J174949D01*
G01*
X113184261Y-58121317D01*
G75*
G02*
X113567706Y-58154864I174949J-208496D01*
G01*
G37*
G36*
G01*
X115138098Y-56837150D02*
X115753668Y-57570757D01*
G75*
G02*
X115720121Y-57954202I-208496J-174949D01*
G01*
X115178025Y-58409075D01*
G75*
G02*
X114794580Y-58375528I-174949J208496D01*
G01*
X114179010Y-57641921D01*
G75*
G02*
X114212557Y-57258476I208496J174949D01*
G01*
X114754653Y-56803603D01*
G75*
G02*
X115138098Y-56837150I174949J-208496D01*
G01*
G37*
G36*
G01*
X130149072Y-73749939D02*
X130149072Y-72550043D01*
G75*
G02*
X130200072Y-72499043I51000J0D01*
G01*
X132000068Y-72499043D01*
G75*
G02*
X132051068Y-72550043I0J-51000D01*
G01*
X132051068Y-73749939D01*
G75*
G02*
X132000068Y-73800939I-51000J0D01*
G01*
X130200072Y-73800939D01*
G75*
G02*
X130149072Y-73749939I0J51000D01*
G01*
G37*
G36*
G01*
X130149072Y-77449957D02*
X130149072Y-76250061D01*
G75*
G02*
X130200072Y-76199061I51000J0D01*
G01*
X132000068Y-76199061D01*
G75*
G02*
X132051068Y-76250061I0J-51000D01*
G01*
X132051068Y-77449957D01*
G75*
G02*
X132000068Y-77500957I-51000J0D01*
G01*
X130200072Y-77500957D01*
G75*
G02*
X130149072Y-77449957I0J51000D01*
G01*
G37*
G36*
G01*
X123948932Y-73749939D02*
X123948932Y-72550043D01*
G75*
G02*
X123999932Y-72499043I51000J0D01*
G01*
X125799928Y-72499043D01*
G75*
G02*
X125850928Y-72550043I0J-51000D01*
G01*
X125850928Y-73749939D01*
G75*
G02*
X125799928Y-73800939I-51000J0D01*
G01*
X123999932Y-73800939D01*
G75*
G02*
X123948932Y-73749939I0J51000D01*
G01*
G37*
G36*
G01*
X123948932Y-77449957D02*
X123948932Y-76250061D01*
G75*
G02*
X123999932Y-76199061I51000J0D01*
G01*
X125799928Y-76199061D01*
G75*
G02*
X125850928Y-76250061I0J-51000D01*
G01*
X125850928Y-77449957D01*
G75*
G02*
X125799928Y-77500957I-51000J0D01*
G01*
X123999932Y-77500957D01*
G75*
G02*
X123948932Y-77449957I0J51000D01*
G01*
G37*
G36*
G01*
X109674177Y-64753870D02*
X108844823Y-64275042D01*
G75*
G02*
X108745201Y-63903248I136086J235708D01*
G01*
X109099029Y-63290400D01*
G75*
G02*
X109470823Y-63190778I235708J-136086D01*
G01*
X110300177Y-63669606D01*
G75*
G02*
X110399799Y-64041400I-136086J-235708D01*
G01*
X110045971Y-64654248D01*
G75*
G02*
X109674177Y-64753870I-235708J136086D01*
G01*
G37*
G36*
G01*
X108649177Y-66529222D02*
X107819823Y-66050394D01*
G75*
G02*
X107720201Y-65678600I136086J235708D01*
G01*
X108074029Y-65065752D01*
G75*
G02*
X108445823Y-64966130I235708J-136086D01*
G01*
X109275177Y-65444958D01*
G75*
G02*
X109374799Y-65816752I-136086J-235708D01*
G01*
X109020971Y-66429600D01*
G75*
G02*
X108649177Y-66529222I-235708J136086D01*
G01*
G37*
G36*
G01*
X133196220Y-75498640D02*
X133722220Y-75498640D01*
G75*
G02*
X133985220Y-75761640I0J-263000D01*
G01*
X133985220Y-76412640D01*
G75*
G02*
X133722220Y-76675640I-263000J0D01*
G01*
X133196220Y-76675640D01*
G75*
G02*
X132933220Y-76412640I0J263000D01*
G01*
X132933220Y-75761640D01*
G75*
G02*
X133196220Y-75498640I263000J0D01*
G01*
G37*
G36*
G01*
X133196220Y-73773640D02*
X133722220Y-73773640D01*
G75*
G02*
X133985220Y-74036640I0J-263000D01*
G01*
X133985220Y-74687640D01*
G75*
G02*
X133722220Y-74950640I-263000J0D01*
G01*
X133196220Y-74950640D01*
G75*
G02*
X132933220Y-74687640I0J263000D01*
G01*
X132933220Y-74036640D01*
G75*
G02*
X133196220Y-73773640I263000J0D01*
G01*
G37*
D16*
X142800106Y-48600000D03*
X147199894Y-48600000D03*
D17*
G36*
X149964127Y-90571296D02*
G01*
X149964277Y-90573117D01*
X149959490Y-90584675D01*
X149938493Y-90690232D01*
X149938493Y-90797848D01*
X149959490Y-90903405D01*
X149964277Y-90914963D01*
X149964016Y-90916946D01*
X149962168Y-90917711D01*
X149960665Y-90916671D01*
X149952102Y-90900649D01*
X149936807Y-90882012D01*
X149918170Y-90866717D01*
X149896906Y-90855352D01*
X149873831Y-90848352D01*
X149849840Y-90845989D01*
X149825849Y-90848352D01*
X149802774Y-90855352D01*
X149781510Y-90866717D01*
X149762873Y-90882012D01*
X149747578Y-90900649D01*
X149739015Y-90916671D01*
X149737316Y-90917727D01*
X149735553Y-90916784D01*
X149735403Y-90914963D01*
X149740190Y-90903405D01*
X149761187Y-90797848D01*
X149761187Y-90690232D01*
X149740190Y-90584675D01*
X149735403Y-90573117D01*
X149735664Y-90571134D01*
X149737512Y-90570369D01*
X149739015Y-90571409D01*
X149747578Y-90587431D01*
X149762873Y-90606068D01*
X149781510Y-90621363D01*
X149802774Y-90632728D01*
X149825849Y-90639728D01*
X149849840Y-90642091D01*
X149873831Y-90639728D01*
X149896906Y-90632728D01*
X149918170Y-90621363D01*
X149936807Y-90606068D01*
X149952102Y-90587431D01*
X149960665Y-90571409D01*
X149962364Y-90570353D01*
X149964127Y-90571296D01*
G37*
G36*
X150657746Y-89994864D02*
G01*
X150658511Y-89996712D01*
X150657471Y-89998215D01*
X150641449Y-90006778D01*
X150622812Y-90022073D01*
X150607517Y-90040710D01*
X150596152Y-90061974D01*
X150589152Y-90085049D01*
X150586789Y-90109040D01*
X150589152Y-90133031D01*
X150596152Y-90156106D01*
X150607517Y-90177370D01*
X150622812Y-90196007D01*
X150641449Y-90211302D01*
X150657471Y-90219865D01*
X150658527Y-90221564D01*
X150657584Y-90223327D01*
X150655763Y-90223477D01*
X150644205Y-90218690D01*
X150538648Y-90197693D01*
X150431032Y-90197693D01*
X150325475Y-90218690D01*
X150313917Y-90223477D01*
X150311934Y-90223216D01*
X150311169Y-90221368D01*
X150312209Y-90219865D01*
X150328231Y-90211302D01*
X150346868Y-90196007D01*
X150362163Y-90177370D01*
X150373528Y-90156106D01*
X150380528Y-90133031D01*
X150382891Y-90109040D01*
X150380528Y-90085049D01*
X150373528Y-90061974D01*
X150362163Y-90040710D01*
X150346868Y-90022073D01*
X150328231Y-90006778D01*
X150312209Y-89998215D01*
X150311153Y-89996516D01*
X150312096Y-89994753D01*
X150313917Y-89994603D01*
X150325475Y-89999390D01*
X150431032Y-90020387D01*
X150538648Y-90020387D01*
X150644205Y-89999390D01*
X150655763Y-89994603D01*
X150657746Y-89994864D01*
G37*
G36*
X149387746Y-89994864D02*
G01*
X149388511Y-89996712D01*
X149387471Y-89998215D01*
X149371449Y-90006778D01*
X149352812Y-90022073D01*
X149337517Y-90040710D01*
X149326152Y-90061974D01*
X149319152Y-90085049D01*
X149316789Y-90109040D01*
X149319152Y-90133031D01*
X149326152Y-90156106D01*
X149337517Y-90177370D01*
X149352812Y-90196007D01*
X149371449Y-90211302D01*
X149387471Y-90219865D01*
X149388527Y-90221564D01*
X149387584Y-90223327D01*
X149385763Y-90223477D01*
X149374205Y-90218690D01*
X149268648Y-90197693D01*
X149161032Y-90197693D01*
X149055475Y-90218690D01*
X149043917Y-90223477D01*
X149041934Y-90223216D01*
X149041169Y-90221368D01*
X149042209Y-90219865D01*
X149058231Y-90211302D01*
X149076868Y-90196007D01*
X149092163Y-90177370D01*
X149103528Y-90156106D01*
X149110528Y-90133031D01*
X149112891Y-90109040D01*
X149110528Y-90085049D01*
X149103528Y-90061974D01*
X149092163Y-90040710D01*
X149076868Y-90022073D01*
X149058231Y-90006778D01*
X149042209Y-89998215D01*
X149041153Y-89996516D01*
X149042096Y-89994753D01*
X149043917Y-89994603D01*
X149055475Y-89999390D01*
X149161032Y-90020387D01*
X149268648Y-90020387D01*
X149374205Y-89999390D01*
X149385763Y-89994603D01*
X149387746Y-89994864D01*
G37*
G36*
X149964127Y-89301296D02*
G01*
X149964277Y-89303117D01*
X149959490Y-89314675D01*
X149938493Y-89420232D01*
X149938493Y-89527848D01*
X149959490Y-89633405D01*
X149964277Y-89644963D01*
X149964016Y-89646946D01*
X149962168Y-89647711D01*
X149960665Y-89646671D01*
X149952102Y-89630649D01*
X149936807Y-89612012D01*
X149918170Y-89596717D01*
X149896906Y-89585352D01*
X149873831Y-89578352D01*
X149849840Y-89575989D01*
X149825849Y-89578352D01*
X149802774Y-89585352D01*
X149781510Y-89596717D01*
X149762873Y-89612012D01*
X149747578Y-89630649D01*
X149739015Y-89646671D01*
X149737316Y-89647727D01*
X149735553Y-89646784D01*
X149735403Y-89644963D01*
X149740190Y-89633405D01*
X149761187Y-89527848D01*
X149761187Y-89420232D01*
X149740190Y-89314675D01*
X149735403Y-89303117D01*
X149735664Y-89301134D01*
X149737512Y-89300369D01*
X149739015Y-89301409D01*
X149747578Y-89317431D01*
X149762873Y-89336068D01*
X149781510Y-89351363D01*
X149802774Y-89362728D01*
X149825849Y-89369728D01*
X149849840Y-89372091D01*
X149873831Y-89369728D01*
X149896906Y-89362728D01*
X149918170Y-89351363D01*
X149936807Y-89336068D01*
X149952102Y-89317431D01*
X149960665Y-89301409D01*
X149962364Y-89300353D01*
X149964127Y-89301296D01*
G37*
G36*
X150657746Y-88724864D02*
G01*
X150658511Y-88726712D01*
X150657471Y-88728215D01*
X150641449Y-88736778D01*
X150622812Y-88752073D01*
X150607517Y-88770710D01*
X150596152Y-88791974D01*
X150589152Y-88815049D01*
X150586789Y-88839040D01*
X150589152Y-88863031D01*
X150596152Y-88886106D01*
X150607517Y-88907370D01*
X150622812Y-88926007D01*
X150641449Y-88941302D01*
X150657471Y-88949865D01*
X150658527Y-88951564D01*
X150657584Y-88953327D01*
X150655763Y-88953477D01*
X150644205Y-88948690D01*
X150538648Y-88927693D01*
X150431032Y-88927693D01*
X150325475Y-88948690D01*
X150313917Y-88953477D01*
X150311934Y-88953216D01*
X150311169Y-88951368D01*
X150312209Y-88949865D01*
X150328231Y-88941302D01*
X150346868Y-88926007D01*
X150362163Y-88907370D01*
X150373528Y-88886106D01*
X150380528Y-88863031D01*
X150382891Y-88839040D01*
X150380528Y-88815049D01*
X150373528Y-88791974D01*
X150362163Y-88770710D01*
X150346868Y-88752073D01*
X150328231Y-88736778D01*
X150312209Y-88728215D01*
X150311153Y-88726516D01*
X150312096Y-88724753D01*
X150313917Y-88724603D01*
X150325475Y-88729390D01*
X150431032Y-88750387D01*
X150538648Y-88750387D01*
X150644205Y-88729390D01*
X150655763Y-88724603D01*
X150657746Y-88724864D01*
G37*
G36*
X149387746Y-88724864D02*
G01*
X149388511Y-88726712D01*
X149387471Y-88728215D01*
X149371449Y-88736778D01*
X149352812Y-88752073D01*
X149337517Y-88770710D01*
X149326152Y-88791974D01*
X149319152Y-88815049D01*
X149316789Y-88839040D01*
X149319152Y-88863031D01*
X149326152Y-88886106D01*
X149337517Y-88907370D01*
X149352812Y-88926007D01*
X149371449Y-88941302D01*
X149387471Y-88949865D01*
X149388527Y-88951564D01*
X149387584Y-88953327D01*
X149385763Y-88953477D01*
X149374205Y-88948690D01*
X149268648Y-88927693D01*
X149161032Y-88927693D01*
X149055475Y-88948690D01*
X149043917Y-88953477D01*
X149041934Y-88953216D01*
X149041169Y-88951368D01*
X149042209Y-88949865D01*
X149058231Y-88941302D01*
X149076868Y-88926007D01*
X149092163Y-88907370D01*
X149103528Y-88886106D01*
X149110528Y-88863031D01*
X149112891Y-88839040D01*
X149110528Y-88815049D01*
X149103528Y-88791974D01*
X149092163Y-88770710D01*
X149076868Y-88752073D01*
X149058231Y-88736778D01*
X149042209Y-88728215D01*
X149041153Y-88726516D01*
X149042096Y-88724753D01*
X149043917Y-88724603D01*
X149055475Y-88729390D01*
X149161032Y-88750387D01*
X149268648Y-88750387D01*
X149374205Y-88729390D01*
X149385763Y-88724603D01*
X149387746Y-88724864D01*
G37*
G36*
X149964127Y-88031296D02*
G01*
X149964277Y-88033117D01*
X149959490Y-88044675D01*
X149938493Y-88150232D01*
X149938493Y-88257848D01*
X149959490Y-88363405D01*
X149964277Y-88374963D01*
X149964016Y-88376946D01*
X149962168Y-88377711D01*
X149960665Y-88376671D01*
X149952102Y-88360649D01*
X149936807Y-88342012D01*
X149918170Y-88326717D01*
X149896906Y-88315352D01*
X149873831Y-88308352D01*
X149849840Y-88305989D01*
X149825849Y-88308352D01*
X149802774Y-88315352D01*
X149781510Y-88326717D01*
X149762873Y-88342012D01*
X149747578Y-88360649D01*
X149739015Y-88376671D01*
X149737316Y-88377727D01*
X149735553Y-88376784D01*
X149735403Y-88374963D01*
X149740190Y-88363405D01*
X149761187Y-88257848D01*
X149761187Y-88150232D01*
X149740190Y-88044675D01*
X149735403Y-88033117D01*
X149735664Y-88031134D01*
X149737512Y-88030369D01*
X149739015Y-88031409D01*
X149747578Y-88047431D01*
X149762873Y-88066068D01*
X149781510Y-88081363D01*
X149802774Y-88092728D01*
X149825849Y-88099728D01*
X149849840Y-88102091D01*
X149873831Y-88099728D01*
X149896906Y-88092728D01*
X149918170Y-88081363D01*
X149936807Y-88066068D01*
X149952102Y-88047431D01*
X149960665Y-88031409D01*
X149962364Y-88030353D01*
X149964127Y-88031296D01*
G37*
G36*
X150657746Y-87454864D02*
G01*
X150658511Y-87456712D01*
X150657471Y-87458215D01*
X150641449Y-87466778D01*
X150622812Y-87482073D01*
X150607517Y-87500710D01*
X150596152Y-87521974D01*
X150589152Y-87545049D01*
X150586789Y-87569040D01*
X150589152Y-87593031D01*
X150596152Y-87616106D01*
X150607517Y-87637370D01*
X150622812Y-87656007D01*
X150641449Y-87671302D01*
X150657471Y-87679865D01*
X150658527Y-87681564D01*
X150657584Y-87683327D01*
X150655763Y-87683477D01*
X150644205Y-87678690D01*
X150538648Y-87657693D01*
X150431032Y-87657693D01*
X150325475Y-87678690D01*
X150313917Y-87683477D01*
X150311934Y-87683216D01*
X150311169Y-87681368D01*
X150312209Y-87679865D01*
X150328231Y-87671302D01*
X150346868Y-87656007D01*
X150362163Y-87637370D01*
X150373528Y-87616106D01*
X150380528Y-87593031D01*
X150382891Y-87569040D01*
X150380528Y-87545049D01*
X150373528Y-87521974D01*
X150362163Y-87500710D01*
X150346868Y-87482073D01*
X150328231Y-87466778D01*
X150312209Y-87458215D01*
X150311153Y-87456516D01*
X150312096Y-87454753D01*
X150313917Y-87454603D01*
X150325475Y-87459390D01*
X150431032Y-87480387D01*
X150538648Y-87480387D01*
X150644205Y-87459390D01*
X150655763Y-87454603D01*
X150657746Y-87454864D01*
G37*
G36*
X149387746Y-87454864D02*
G01*
X149388511Y-87456712D01*
X149387471Y-87458215D01*
X149371449Y-87466778D01*
X149352812Y-87482073D01*
X149337517Y-87500710D01*
X149326152Y-87521974D01*
X149319152Y-87545049D01*
X149316789Y-87569040D01*
X149319152Y-87593031D01*
X149326152Y-87616106D01*
X149337517Y-87637370D01*
X149352812Y-87656007D01*
X149371449Y-87671302D01*
X149387471Y-87679865D01*
X149388527Y-87681564D01*
X149387584Y-87683327D01*
X149385763Y-87683477D01*
X149374205Y-87678690D01*
X149268648Y-87657693D01*
X149161032Y-87657693D01*
X149055475Y-87678690D01*
X149043917Y-87683477D01*
X149041934Y-87683216D01*
X149041169Y-87681368D01*
X149042209Y-87679865D01*
X149058231Y-87671302D01*
X149076868Y-87656007D01*
X149092163Y-87637370D01*
X149103528Y-87616106D01*
X149110528Y-87593031D01*
X149112891Y-87569040D01*
X149110528Y-87545049D01*
X149103528Y-87521974D01*
X149092163Y-87500710D01*
X149076868Y-87482073D01*
X149058231Y-87466778D01*
X149042209Y-87458215D01*
X149041153Y-87456516D01*
X149042096Y-87454753D01*
X149043917Y-87454603D01*
X149055475Y-87459390D01*
X149161032Y-87480387D01*
X149268648Y-87480387D01*
X149374205Y-87459390D01*
X149385763Y-87454603D01*
X149387746Y-87454864D01*
G37*
G36*
X149964127Y-86761296D02*
G01*
X149964277Y-86763117D01*
X149959490Y-86774675D01*
X149938493Y-86880232D01*
X149938493Y-86987848D01*
X149959490Y-87093405D01*
X149964277Y-87104963D01*
X149964016Y-87106946D01*
X149962168Y-87107711D01*
X149960665Y-87106671D01*
X149952102Y-87090649D01*
X149936807Y-87072012D01*
X149918170Y-87056717D01*
X149896906Y-87045352D01*
X149873831Y-87038352D01*
X149849840Y-87035989D01*
X149825849Y-87038352D01*
X149802774Y-87045352D01*
X149781510Y-87056717D01*
X149762873Y-87072012D01*
X149747578Y-87090649D01*
X149739015Y-87106671D01*
X149737316Y-87107727D01*
X149735553Y-87106784D01*
X149735403Y-87104963D01*
X149740190Y-87093405D01*
X149761187Y-86987848D01*
X149761187Y-86880232D01*
X149740190Y-86774675D01*
X149735403Y-86763117D01*
X149735664Y-86761134D01*
X149737512Y-86760369D01*
X149739015Y-86761409D01*
X149747578Y-86777431D01*
X149762873Y-86796068D01*
X149781510Y-86811363D01*
X149802774Y-86822728D01*
X149825849Y-86829728D01*
X149849840Y-86832091D01*
X149873831Y-86829728D01*
X149896906Y-86822728D01*
X149918170Y-86811363D01*
X149936807Y-86796068D01*
X149952102Y-86777431D01*
X149960665Y-86761409D01*
X149962364Y-86760353D01*
X149964127Y-86761296D01*
G37*
G36*
X149538494Y-86214040D02*
G01*
X149538494Y-86216040D01*
X149536958Y-86217030D01*
X149512771Y-86219412D01*
X149489696Y-86226412D01*
X149468432Y-86237777D01*
X149449795Y-86253072D01*
X149434500Y-86271709D01*
X149423135Y-86292973D01*
X149416135Y-86316048D01*
X149413772Y-86340038D01*
X149416135Y-86364030D01*
X149423135Y-86387105D01*
X149434500Y-86408369D01*
X149449795Y-86427006D01*
X149468510Y-86442364D01*
X149472838Y-86445256D01*
X149473723Y-86447050D01*
X149472612Y-86448713D01*
X149470962Y-86448767D01*
X149374205Y-86408690D01*
X149268648Y-86387693D01*
X149161032Y-86387693D01*
X149055475Y-86408690D01*
X148958718Y-86448767D01*
X148956735Y-86448506D01*
X148955970Y-86446658D01*
X148956842Y-86445256D01*
X148961170Y-86442364D01*
X148979885Y-86427005D01*
X148995180Y-86408368D01*
X149006545Y-86387105D01*
X149013545Y-86364030D01*
X149015908Y-86340038D01*
X149013545Y-86316047D01*
X149006545Y-86292972D01*
X148995180Y-86271709D01*
X148979884Y-86253072D01*
X148961247Y-86237777D01*
X148939984Y-86226412D01*
X148916909Y-86219412D01*
X148892722Y-86217030D01*
X148891096Y-86215865D01*
X148891292Y-86213875D01*
X148892918Y-86213040D01*
X149536762Y-86213040D01*
X149538494Y-86214040D01*
G37*
G36*
X150657746Y-86184864D02*
G01*
X150658511Y-86186712D01*
X150657471Y-86188215D01*
X150641449Y-86196778D01*
X150622812Y-86212073D01*
X150607517Y-86230710D01*
X150596152Y-86251974D01*
X150589152Y-86275049D01*
X150586789Y-86299040D01*
X150589152Y-86323031D01*
X150596152Y-86346106D01*
X150607517Y-86367370D01*
X150622812Y-86386007D01*
X150641449Y-86401302D01*
X150657471Y-86409865D01*
X150658527Y-86411564D01*
X150657584Y-86413327D01*
X150655763Y-86413477D01*
X150644205Y-86408690D01*
X150538648Y-86387693D01*
X150431032Y-86387693D01*
X150325475Y-86408690D01*
X150313917Y-86413477D01*
X150311934Y-86413216D01*
X150311169Y-86411368D01*
X150312209Y-86409865D01*
X150328231Y-86401302D01*
X150346868Y-86386007D01*
X150362163Y-86367370D01*
X150373528Y-86346106D01*
X150380528Y-86323031D01*
X150382891Y-86299040D01*
X150380528Y-86275049D01*
X150373528Y-86251974D01*
X150362163Y-86230710D01*
X150346868Y-86212073D01*
X150328231Y-86196778D01*
X150312209Y-86188215D01*
X150311153Y-86186516D01*
X150312096Y-86184753D01*
X150313917Y-86184603D01*
X150325475Y-86189390D01*
X150431032Y-86210387D01*
X150538648Y-86210387D01*
X150644205Y-86189390D01*
X150655763Y-86184603D01*
X150657746Y-86184864D01*
G37*
G36*
X149767830Y-85341922D02*
G01*
X149770212Y-85366109D01*
X149777212Y-85389184D01*
X149788577Y-85410448D01*
X149803872Y-85429085D01*
X149822509Y-85444380D01*
X149843773Y-85455745D01*
X149866848Y-85462745D01*
X149890839Y-85465108D01*
X149914830Y-85462745D01*
X149937905Y-85455745D01*
X149959169Y-85444380D01*
X149977806Y-85429085D01*
X149993164Y-85410370D01*
X149996056Y-85406042D01*
X149997850Y-85405157D01*
X149999513Y-85406268D01*
X149999567Y-85407918D01*
X149959490Y-85504675D01*
X149938493Y-85610232D01*
X149938493Y-85717848D01*
X149959490Y-85823405D01*
X149999567Y-85920162D01*
X149999306Y-85922145D01*
X149997458Y-85922910D01*
X149996056Y-85922038D01*
X149993164Y-85917710D01*
X149977805Y-85898995D01*
X149959168Y-85883700D01*
X149937905Y-85872335D01*
X149914830Y-85865335D01*
X149890838Y-85862972D01*
X149866847Y-85865335D01*
X149843772Y-85872335D01*
X149822509Y-85883700D01*
X149803872Y-85898996D01*
X149788577Y-85917633D01*
X149777212Y-85938896D01*
X149770212Y-85961971D01*
X149767830Y-85986158D01*
X149766665Y-85987784D01*
X149764675Y-85987588D01*
X149763840Y-85985962D01*
X149763840Y-85342118D01*
X149764840Y-85340386D01*
X149766840Y-85340386D01*
X149767830Y-85341922D01*
G37*
G36*
X109259581Y-66018316D02*
G01*
X109259581Y-66020316D01*
X108990451Y-66486464D01*
X108990345Y-66486629D01*
X108963803Y-66523667D01*
X108963544Y-66523962D01*
X108934801Y-66550883D01*
X108934490Y-66551121D01*
X108901046Y-66571918D01*
X108900694Y-66572092D01*
X108863825Y-66585968D01*
X108863447Y-66586069D01*
X108824591Y-66592484D01*
X108824200Y-66592510D01*
X108784836Y-66591222D01*
X108784447Y-66591171D01*
X108746087Y-66582226D01*
X108745716Y-66582100D01*
X108704217Y-66563297D01*
X108704042Y-66563207D01*
X108648182Y-66530956D01*
X108647182Y-66529224D01*
X108648182Y-66527492D01*
X108650007Y-66527402D01*
X108698421Y-66549339D01*
X108750000Y-66561365D01*
X108802934Y-66563098D01*
X108855185Y-66554471D01*
X108904755Y-66535815D01*
X108949726Y-66507850D01*
X108988381Y-66471645D01*
X109019290Y-66428512D01*
X109256117Y-66018316D01*
X109257849Y-66017316D01*
X109259581Y-66018316D01*
G37*
G36*
X107743257Y-65640665D02*
G01*
X107743257Y-65642665D01*
X107721983Y-65679514D01*
X107700084Y-65727844D01*
X107688058Y-65779423D01*
X107686325Y-65832357D01*
X107694952Y-65884608D01*
X107713608Y-65934178D01*
X107741573Y-65979149D01*
X107777777Y-66017804D01*
X107820911Y-66048713D01*
X108235500Y-66288076D01*
X108236500Y-66289808D01*
X108235500Y-66291540D01*
X108233500Y-66291540D01*
X107762958Y-66019873D01*
X107762793Y-66019767D01*
X107725757Y-65993227D01*
X107725462Y-65992968D01*
X107698539Y-65964223D01*
X107698301Y-65963912D01*
X107677504Y-65930468D01*
X107677330Y-65930116D01*
X107663454Y-65893247D01*
X107663353Y-65892869D01*
X107656938Y-65854013D01*
X107656912Y-65853622D01*
X107658200Y-65814258D01*
X107658251Y-65813869D01*
X107667196Y-65775508D01*
X107667322Y-65775137D01*
X107686123Y-65733643D01*
X107686213Y-65733468D01*
X107739793Y-65640665D01*
X107741525Y-65639665D01*
X107743257Y-65640665D01*
G37*
G36*
X109332042Y-65475479D02*
G01*
X109332207Y-65475585D01*
X109369243Y-65502125D01*
X109369538Y-65502384D01*
X109396461Y-65531129D01*
X109396699Y-65531440D01*
X109417496Y-65564884D01*
X109417670Y-65565236D01*
X109431546Y-65602105D01*
X109431647Y-65602483D01*
X109438062Y-65641339D01*
X109438088Y-65641730D01*
X109436800Y-65681094D01*
X109436749Y-65681483D01*
X109427804Y-65719844D01*
X109427678Y-65720215D01*
X109408877Y-65761709D01*
X109408787Y-65761884D01*
X109355207Y-65854687D01*
X109353475Y-65855687D01*
X109351743Y-65854687D01*
X109351743Y-65852687D01*
X109373017Y-65815838D01*
X109394916Y-65767508D01*
X109406942Y-65715929D01*
X109408675Y-65662995D01*
X109400048Y-65610744D01*
X109381392Y-65561174D01*
X109353427Y-65516203D01*
X109317223Y-65477548D01*
X109274089Y-65446639D01*
X108617373Y-65067484D01*
X108616373Y-65065752D01*
X108617373Y-65064020D01*
X108619373Y-65064020D01*
X109332042Y-65475479D01*
G37*
G36*
X108310164Y-64904130D02*
G01*
X108310553Y-64904181D01*
X108348913Y-64913126D01*
X108349284Y-64913252D01*
X108390783Y-64932055D01*
X108390958Y-64932145D01*
X108446818Y-64964396D01*
X108447818Y-64966128D01*
X108446818Y-64967860D01*
X108444993Y-64967950D01*
X108396579Y-64946013D01*
X108345000Y-64933987D01*
X108292066Y-64932254D01*
X108239815Y-64940881D01*
X108190245Y-64959537D01*
X108145274Y-64987502D01*
X108106619Y-65023707D01*
X108075710Y-65066840D01*
X107838883Y-65477036D01*
X107837151Y-65478036D01*
X107835419Y-65477036D01*
X107835419Y-65475036D01*
X108104549Y-65008888D01*
X108104655Y-65008723D01*
X108131197Y-64971685D01*
X108131456Y-64971390D01*
X108160199Y-64944469D01*
X108160510Y-64944231D01*
X108193954Y-64923434D01*
X108194306Y-64923260D01*
X108231175Y-64909384D01*
X108231553Y-64909283D01*
X108270409Y-64902868D01*
X108270800Y-64902842D01*
X108310164Y-64904130D01*
G37*
G36*
X110284581Y-64242964D02*
G01*
X110284581Y-64244964D01*
X110015451Y-64711112D01*
X110015345Y-64711277D01*
X109988803Y-64748315D01*
X109988544Y-64748610D01*
X109959801Y-64775531D01*
X109959490Y-64775769D01*
X109926046Y-64796566D01*
X109925694Y-64796740D01*
X109888825Y-64810616D01*
X109888447Y-64810717D01*
X109849591Y-64817132D01*
X109849200Y-64817158D01*
X109809836Y-64815870D01*
X109809447Y-64815819D01*
X109771087Y-64806874D01*
X109770716Y-64806748D01*
X109729217Y-64787945D01*
X109729042Y-64787855D01*
X109673182Y-64755604D01*
X109672182Y-64753872D01*
X109673182Y-64752140D01*
X109675007Y-64752050D01*
X109723421Y-64773987D01*
X109775000Y-64786013D01*
X109827934Y-64787746D01*
X109880185Y-64779119D01*
X109929755Y-64760463D01*
X109974726Y-64732498D01*
X110013381Y-64696293D01*
X110044290Y-64653160D01*
X110281117Y-64242964D01*
X110282849Y-64241964D01*
X110284581Y-64242964D01*
G37*
G36*
X108768257Y-63865313D02*
G01*
X108768257Y-63867313D01*
X108746983Y-63904162D01*
X108725084Y-63952492D01*
X108713058Y-64004071D01*
X108711325Y-64057005D01*
X108719952Y-64109256D01*
X108738608Y-64158826D01*
X108766573Y-64203797D01*
X108802777Y-64242452D01*
X108845911Y-64273361D01*
X109260500Y-64512724D01*
X109261500Y-64514456D01*
X109260500Y-64516188D01*
X109258500Y-64516188D01*
X108787958Y-64244521D01*
X108787793Y-64244415D01*
X108750757Y-64217875D01*
X108750462Y-64217616D01*
X108723539Y-64188871D01*
X108723301Y-64188560D01*
X108702504Y-64155116D01*
X108702330Y-64154764D01*
X108688454Y-64117895D01*
X108688353Y-64117517D01*
X108681938Y-64078661D01*
X108681912Y-64078270D01*
X108683200Y-64038906D01*
X108683251Y-64038517D01*
X108692196Y-64000156D01*
X108692322Y-63999785D01*
X108711123Y-63958291D01*
X108711213Y-63958116D01*
X108764793Y-63865313D01*
X108766525Y-63864313D01*
X108768257Y-63865313D01*
G37*
G36*
X110357042Y-63700127D02*
G01*
X110357207Y-63700233D01*
X110394243Y-63726773D01*
X110394538Y-63727032D01*
X110421461Y-63755777D01*
X110421699Y-63756088D01*
X110442496Y-63789532D01*
X110442670Y-63789884D01*
X110456546Y-63826753D01*
X110456647Y-63827131D01*
X110463062Y-63865987D01*
X110463088Y-63866378D01*
X110461800Y-63905742D01*
X110461749Y-63906131D01*
X110452804Y-63944492D01*
X110452678Y-63944863D01*
X110433877Y-63986357D01*
X110433787Y-63986532D01*
X110380207Y-64079335D01*
X110378475Y-64080335D01*
X110376743Y-64079335D01*
X110376743Y-64077335D01*
X110398017Y-64040486D01*
X110419916Y-63992156D01*
X110431942Y-63940577D01*
X110433675Y-63887643D01*
X110425048Y-63835392D01*
X110406392Y-63785822D01*
X110378427Y-63740851D01*
X110342223Y-63702196D01*
X110299089Y-63671287D01*
X109642373Y-63292132D01*
X109641373Y-63290400D01*
X109642373Y-63288668D01*
X109644373Y-63288668D01*
X110357042Y-63700127D01*
G37*
G36*
X109335164Y-63128778D02*
G01*
X109335553Y-63128829D01*
X109373913Y-63137774D01*
X109374284Y-63137900D01*
X109415783Y-63156703D01*
X109415958Y-63156793D01*
X109471818Y-63189044D01*
X109472818Y-63190776D01*
X109471818Y-63192508D01*
X109469993Y-63192598D01*
X109421579Y-63170661D01*
X109370000Y-63158635D01*
X109317066Y-63156902D01*
X109264815Y-63165529D01*
X109215245Y-63184185D01*
X109170274Y-63212150D01*
X109131619Y-63248355D01*
X109100710Y-63291488D01*
X108863883Y-63701684D01*
X108862151Y-63702684D01*
X108860419Y-63701684D01*
X108860419Y-63699684D01*
X109129549Y-63233536D01*
X109129655Y-63233371D01*
X109156197Y-63196333D01*
X109156456Y-63196038D01*
X109185199Y-63169117D01*
X109185510Y-63168879D01*
X109218954Y-63148082D01*
X109219306Y-63147908D01*
X109256175Y-63134032D01*
X109256553Y-63133931D01*
X109295409Y-63127516D01*
X109295800Y-63127490D01*
X109335164Y-63128778D01*
G37*
M02*
